<svg id="svg-AHP" 
     xmlns="http://www.w3.org/2000/svg" 
     viewBox="0 0 512 512" 
     class="openai-icon"
     >
  <path
        fill="#10A37F"
        d="M496.74,401.94c2.66.94,4.91,2.75,7.61,3.61.7.22.97.81.79,1.47-.92,3.39-.66,6.97-1.7,10.45-1.81-.17-3.4-.93-5.04-1.47-15.97-5.26-31.76-11.07-47.33-17.41-8.4-3.42-16.78-6.89-24.98-10.78-4.47-2.12-4.4-2.04-7.48,1.82-5.59,7.02-11.03,14.15-16.96,20.9-2.21,2.52-4.63,4.84-6.84,7.35-3.21,3.64-6.81,6.87-10.33,10.18-7,6.58-14.54,12.51-22.34,18.11-10.63,7.62-21.9,14.15-33.7,19.78-11.39,5.43-23.17,9.82-35.31,13.27-8.63,2.45-17.4,4.31-26.25,5.69-5.54.86-11.14,1.39-16.75,1.85-9.61.79-19.21.5-28.8.33-6.39-.12-12.76-.95-19.11-1.86-8.97-1.28-17.82-3.08-26.58-5.39-10.49-2.77-20.69-6.35-30.63-10.68-13.61-5.92-26.52-13.11-38.7-21.6-6.93-4.83-13.62-9.99-19.96-15.6-4.09-3.61-8.22-7.2-12-11.13-8.48-8.82-16.55-17.99-23.62-28.02-6.15-8.72-11.79-17.73-16.79-27.17-5.5-10.37-10.1-21.11-13.98-32.17-2.25-6.4-4.22-12.87-5.88-19.43-1.66-6.55-3.07-13.16-4.07-19.86-.91-6.07-1.74-12.15-2.22-18.28-.22-2.81-.1-5.64-.47-8.41-.77-5.72-.42-11.44-.36-17.16.05-4.82.51-9.64.84-14.46.37-5.36,1.03-10.67,1.82-15.96,1.22-8.16,2.87-16.26,5.05-24.23,1.47-5.35,2.95-10.68,4.78-15.92,2.53-7.24,5.4-14.33,8.54-21.32,5.82-13,12.96-25.23,21.11-36.88,4.95-7.07,10.34-13.78,16.03-20.28,5.71-6.51,11.9-12.54,18.17-18.48,5.62-5.32,11.68-10.17,17.94-14.73,10.49-7.63,21.45-14.55,33.09-20.28,17.53-8.62,35.84-15.05,55.06-18.77,7.25-1.4,14.54-2.38,21.87-3.23,11.52-1.32,23.07-1.32,34.57-.78,18.04.85,35.76,4.07,53.04,9.49,10.01,3.14,19.74,6.98,29.26,11.41,13.88,6.46,26.79,14.48,39.04,23.6,4.87,3.62,9.49,7.56,14.06,11.57,6.31,5.54,12.15,11.55,17.91,17.61,4.6,4.84,8.77,10.09,12.85,15.4,4.02,5.23,8.25,10.3,11.99,15.74.45.65.85,1.33,1.27,2-.02.78-.03,1.54,1.05,1.6,0,0,0,0,0,0-.1.93.28,1.73.76,2.48,1.99,3.12,3.74,6.37,5.34,9.71,1.91,3.96,3.85,7.92,5.75,11.89,3.66,7.67,6.76,15.56,9.4,23.62,2.78,8.5,5.18,17.11,6.98,25.89.21,1.04-.06,2.34.94,3.19,0,.35.01.7.02,1.05-.05.6-.15,1.21.48,1.6.19,1.23.38,2.46.58,3.69.06,1.82.24,3.62,1.01,5.31l.05,2.1c0,.75-.3,1.56.48,2.13.03,1.23.06,2.46.08,3.68-.09.6-.18,1.2.44,1.61.01.53.02,1.05.04,1.58.14,1.59-.52,3.28.53,4.77-.36,2.33.7,4.57.46,6.89-.65.54-.63,1.32-.41,1.95.58,1.63.37,3.3.43,4.96.24,6.5-.3,12.98-.49,19.47-.03.92-.34,1.95.47,2.76,0,.69,0,1.38,0,2.06-1.81.65-.71,2.14-.95,3.24-.02.7-.03,1.4-.05,2.1-.79.57-.5,1.38-.47,2.13-.02.7-.04,1.4-.05,2.1-.71,2.06-1.1,4.18-1.02,6.36,0,.35-.02.7-.03,1.05-.82.56-.5,1.38-.5,2.13-.01.35-.02.7-.03,1.05-.65.38-.55,1-.49,1.6-.01.35-.02.7-.04,1.05-.66.38-.56,1-.48,1.6-.02.52-.03,1.05-.05,1.57-.66.38-.55,1-.5,1.6-.01.35-.02.7-.03,1.05-.46.23-.55.62-.48,1.08-.01.35-.03.7-.04,1.05-.46.22-.56.61-.48,1.07.16,2.04-1.08,3.81-1.13,5.8-.45.23-.54.62-.48,1.08-.54,1.34-.67,2.75-.64,4.18-1.48.87-.95,2.52-1.47,3.77-1.53,4.75-2.92,9.56-4.61,14.25-3.22,8.95-7.23,17.57-11.39,26.12-.5,1.02-1.44,1.81-1.53,3.03-1.24,1.88-1.23,1.9.33,3.1,1.46,1.12,2.86,2.32,4.33,3.42,3.02,2.25,5.76,4.88,9.07,6.73.42,1.56,1.99,1.87,3.03,2.73,6.77,5.59,14.01,10.56,21.16,15.64,3.43,2.44,7.13,4.51,10.69,6.77,1.54.98,3.22,1.32,5,1.32.74,0,1.53-.08,1.77-.86.33-1.06,1.07-1.12,1.98-1.34,1.39-.33,2.77-.56,4.17-.43,1.09.1,1.86-.32,2.53-1.09ZM345.27,409.92c.56.14.92-.2,1.28-.54,2.06-.69,3.44-2.34,5.14-3.56.77-.55,1.09-1.35,1.01-2.3,2.09-2.15,4.57-3.82,6.93-5.65,6.37-4.93,11.57-11.06,16.87-17.08,2.85-3.24,5.02-6.99,7.86-10.23,1.66-1.9,1.6-2.23-.71-3.44-.78-.41-1.59-.77-2.37-1.18-5.37-2.85-10.79-5.62-16.08-8.6-9.97-5.62-19.89-11.34-29.62-17.37-10.31-6.38-20.62-12.77-30.26-20.18-6.48-4.98-13.14-9.74-19.56-14.8-10.08-7.95-20.12-15.95-29.88-24.31-6.48-5.55-12.87-11.2-19.26-16.86-4.15-3.68-8.08-7.6-12.11-11.42-1.02-.97-2.02-1.97-3.09-2.89-2.73-2.37-5.23-4.96-7.64-7.66-2.51-2.82-5.17-5.51-7.77-8.26-.13-.91-.65-1.5-1.53-1.74-.96-.98-1.42-2.41-2.74-3.07-.36-1.85-2.11-2.68-3.05-4.14-1.35-2.11-2.48-2.11-4.57-.63-1.7,1.2-3.36,2.48-5.18,3.48-1.05.58-1.4,1.33-1.51,2.37-.35.04-.77-.04-1.02.14-3.74,2.66-7.39,5.41-10.44,8.88-.69.78-1.31,1.65-2.32,2.07-.13-1.63.93-2.69,2.29-4.02-1.57.02-2.44.62-3.27,1.16-3.76,2.42-7.45,4.94-11.21,7.34-6.94,4.42-13.94,8.74-20.87,13.18-2.26,1.45-4.81,2.53-6.65,4.59-.57.21-1.23.3-1.71.63-2.74,1.9-5.68,3.47-8.55,5.17-4.82,2.85-9.54,5.86-14.41,8.61-4.43,2.5-9.03,4.71-13.52,7.1-2.31,1.23-4.56,2.59-6.83,3.9-1.55.45-3,1.08-4.23,2.16-2.87.99-5.57,2.31-7.98,4.18-.33.1-.69.16-1,.31-5.27,2.65-10.57,5.22-15.75,8.05-2.62,1.43-5.25,2.87-8.07,3.89-.84-.02-1.52.39-2.16.87-.4.3-.57.85-.2,1.14,1.41,1.14,1.96,3.15,3.83,3.81,1.55,5.23,3.35,10.38,5.42,15.42,2.91,7.09,6.05,14.06,9.78,20.78,2.57,4.62,5.22,9.17,8.18,13.54,0,.67.43,1.12.78,1.63,3.32,4.86,6.72,9.66,10.54,14.13,2.5,2.93,4.78,6.06,7.71,8.62,1.47,1.72,2.89,3.49,4.44,5.14,3.17,3.38,6.94,6.14,10.08,9.55.37.4.83.63,1.38.67,1.07,1.93,3.08,2.84,4.63,4.25,2.46,2.24,5.21,4.13,8.09,5.82.27.34.47.77.81,1,4.07,2.78,8.05,5.71,12.45,7.99,4.2,3.07,8.91,5.24,13.54,7.53.39.19.82.3,1.25.39,4.5.91,8.74.93,12.89-1.77,2.1-1.37,3.62-2.53,4.27-5.1.59-2.33,1.35-4.38-.79-6.23-.06-.06-.11-.14-.16-.21-.28-.49-.37-1.02-.12-1.52.29-.57.87-.53,1.39-.44.56.1,1.14.66,1.63-.12,1.1.17,1.85.96,2.72,1.55-1.09.85-1.35,1.93-.45,2.96,1.43,1.65,2.83,3.43,4.59,4.67,1.37.97,2.3,2.15,3.12,3.48,1.1,1.8.81,3.05-.81,4.39-.67.55-1.59.83-2.03,1.65-1.37,2.54-3.76,2.91-6.29,3.08-.8.05-2.05-.49-2.25.69-.18,1.1,1.07,1.17,1.87,1.45,5.63,2,11.34,3.76,17.14,5.19,4.5,1.11,9.03,2.15,13.64,2.7,4.03.79,8.06,1.55,12.18,1.57,1.34.46,2.71.58,4.12.55,1.82-.03,3.65-.02,5.45.38,2.12.09,4.24.24,6.36-.07,1.21.32,2.43.19,3.65.14.55.09,1.09.11,1.63-.09,2.81.14,5.61-.18,8.41-.28,6.7-.23,13.28-1.19,19.86-2.26,8.42-1.38,16.71-3.36,24.81-6.01,10.29-3.36,20.27-7.5,29.85-12.61,8.72-4.65,17.02-9.91,24.99-15.74.57-.42,1.22-.75,1.17-1.6h-.02ZM70.96,256.36c2.04-1.28,4.17-2.47,5.29-4.77h0c1.32-.19,1.95-1.24,2.66-2.18,3.49-3.08,7.01-6.13,10.48-9.24,5.31-4.74,10.74-9.36,15.84-14.32,7.14-6.94,14.29-13.85,20.98-21.25,5.54-6.13,10.94-12.38,16.43-18.55,5.25-5.91,10.13-12.13,15.25-18.16,6.49-7.63,12.75-15.46,19.14-23.18,6.06-7.31,12.03-14.68,17.89-22.15,1.68-2.14,3.44-4.23,5.12-6.38.56-.72,1.05-.89,1.69-.17.03.55.31.97.65,1.4,2.85,3.67,5.69,7.35,8.52,11.04,3.69,4.8,7.36,9.6,11.05,14.39,2.3,2.98,4.71,5.89,6.94,8.93,2.85,3.89,5.92,7.6,8.82,11.46,3,3.99,6.28,7.79,9.29,11.77,4.45,5.87,9.06,11.62,13.6,17.42,5.84,7.46,11.86,14.77,17.77,22.18,3.39,4.25,6.66,8.6,10.2,12.72,2.41,2.8,4.45,5.87,6.86,8.67,2.06,2.39,4.06,4.84,6.13,7.23,2.92,3.38,5.48,7.09,8.5,10.37,3.69,4.01,6.75,8.54,10.58,12.44,1.57,1.6,3.22,3.23,4.51,5.13,1.63,2.07,3.27,4.12,5.15,5.98,4.96,4.88,9.83,9.87,14.8,14.75,2.82,2.77,5.68,5.51,8.57,8.21,5.27,4.92,10.63,9.74,15.85,14.7,2.49,2.36,5.3,4.36,7.56,6.96.17.2.38.39.62.49.79.33.85-.28.96-.8,1.77,1.03,2.82,2.82,4.31,4.16,2.33,2.09,4.62,4.28,6.65,6.65,2.28,2.66,5.13,4.7,7.45,7.3.31.34.75.43,1.2.43.47.4.91.83,1.4,1.18,1.28.91,2.02.81,2.74-.59,1.07-2.11,1.98-4.3,2.97-6.44.27-.59-.17-1-.29-1.49.89-.02,1.15-.7,1.42-1.36,3.22-7.91,5.95-15.98,8.13-24.23,1.91-7.22,3.29-14.53,4.4-21.92.93-6.17,1.56-12.38,1.85-18.58.33-7.09.45-14.2.11-21.31-.08-1.64-.02-3.37-.28-4.9-.46-2.75-.29-5.54-.91-8.28-.32-1.4-.66-2.9-.68-4.33-.04-2.74-.63-5.37-1.11-8.02-1.23-6.82-2.91-13.53-4.86-20.2-2.35-8.02-5.42-15.76-8.82-23.35-1.49-3.32-3.11-6.63-4.87-9.86-5.77-10.63-12.02-20.9-19.56-30.37-5.87-7.38-11.94-14.55-19.15-20.7-1.12-.95-2.5-1.66-3.28-2.99-.49-1.74-1.99-2.57-3.22-3.67-1.52-1.36-3.58-2.27-3.94-4.65-.11-.73-.83-1.09-1.39-1.52-3.28-2.51-6.41-5.19-9.32-8.13-1.53-1.55-3.39-2.92-5.49-3.53-1.99-.58-3.7-1.53-5.44-2.56-2.76-1.64-4.86-4.33-8.23-5-.95-.19-1.57-1.14-2.18-1.87-1.28-1.54-2.99-2.6-4.74-3.25-3.86-1.43-7.38-3.65-11.36-4.76-3.52-.98-6.52-3.56-10.4-3.45-.32,0-.7-.2-.96-.41-1.78-1.48-4.25-.9-6.14-2.06-.26-.16-.74-.14-1.03-.01-2.05.91-3.83-.13-5.5-.94-1.3-.63-2.45-.88-3.76-.44-1.43.48-2.74.28-4.07-.38-2.2-1.09-4.68-1.48-6.86-2.63-.29-.15-.7-.29-1-.21-2.35.64-4.74.12-7.09.34-2.06.2-3.8-.39-5.29-1.78-.52-.49-1.06-1.06-1.84-.75-2.01.79-4.23,1.24-5.67,3.08-4.24,0-8.47,0-12.71-.01-4.3-.23-8.58.13-12.86.51-2.26.2-4.59.15-6.77.7-3.66.92-7.42,1.13-11.08,1.96-.7-.01-1.39.08-2.08.2-3.82.61-7.44,2.01-11.19,2.82-3.03.65-5.87,1.77-8.8,2.68-.49.15-1.11.19-1.15.88-.04.65.52.9.99,1.09,1.33.54,2,1.63,2.6,2.84.5,1.02,1.07,2.02,1.75,2.94.68.91.68,1.73.58,2.88-.21,2.61-2.18,3.94-3.68,5.39-1.7,1.64-3.39,3.3-5.13,4.87-1.66,1.5-1.62,2.68-.85,4.32-.72.8-1.63,1.24-2.68,1.42-.28-.33-.5-.74-.85-.98-1.18-.84-1.44-1.58-.57-3.01.59-.96,1.11-2.17,1.33-3.35.34-1.82-.53-3.23-1.86-4.4-1.34-1.18-2.38-2.5-2.83-4.31-.78-3.16-3.64-4.65-6.59-3.42-2.01.84-3.94,1.89-5.9,2.87-3.76,1.89-7.51,3.78-11.25,5.7-.28.14-.44.53-.65.8-2.08.67-3.83,1.99-5.63,3.14-2.61,1.66-5.4,3.08-7.61,5.33-1.87.94-3.53,2.22-5.24,3.4-2.57,1.77-4.7,4.14-7.47,5.65-1.52-1.29-2.63-.13-3.65.74-1.78,1.52-3.66,2.71-6.05,2.95-.81.08-1.6.4-2.12.99-2.55,2.9-5.97,4.93-8.21,8.15-.55.79-1.17,1.53-1.76,2.29-2.09,2.71-4.26,5.36-6.23,8.15-.76,1.08-1.43,2.2-2.39,3.12-1.78,1.7-3.45,3.49-4.75,5.63-1.42,2.31-3.08,4.48-4.62,6.72-.59.87-1.61,1.51-1.79,2.59-.47,2.88-2.56,4.69-4.2,6.84-1.76,2.31-4.07,4.44-3.52,7.87.17,1.04-.64,1.94-1.37,2.44-1.42.97-1.93,2.46-2.77,3.78-1.3,2.05-1.35,4.6-2.61,6.58-2.38,3.74-4.27,7.67-5.81,11.81-.65,1.74-.78,3.38-.35,5.14.48,1.95-.25,3.66-1.94,4.71-.6.37-1.24.67-1.87.99-.55.28-.86.81-.65,1.3.54,1.27.07,2.14-.77,3.04-.53.56-.38,1.32-.1,2,.46,1.11.41,2.09-.77,2.71-1.07.55-1.08,1.51-1.06,2.5.05,2.38-.06,4.7-.88,7.02-.44,1.26-.77,2.69-.72,4.13.12,3.11-.16,6.15-1.73,8.93-.27.48-.43.99-.21,1.52.93,2.22.17,4.28-1,6.01-1.84,2.73.69,5.57-.55,8.23-.24.52.18,1.01.38,1.49.03.08.07.17.12.24,1.16,1.65,1.18,3.61.79,5.36-.51,2.31-.1,4.3.81,6.35.96,2.17.74,4.23-.68,6.19-.71.98-1.45,1.96-1.8,3.19-.69,2.42-.51,2.85,1.86,3.46,1.61.41,2.21,1.28,1.84,2.88-.16.69-.42,1.35-.31,2.06.15.96.73,1.6,1.67,1.83.81.2,1.39-.08,1.49-1,2.05-.62,3.55-1.95,4.75-3.66,1.7-.51,2.64-1.93,3.73-3.16.54-.07.97-.34,1.38-.69,3.94-3.43,7.94-6.8,11.81-10.3,1.13-1.02,2.57-1.8,3.22-3.31h0Z"/><path d="M459.63,244.67c.24-2.32-.82-4.56-.46-6.89.9-1.36.48-2.82.3-4.25-.05-.37-.5-.42-.83-.51-.01-.53-.02-1.05-.04-1.58.8-.8.65-1.33-.44-1.61-.03-1.23-.06-2.46-.08-3.68.68-.9.93-1.7-.48-2.13-.02-.7-.03-1.4-.05-2.1.71-1.88.28-4.15-1.01-5.31-.19-1.23-.39-2.46-.58-3.69.8-.82.62-1.35-.48-1.6,0-.35-.01-.7-.02-1.05.66-.63.74-1.51.95-2.31.44-1.7.4-1.72,2.16-1.4.76,1.15.75,2.55.94,3.8.57,3.71,1.64,7.32,1.9,11.12.16,2.28.84,4.62,1.2,6.95.09.61.23,1.22.2,1.83-.16,3.35.41,6.67.72,9.97.25,2.68-.11,5.46.83,8.09.2.55.08,1.23.05,1.84-.22,4.47.21,8.94-.32,13.44-.2,1.7-.08,3.6-.2,5.4-.41,6.16-.64,12.32-1.48,18.46-1.01,7.38-2.19,14.71-3.84,21.97-2,8.83-4.75,17.45-8.04,25.89-1.56,4.01-3.5,7.87-5.28,11.79-.76,1.69-2.23,2.94-2.89,4.7-.36.96-1.56.54-2.18,1.52-1.47,2.28-2.2,4.66-2.23,7.32-.39.71-.44,1.49-.58,2.27-.46,2.6-2.09,3.62-4.69,3.04.09-1.22,1.03-2.01,1.53-3.03,4.16-8.55,8.16-17.17,11.39-26.12,1.69-4.69,3.08-9.5,4.61-14.25,1.67-.79,1.43-2.34,1.48-3.77-.02-1.43.1-2.83.64-4.18.64-.14,1.25-.3.48-1.08.05-2,1.29-3.77,1.13-5.8.63-.15,1.22-.31.48-1.07.01-.35.03-.7.04-1.05.64-.15,1.24-.31.48-1.08.01-.35.02-.7.03-1.05,1.09-.25,1.26-.78.5-1.6.02-.52.03-1.05.05-1.57,1.08-.26,1.24-.79.48-1.6.01-.35.02-.7.04-1.05,1.08-.25,1.26-.78.49-1.6.01-.35.02-.7.03-1.05,1.39-.42,1.15-1.22.5-2.13,0-.35.02-.7.03-1.05.45-.1.91-.27.92-.79.03-1.15.36-2.24.55-3.36.13-.74.29-1.6-.44-2.21.02-.7.04-1.4.05-2.1,1.37-.44,1.13-1.24.47-2.13.02-.7.03-1.4.05-2.1.7-.11.99-.55.98-1.23-.01-.67-.02-1.34-.03-2.01,0-.69,0-1.38,0-2.06.49-.35.55-.86.56-1.4.03-2.72.29-5.42.43-8.12.31-5.79.09-11.62.11-17.43,0-.93-.11-1.77-1.09-2.19Z"/></svg>

