<?xml version="1.0" encoding="UTF-8"?><svg id="UPLOAD" xmlns="http://www.w3.org/2000/svg" width="512" height="512" viewBox="0 0 512 512"><path d="M334.9,429.61c-5.92,0-9.54,0-13.16,0-80.11,0-160.21.02-240.32,0-35.42-.01-53.12-17.66-53.13-52.96-.03-84.78-.03-169.56,0-254.34.02-34.45,18.01-52.36,52.55-52.37,92.66-.02,185.32-.02,277.97,0,35.67,0,53.19,17.4,53.18,52.64-.02,42.39,0,84.78,0,127.17,0,3.99,0,7.99,0,12.56h-14.54v-12.56c0-42.76.04-85.52-.02-128.27-.03-24.88-11.7-36.59-36.57-36.6-93.77-.04-187.53-.04-281.3.02-24.42.01-36.17,11.63-36.19,35.63-.04,65.98-.01,131.96-.01,197.94,0,3.29,0,6.58,0,11.96,3.31-2.78,5.47-4.27,7.23-6.13,16.5-17.39,32.96-34.82,49.39-52.28,12.7-13.49,14.35-13.36,27.23-.72,16.31,16.01,33.01,31.63,50.42,48.26,8.27-7.79,17.88-16.77,27.41-25.84,28.32-26.96,56.59-53.97,84.92-80.91,10.41-9.9,14.06-9.68,23,1.57,15.1,18.97,30.06,38.04,45.17,57.19-62.33,34.72-70.35,109.6-23.24,158.06Z"/><path d="M400.15,442.08c-46.43-.05-83.86-37.26-83.85-83.34,0-46.75,37.74-84.06,84.62-83.65,45.73.4,82.94,37.83,82.82,83.31-.12,46.37-37.44,83.73-83.59,83.68ZM391.93,380.69c-6.97-6.66-11.42-12.14-17.06-15.8-.69-.45-1.49-.75-2.34-.95-5.8-1.35-10.86,3.83-9.19,9.54.26.89.64,1.67,1.2,2.28,8.9,9.78,18.86,18.59,28.39,27.81,4.91,4.76,9.56,4.57,14.42-.17,9.49-9.26,19.49-18.03,28.38-27.81.46-.51.8-1.14,1.03-1.85,1.94-5.78-3.67-11.28-9.54-9.63-.75.21-1.45.51-2.08.91-5.84,3.81-10.56,9.33-17.54,15.8,0-6.81,0-10.77,0-14.73,0-15.09.53-30.2-.36-45.24-.06-.99-.41-1.97-.95-2.94-2.64-4.71-9.44-4.77-12.3-.19-.7,1.12-1,3.4-1.04,4.7"/><path d="M113.99,234.11c-19.85.14-35.92-15.68-36-35.43-.08-19.57,16.1-35.59,35.9-35.53,19.27.06,35.16,15.71,35.41,34.87.26,19.77-15.58,35.96-35.31,36.09Z"/></svg>