<?xml version="1.0" encoding="UTF-8"?><svg id="LECTEUR_02" xmlns="http://www.w3.org/2000/svg" viewBox="0 0 512 512"><path d="M270.85,256.3c0,53.16-.05,106.32.04,159.47.01,7.82-1.17,14.86-9.03,18.53-8.03,3.75-14.78.92-20.74-4.84-.78-.76-1.67-1.41-2.49-2.12-32.43-27.9-64.94-55.7-97.17-83.83-4.5-3.93-8.89-5.35-14.66-5.29-23.71.24-47.43.15-71.15.11-20.63-.03-30.67-10.07-30.68-30.59-.02-34.62-.02-69.24,0-103.86.01-19.42,10.4-29.95,29.62-29.98,23.72-.04,47.44-.28,71.15.17,7.13.14,12.18-2.24,17.39-6.79,32.45-28.3,65.15-56.3,97.78-84.39.83-.71,1.73-1.33,2.53-2.07,5.37-4.88,11.47-6.27,18.11-3.21,6.66,3.08,9.34,8.83,9.35,15.93.02,15.27-.04,30.53-.05,45.8,0,38.98,0,77.96,0,116.95Z"/><path d="M487.02,263.03c-2.99,62.29-25.13,116.56-67.93,162.18-.75.79-1.49,1.59-2.28,2.35-5.97,5.71-12.52,6.24-17.25,1.39-4.68-4.79-4.21-10.54,1.14-16.68,6.79-7.8,13.92-15.37,20.11-23.63,64.7-86.28,57.02-208.8-17.8-286.45-.76-.79-1.57-1.51-2.3-2.33-5.51-6.24-5.91-11.92-1.19-16.69,4.57-4.62,12.51-4.58,17.24,1.55,13.76,17.85,28.59,35.18,39.9,54.53,22.19,37.96,30.98,79.87,30.35,123.77Z"/><path d="M420.6,248.76c-1.33,54.57-17.42,95.93-50.01,130.7-4.58,4.89-9.51,7.45-15.86,4.04-7.21-3.88-7.33-11.89-.37-19.21,20.2-21.23,33.98-46.07,39.87-74.73,11.05-53.72-2.72-100.86-39.58-141.29-3.95-4.33-6.89-8.55-4.46-14.52,3.16-7.77,12.61-8.81,19.43-1.86,21.22,21.65,36.17,47.15,43.77,76.42,4.01,15.45,5.67,31.51,7.21,40.44Z"/><path d="M353.5,255.84c-.52,29.16-10.29,54.45-29.77,75.88-6.41,7.05-13.2,8.01-18.35,3.04-4.84-4.67-4.15-10.99,1.96-17.87,32.25-36.28,31.97-85.72-.68-122.19-5.47-6.11-5.95-12.77-1.25-17.32,5.23-5.07,11.46-4.33,17.72,2.43,19.89,21.5,29.73,47.03,30.39,76.02Z"/></svg>