<?xml version="1.0" encoding="UTF-8"?><svg id="CUBIC" xmlns="http://www.w3.org/2000/svg" width="512" height="512" viewBox="0 0 512 512" fill="currentColor"><path d="M365.44,376.78c-108.77-40.42-205.64-22.39-296.09,40.39-83.75-76.78-84.06-232.54-1.2-323.53C161.24-8.61,319.4-18.69,420.54,71.18c103.61,92.06,114.11,244.8,23.84,346.65-87.6,98.85-245.81,113.68-344.18,29.09,35.72-18.7,64.08-48.73,110.29-34.02,53.41,17,111.91,2.77,154.94-36.13ZM416.44,308.45v-104.16c-108.91,47.8-212.94,47.89-317.73,2.4-11.71,33.8-11.68,65.67,0,99.35,104.68-45.86,208.6-45.77,317.73,2.41ZM146.73,136.18c73.01,28.82,144.13,28.89,216.95-.48-52.3-56.34-161.96-56.07-216.95.48Z"/></svg>