<?xml version="1.0" encoding="UTF-8"?><svg id="POUBELLES" xmlns="http://www.w3.org/2000/svg" width="512" height="512" viewBox="0 0 512 512" fill="currentColor"><g id="Calque_4"><path d="M266.49,148.37c48.16-.02,96.32.49,144.47-.25,21.48-.33,32.01,6.41,30.21,29.83-7.7,100.06-14.73,200.17-21.56,300.29-1.1,16.21-8.91,23.02-24.44,23.01-85.99-.04-171.99-.05-257.98,0-16.85,0-24.43-7.93-25.62-25-7.01-100.1-14.59-200.17-22.14-300.23-1.52-20.16,8.08-27.89,27.45-27.75,49.87.37,99.75.12,149.63.1Z"/><path d="M188.14,79.57c.64-11.35.9-19.73,1.62-28.07,2.1-24.21,16.99-39.12,41.54-40.26,18.84-.87,37.74-.35,56.62-.31,39.21.09,52.69,13.03,53.92,51.52.14,4.25.55,8.5,1.13,17.08,24.42,0,48.92,0,73.43,0,8.58,0,17.77-.67,24.95,2.52,1.97.88,3.86,1.9,5.69,3.04,11.61,7.22,11.07,24.62-1.25,30.53-1.49.71-2.99,1.16-4.52,1.23-39.38,1.86-78.9.9-118.37.91-75.51.01-151.01-.05-226.52.04-14.21.02-29.99.78-29.32-19.1.64-18.9,16.36-19.07,30.48-19.12,29.76-.1,59.52-.03,90.58-.03ZM229.08,77.93h73.31v-27.31h-73.31v27.31Z"/></g></svg>