<?xml version="1.0" encoding="UTF-8"?><svg id="POUBELLES" xmlns="http://www.w3.org/2000/svg" width="512" height="512" viewBox="0 0 512 512"><g id="Calque_4_-_copie"><path d="M247.46,195.84c38.62-.02,77.26.39,115.87-.2,17.23-.27,25.67,5.14,24.23,23.93-6.18,80.25-11.82,160.55-17.29,240.85-.89,13-7.14,18.46-19.6,18.46-68.97-.04-137.95-.04-206.92,0-13.52,0-19.59-6.36-20.55-20.05-5.62-80.29-11.7-160.54-17.76-240.8-1.22-16.17,6.48-22.37,22.02-22.26,40,.29,80.01.1,120.01.08Z"/><path d="M336.74,95.63c6.8-6.07,11.7-10.68,16.84-15,14.92-12.54,31.82-12.55,46.39.73,11.18,10.19,21.61,21.2,32.29,31.93,22.18,22.29,22.49,37.27,1.36,59.8-2.34,2.49-4.51,5.13-9.05,10.33,13.85,13.85,27.75,27.74,41.64,41.65,4.86,4.87,10.46,9.7,12.72,15.57.62,1.62,1.11,3.27,1.5,4.95,2.49,10.68-7.69,20.25-18.03,16.61-1.25-.44-2.36-1.04-3.26-1.86-23.39-21.28-45.26-44.23-67.65-66.61-42.83-42.82-85.62-85.67-128.49-128.44-8.07-8.05-17.45-16.57-5.8-27.46,11.08-10.36,20.09-1.54,28.13,6.44,16.94,16.82,33.77,33.74,51.39,51.35ZM360.89,117.92c14.7,14.7,28.03,28.03,41.58,41.58,5.52-5.52,10.11-10.11,15.49-15.49-14.11-14.11-27.41-27.41-41.58-41.58-5.34,5.34-9.94,9.94-15.49,15.49Z"/></g></svg>