<?xml version="1.0" encoding="UTF-8"?><svg id="LECTEUR" xmlns="http://www.w3.org/2000/svg" viewBox="0 0 512 512"><g id="BOUCLE"><path d="M391.57,359.54H26.67l41.99-166.74c5.97-23.72,27.31-40.35,51.77-40.35h364.9l-41.99,166.74c-5.97,23.72-27.31,40.35-51.77,40.35Z" fill="none" stroke="#000" stroke-miterlimit="10" stroke-width="29"/><path d="M380.39,263.32c-.92,4-1.48,8.13-2.81,11.99-7.68,22.41-26.51,36.57-50.38,37.37-14.55.49-29.13.09-44.21.09,6.27-5.81,8.6-12.78,7.61-21.24.95,0,1.79,0,2.64,0,10.6,0,21.2.02,31.81,0,17.6-.05,31.18-11.25,33.71-28.66,2.9-19.95-6.77-34.13-22.27-39.46-3.23-1.11-6.79-1.73-10.21-1.76-20.15-.16-40.3-.09-60.45-.08-.32,0-.64.05-1.25.1.32.92.57,1.73.88,2.52,1.99,5.03,4.04,10.04,5.93,15.12.33.89-.03,2.04-.08,3.08-.95-.24-2.09-.23-2.81-.77-12.48-9.51-24.92-19.08-37.35-28.67-2.02-1.56-2.03-2.43-.06-3.94,12.5-9.63,25-19.24,37.55-28.81.66-.5,1.72-.47,2.6-.68.1.95.55,2.03.26,2.83-1.91,5.15-4,10.23-6.01,15.34-.29.73-.52,1.49-.91,2.63,1.23,0,2.16,0,3.1,0,18.94,0,37.87-.03,56.81-.01,10.65,0,20.7,2.34,29.79,8.07,14.54,9.16,23.09,22.27,25.63,39.28.13.86.33,1.71.5,2.57v13.11Z"/><path d="M229.13,199.31c-6.41,5.86-8.58,12.84-7.67,21.22-.95,0-1.8,0-2.65,0-10.6,0-21.21-.03-31.81,0-17.59.06-31.16,11.33-33.66,28.72-2.86,19.91,6.74,33.98,22.1,39.34,3.3,1.15,6.95,1.79,10.44,1.82,20.07.17,40.15.09,60.22.09.4,0,.79-.06,1.51-.12-1.42-3.59-2.77-7.03-4.13-10.46-.98-2.48-2.03-4.93-2.88-7.46-.27-.8.03-1.78.07-2.68.95.19,2.11.08,2.8.6,8.26,6.24,16.46,12.58,24.67,18.89,4.17,3.2,8.35,6.4,12.51,9.62,2.42,1.88,2.43,2.58.07,4.39-12.31,9.48-24.62,18.96-36.97,28.37-.77.58-1.98.58-2.98.85-.03-1.04-.38-2.19-.04-3.09,2-5.37,4.17-10.69,6.26-16.03.17-.43.21-.91.37-1.61-1.13,0-2.09,0-3.04,0-18.86,0-37.72.02-56.58.01-10.48,0-20.41-2.2-29.39-7.76-15.43-9.54-24.38-23.34-26.3-41.42-1.55-14.54.97-28.26,9.74-40.32,10.51-14.46,24.8-22.33,42.65-22.88,14.71-.46,29.45-.09,44.7-.09Z"/></g></svg>