<?xml version="1.0" encoding="UTF-8"?><svg id="LECTEUR_02" xmlns="http://www.w3.org/2000/svg" viewBox="0 0 512 512"><path d="M495.37,270.08c-1.76,7.7-2.85,15.64-5.4,23.07-14.79,43.12-51.02,70.37-96.96,71.91-28,.94-56.05.17-85.07.17,12.07-11.18,16.55-24.6,14.64-40.88,1.82,0,3.45,0,5.07,0,20.4,0,40.8.04,61.2-.01,33.87-.09,59.99-21.66,64.87-55.16,5.58-38.4-13.02-65.67-42.86-75.93-6.22-2.14-13.07-3.33-19.64-3.38-38.78-.31-77.56-.16-116.33-.16-.61,0-1.22.09-2.41.19.61,1.77,1.09,3.34,1.69,4.85,3.82,9.69,7.78,19.33,11.41,29.09.64,1.72-.06,3.93-.15,5.92-1.82-.47-4.02-.44-5.4-1.49-24.02-18.3-47.96-36.72-71.88-55.16-3.89-3-3.9-4.67-.12-7.59,24.05-18.52,48.11-37.03,72.26-55.44,1.27-.96,3.32-.9,5-1.31.2,1.83,1.06,3.9.49,5.44-3.68,9.91-7.69,19.69-11.57,29.53-.56,1.41-1,2.87-1.75,5.06,2.37,0,4.16,0,5.96,0,36.44-.01,72.88-.05,109.33-.02,20.49.02,39.83,4.51,57.32,15.53,27.99,17.63,44.42,42.85,49.33,75.58.25,1.66.64,3.3.97,4.95v25.24Z"/><path d="M204.29,146.91c-12.34,11.28-16.52,24.7-14.77,40.84-1.82,0-3.46,0-5.11,0-20.4,0-40.81-.06-61.21.01-33.85.12-59.96,21.8-64.78,55.27-5.51,38.32,12.97,65.39,42.54,75.7,6.35,2.21,13.37,3.44,20.09,3.49,38.63.33,77.25.17,115.88.16.76,0,1.52-.11,2.91-.22-2.72-6.91-5.34-13.52-7.94-20.14-1.88-4.77-3.91-9.5-5.54-14.35-.51-1.53.06-3.43.14-5.16,1.82.36,4.06.15,5.39,1.16,15.9,12.01,31.67,24.2,47.47,36.35,8.02,6.17,16.07,12.31,24.07,18.51,4.67,3.61,4.68,4.96.14,8.45-23.69,18.23-47.37,36.48-71.15,54.6-1.47,1.12-3.81,1.12-5.74,1.63-.06-1.99-.73-4.21-.08-5.95,3.86-10.34,8.02-20.57,12.05-30.84.32-.82.41-1.74.71-3.11-2.17,0-4.01,0-5.86,0-36.29.01-72.58.03-108.87.03-20.16,0-39.27-4.23-56.57-14.93-29.7-18.37-46.91-44.92-50.62-79.7-2.98-27.97,1.86-54.38,18.74-77.59,20.23-27.82,47.73-42.97,82.07-44.04,28.31-.88,56.68-.18,86.02-.18Z"/></svg>