<?xml version="1.0" encoding="UTF-8"?><svg id="CUBIC" xmlns="http://www.w3.org/2000/svg" width="512" height="512" viewBox="0 0 512 512" fill="currentColor"><path d="M9.41,442.1v-95.57c17.15-1.33,34.09-2.45,50.99-4,53.33-4.9,98.08-24.64,129.37-70.84,10.04-14.83,9.28-24.88-.62-39.01-25.12-35.86-60.07-53.78-102-59.66-24.76-3.47-49.78-5-76.95-7.63v-94.81c92.08-.46,178.63,12.43,246.24,89.65,64.41-76.79,151.87-89.25,246.1-90.34v95.12c-26.03,2.71-52.46,4.64-78.63,8.37-42.05,6-76.52,24.86-101.45,60.63-9.5,13.63-8.52,23.42.3,36.92,29.99,45.87,73.79,66.01,126.21,71.28,17.11,1.72,34.32,2.43,53.63,3.75v95.72c-94.14.78-180.11-16.7-246-96.94-63.69,78.75-149.98,97.51-247.19,97.35Z"/></svg>