<?xml version="1.0" encoding="UTF-8"?><svg id="RESEAUX_COLOR" xmlns="http://www.w3.org/2000/svg" viewBox="0 0 512 512"><path d="M68,126.42c-5.68-15.58,4.41-34.58,25.82-48.7,1.4-.92,2.68-2.02,4.02-3.04,2.8-1.99,5.6-3.98,8.39-5.96,17.61-12.37,36.25-23.01,55.44-32.72,36.29-14.3,73.96-20.2,112.88-18.63,4.71.75,9.42,1.51,14.13,2.26,14.12,3.02,28.23,6.04,42.35,9.06,16.75,7.9,33.5,15.8,50.25,23.71,10.71,7.76,21.42,15.53,32.13,23.29,8.67,8.32,17.34,16.63,26.01,24.95,6.39,8.75,12.77,17.49,19.16,26.24,2.82,5.32,5.64,10.64,9.37,17.66-7.4.63-13.82,1.17-20.24,1.72-20.03-.09-40.06-.18-60.09-.26-17.63.09-35.26.18-52.89.26-20.02-.05-40.04-.1-60.06-.14-56.5-3.22-98.31,17.94-117.2,59.32-8.3,9.95-9.21,22.6-12.61,34.34-3.13,4.83-5.51,2.13-7.87-.78-21.87-38.21-44.49-75.96-68.99-112.56ZM441.33,130.55c-46.34-57.04-100.6-90.88-171.81-95.44-72.02-4.61-131.1,21.32-180.56,72.12-4.53,4.65-7.72,9.11-3.29,16.21,17.05,27.34,33.64,54.96,50.78,83.11,32.33-56.03,66.92-76,130.12-76,56.93,0,113.86,0,174.76,0Z" fill="#090906"/><path d="M445.56,407.52c-2.05,2.79-4.11,5.57-6.16,8.36-17.37,15.09-34.75,30.17-52.12,45.26-1.67,1.11-3.35,2.21-5.02,3.32-17.08,7.85-34.16,15.7-51.23,23.55-18.79,3.76-37.59,7.51-56.38,11.27h-29.1c5.12-10.62,9.7-20.13,14.28-29.63,9.44-11.73,16.88-24.63,22.68-38.5,3.78-3.78,7.43-7.64,7.71-13.43,15.02-20.46,26.19-43.23,38.9-65.06.93-1.77,1.86-3.55,2.79-5.32,6.45-10.55,13.17-20.95,19.3-31.68,20.8-36.4,20.98-73.06,1.09-109.98-8.3-15.41-20.99-27.33-33.66-41.5h159.3c2.64,6.31,5.28,12.62,7.92,18.94,3.37,15.16,6.75,30.31,10.12,45.47.43,3.65.87,7.29,1.3,10.94,1.31,37.1-4.74,73.13-15.94,108.4-10.98,20.44-21.87,40.93-35.8,59.61ZM354.49,179.44c35.4,51.42,36.66,100.7,6.36,151.46-29.25,49.01-57.58,98.56-87.09,149.2,5.12,0,8.18.22,11.21-.06,3.72-.34,7.41-1.02,11.09-1.66,59.49-10.39,106.64-41.15,141.84-89.23,43.76-59.78,51.98-126.25,32.44-196.88-1.84-6.65-2.64-13.09-12.4-12.97-33.67.4-67.34.15-103.46.15Z" fill="#090906"/><path d="M161.7,480.74c-11.01-5.33-22.01-10.67-33.02-16-7.81-5.82-15.62-11.64-23.43-17.46-10.91-14.66-32.29-19.04-38.11-38.69-6.03-8.12-12.07-16.25-18.1-24.37-5.37-10.69-10.74-21.37-16.11-32.06-6.6-18.32-12.93-36.72-15.19-56.22.15-.5.54-1.07.42-1.49-.28-.96-.8-1.84-1.23-2.75-.45-1.22-.9-2.44-1.35-3.66-.35-16.21-.7-32.42-1.05-48.63,3.71-18.77,7.42-37.54,11.13-56.31.89-.97,1.07-2.07.56-3.28,2.47-2.07,3.75-4.61,3.07-7.91.19-1.27.38-2.54.57-3.81,2.76-1.78,3.73-4.39,3.52-7.55,5.92-7.35,8.99-16.09,12.07-24.82,3.19-1.59,3.47-4.65,3.88-7.65,1.84-.32,3.68-.63,5.52-.95,19.18,38.86,41.83,75.75,63.9,112.97,15.25,26.73,29.18,54.33,46.1,79.97,20.11,30.47,48.33,49.16,86.77,47.97,2.77,2.48,5.54,2.47,8.31,0,4.91-.43,9.82-.87,14.73-1.3,9.7-2.2,19.4-4.4,30.3-6.87-9.52,17.41-18.1,33.09-26.67,48.76-3,1.37-3.64,4.06-3.88,6.97-11.95,15.21-19.96,32.77-29.53,49.39-9.09,9.99-11.65,24.45-22.7,33.11-20.16-5.78-40.32-11.56-60.49-17.34ZM119.17,431.6c-.78,5.99,3.19,7.61,7.89,8.56,22.16,17.88,48.96,25.8,75.3,34.46,9.29,3.05,15.71-.63,20.88-10.13,14.37-26.44,30.16-52.1,45-77.4-54.39-.16-98.88-18.73-126.93-68.83-25.33-45.25-51.45-90.06-77.22-135.07,0-9.16-7.3-14.27-10.69-23.01-40.69,81.06-23.01,191.57,39.83,252.23,7.78,7.51,12.96,19.79,26.66,19.83l-.73-.65Z" fill="#090906"/><path d="M354.49,179.44c36.12,0,69.79.25,103.46-.15,9.75-.12,10.56,6.32,12.4,12.97,19.54,70.63,11.33,137.1-32.44,196.88-35.2,48.09-82.35,78.84-141.84,89.23-3.68.64-7.37,1.33-11.09,1.66-3.02.27-6.09.06-11.21.06,29.5-50.63,57.84-100.19,87.09-149.2,30.3-50.76,29.04-100.04-6.36-151.46Z" fill="#fde000"/><path d="M64.1,183.2c25.77,45,51.88,89.82,77.22,135.07,28.04,50.09,72.54,68.67,126.93,68.83-14.84,25.3-30.63,50.96-45,77.4-5.17,9.51-11.6,13.19-20.88,10.13-26.35-8.66-53.14-16.58-75.3-34.46-.74-4.59-3.13-7.67-7.9-8.56,0,0,.73.65.72.65-1.28-2.09-2.25-4.46-3.88-6.22-50.2-54.44-75.43-117.54-68.39-192.42,1.72-18.33,6.72-34.99,16.48-50.41Z" fill="#63d4fd"/><path d="M274.67,352.89c-45.23,5.12-80.47-10.57-103.66-50.38-11.42-19.61-11.85-41.29-10.04-63.16,1.58-6.05,3.17-12.1,4.75-18.15,24.26-41.95,58.96-64.21,108.96-57.63,44.6,13.41,72.32,41.41,76.67,89.18,2.43,26.65-7.44,49.34-23.96,69.63-7.57,6.26-15.15,12.51-22.72,18.77-1.5,1.05-3,2.1-4.49,3.14l.12-.13c-8.54,2.91-17.08,5.81-25.62,8.72ZM334.99,258.67c.12-43.85-35.45-79.81-79.01-79.89-43.97-.07-79.65,35.27-79.79,79.03-.14,44.06,35.06,79.68,78.93,79.88,43.98.2,79.74-35.18,79.87-79.02Z" fill="#090906"/><path d="M441.33,130.55c-60.9,0-117.83,0-174.76,0-63.19,0-97.78,19.97-130.12,76-17.14-28.15-33.72-55.77-50.78-83.11-4.43-7.1-1.24-11.56,3.29-16.21,49.45-50.81,108.54-76.74,180.56-72.12,71.21,4.56,125.47,38.4,171.81,95.44Z" fill="#e3647e"/><path d="M334.99,258.67c-.12,43.84-35.89,79.23-79.87,79.02-43.87-.2-79.07-35.83-78.93-79.88.14-43.76,35.82-79.1,79.79-79.03,43.56.07,79.13,36.04,79.01,79.89Z" fill="#63d4fd"/></svg>