<?xml version="1.0" encoding="UTF-8"?><svg id="CUBIC" xmlns="http://www.w3.org/2000/svg" width="512" height="512" viewBox="0 0 512 512"><path d="M260.76,194.1c-21.09-22.89-34.87-38.36-49.22-53.28-19.21-19.97-43.52-25.42-69.84-21.1-22.25,3.65-37.61,17.37-44.4,38.84-7.07,22.36-2.07,42.73,14.98,59.18,32.04,30.92,64.33,61.56,96.73,92.1,6.1,5.75,13.16,10.48,20.7,16.39-23.9,21.8-44.67,40.74-68.06,62.08-40.63-40.44-88.38-81.9-128.54-129.74C-2.01,216.75-4.02,164.97,19.43,115.09c23.33-49.62,63.78-77.78,118.44-83.76,37.67-4.12,73.87,2.37,105.86,23.45,11.63,7.66,19.19,6.21,30.4-.53,62.53-37.6,139.47-30.92,188.08,15.22,54.46,51.69,62.67,135.79,12.5,191.38-67.81,75.13-140.14,146.18-212.7,221.23-21.75-20.65-42.5-40.36-64.4-61.15,49.37-50.68,97.54-100.11,145.68-149.56,17.67-18.15,35.28-36.36,52.92-54.55,24.53-25.3,29.02-50.65,13.16-74.22-15.99-23.78-51.61-33.1-80.59-17.3-17.09,9.32-31.45,24.14-45.78,37.79-7.65,7.28-12.64,17.35-22.25,31.02Z"/></svg>