<?xml version="1.0" encoding="UTF-8"?><svg id="EQ_01" xmlns="http://www.w3.org/2000/svg" viewBox="0 0 512 512"><path d="M452.67,35.22H64.11c-15.81,0-28.63,12.82-28.63,28.63v388.56c0,15.81,12.82,28.63,28.63,28.63h388.56c15.81,0,28.63-12.82,28.63-28.63V63.85c0-15.81-12.82-28.63-28.63-28.63ZM121.23,283.5c.13,1.04-.84,1.94-2.1,1.94h-8.38v147.37c0,5.96-4.83,10.8-10.8,10.8s-10.8-4.83-10.8-10.8v-147.37h-8.38c-1.25,0-2.22-.9-2.1-1.94l3.54-28.98c.01-.12.01-.24,0-.36l-3.54-28.98c-.13-1.04.85-1.94,2.1-1.94h8.38V79.18c0-5.96,4.83-10.8,10.8-10.8s10.8,4.83,10.8,10.8v144.07h8.38c1.25,0,2.23.91,2.1,1.94l-3.7,28.96c-.02.12-.02.25,0,.37l3.7,28.96ZM199.25,252.4c.13,1.04-.84,1.94-2.1,1.94h-8.38v178.47c0,5.96-4.83,10.8-10.8,10.8s-10.8-4.83-10.8-10.8v-178.47h-8.38c-1.25,0-2.22-.9-2.1-1.94l3.54-28.98c.01-.12.01-.24,0-.36l-3.54-28.98c-.13-1.04.85-1.94,2.1-1.94h8.38v-112.98c0-5.96,4.83-10.8,10.8-10.8s10.8,4.83,10.8,10.8v112.98h8.38c1.25,0,2.23.91,2.1,1.94l-3.7,28.96c-.02.12-.02.25,0,.37l3.7,28.96ZM277.28,328.82c.13,1.04-.84,1.94-2.1,1.94h-8.38v102.06c0,5.96-4.83,10.8-10.8,10.8s-10.8-4.83-10.8-10.8v-102.06h-8.38c-1.25,0-2.22-.9-2.1-1.94l3.54-28.98c.01-.12.01-.24,0-.36l-3.54-28.98c-.13-1.04.85-1.94,2.1-1.94h8.38V79.18c0-5.96,4.83-10.8,10.8-10.8s10.8,4.83,10.8,10.8v189.39h8.38c1.25,0,2.23.91,2.1,1.94l-3.7,28.96c-.02.12-.02.25,0,.37l3.7,28.96ZM355.3,206.12c.13,1.04-.84,1.94-2.1,1.94h-8.38v224.76c0,5.96-4.83,10.8-10.8,10.8s-10.8-4.83-10.8-10.8v-224.76h-8.38c-1.25,0-2.22-.9-2.1-1.94l3.54-28.98c.01-.12.01-.24,0-.36l-3.54-28.98c-.13-1.04.85-1.94,2.1-1.94h8.38v-66.69c0-5.96,4.83-10.8,10.8-10.8s10.8,4.83,10.8,10.8v66.69h8.38c1.25,0,2.23.91,2.1,1.94l-3.7,28.96c-.02.12-.02.25,0,.37l3.7,28.96ZM433.32,299.49c.13,1.04-.84,1.94-2.1,1.94h-8.38v131.38c0,5.96-4.83,10.8-10.8,10.8s-10.8-4.83-10.8-10.8v-131.38h-8.38c-1.25,0-2.22-.9-2.1-1.94l3.54-28.98c.01-.12.01-.24,0-.36l-3.54-28.98c-.13-1.04.85-1.94,2.1-1.94h8.38V79.18c0-5.96,4.83-10.8,10.8-10.8s10.8,4.83,10.8,10.8v160.07h8.38c1.25,0,2.23.91,2.1,1.94l-3.7,28.96c-.02.12-.02.25,0,.37l3.7,28.96Z"/></svg>