<?xml version="1.0" encoding="UTF-8"?><svg id="RESEAUX_COLOR" xmlns="http://www.w3.org/2000/svg" viewBox="0 0 512 512"><path d="M425.51,14.83c4.36.16,8.72.45,13.08.47,46.74.19,57.06,10.05,58.94,56.4v225.59c-.22,8.11-.09,16.24-.77,24.31-.68,8.04,4.09,18.14-7.59,22.56-12.18-2.92-7.64-12.91-7.66-20.01-.31-85.75-.14-171.5-.24-257.25-.03-25.76-8.07-35.76-32.2-35.8-129.62-.2-259.23.27-388.85.5-1.98-.32-4.67-2.01-4.31,2.21l.36-.3c-20.1,1.22-25.8,8.26-25.83,33.03-.09,91.92-.04,183.84-.04,275.76,0,35.64-.28,71.29.11,106.92.23,21.4,6.64,28.11,25.76,29.28l-.36-.3c-.36,4.22,2.33,2.53,4.31,2.21,55.78.25,111.57.33,167.35.89,9.48.09,13.15-2.3,12.99-12.61-.59-40.09-.54-80.2-.03-120.29.12-9.77-2.55-13.49-12.6-12.98-13.77.7-27.63-.34-41.4.36-8.28.42-10.74-2-10.44-10.35.66-18.15.2-36.33.2-54.5q0-30.39,29.78-30.39,33.69,0,34.24-34.23c.85-52.6,24.27-88.25,71.31-104.81,35-12.32,71.78-4.76,107.75-6.09,7.56-.28,5.94,6.7,5.96,11.34.14,24.43-.46,48.89.32,73.3.33,10.46-3.6,12.6-12.99,12.18-15.03-.68-30.11-.18-45.17-.18q-32.44,0-31.8,32.98c.02,1.25.14,2.52-.01,3.76-1.06,8.92,2.67,12.05,11.76,11.79,19.42-.55,38.88.32,58.3-.27,9.15-.28,11.81,2.66,11.58,11.73-.61,23.72-.74,47.48.04,71.19.34,10.18-3.09,12.87-12.72,12.54-18.18-.62-36.4.22-54.58-.34-9.76-.3-14.81,1.34-14.62,13.04.66,40.09.4,80.19.14,120.29-.05,8.19,1.4,12.67,11.2,12.53,35.1-.51,70.23.31,105.32-.55,19.72-.49,28.11-9.62,29.04-29.24.68-14.38.31-28.82.07-43.22-.11-7.17-.13-13.94,8.07-17.01,8.76,3.65,7.7,11.58,8.23,18.82-.44,18.7-.88,37.41-1.32,56.11-3.65,10.84-10.88,19-19.56,26.08-16.62,6.58-34.21,2.96-51.28,4.9H86.48c-19.02-1.59-38.93,2.77-56.49-8.46-4.68-7.32-9.35-14.65-14.03-21.97-.5-18.84-1-37.68-1.49-56.51V71.84c2.42-43.09,14.01-56.18,49.72-56.36,7.48-.04,14.95-.42,22.43-.64h338.89ZM255.93,399.3v31.96c0,50.68-.01,50.36,51.92,48.54,10.06-.35,12.58-3.39,12.44-12.95-.5-33.83-.58-67.68-.01-101.51.25-14.77-6.82-34.37,3.21-42.93,8.45-7.21,27.46-2.32,41.8-2.38,34.37-.14,34.37-.05,34.37-34.95q0-29.16-28.82-29.16-54.21,0-50.8-54.85c.89-14.83,7.88-23.35,22.96-24.2,12.06-.68,24.14-1.11,36.21-1.15,29.12-.11,29.12,0,29.11-27.68,0-8.15-.53-16.33.11-24.43.71-9.04-2.6-11.79-11.64-11.43-17.97.72-35.99,0-53.99.31-41.84.73-72.21,25.71-83.55,66.43-5.71,20.52-2.7,41.03-2.95,61.5-.14,11.61-2.16,16.99-15.21,15.77-13.06-1.22-26.33-.19-39.51-.3-5.39-.05-9.92.08-9.7,7.57.54,18.08-4.58,38.85,2.81,53.33,5.07,9.93,27.79,1.84,42.55,3.16,2.49.22,5.06.34,7.52-.02,9.38-1.38,11.56,2.99,11.36,11.69-.53,22.55-.18,45.11-.17,67.67Z" fill="#090906"/><path d="M489.31,391.26c-8.21,3.07-8.19,9.84-8.07,17.01.23,14.41.6,28.85-.07,43.22-.93,19.62-9.32,28.75-29.04,29.24-35.09.86-70.22.04-105.32.55-9.8.14-11.25-4.34-11.2-12.53.26-40.1.52-80.2-.14-120.29-.19-11.7,4.85-13.34,14.62-13.04,18.18.56,36.4-.29,54.58.34,9.63.33,13.06-2.36,12.72-12.54-.78-23.71-.66-47.47-.04-71.19.23-9.07-2.43-12.01-11.58-11.73-19.42.59-38.88-.28-58.3.27-9.08.26-12.82-2.87-11.76-11.79.15-1.24.04-2.5.01-3.76q-.65-32.98,31.8-32.98c15.06,0,30.14-.5,45.17.18,9.38.42,13.32-1.72,12.99-12.18-.78-24.41-.18-48.86-.32-73.3-.03-4.64,1.6-11.62-5.96-11.34-35.97,1.33-72.75-6.23-107.75,6.09-47.05,16.56-70.46,52.21-71.31,104.81q-.55,34.22-34.24,34.23-29.78,0-29.78,30.39c0,18.17.46,36.36-.2,54.5-.3,8.35,2.16,10.77,10.44,10.35,13.77-.69,27.63.34,41.4-.36,10.05-.51,12.73,3.21,12.6,12.98-.51,40.09-.56,80.2.03,120.29.15,10.31-3.52,12.71-12.99,12.61-55.78-.56-111.57-.64-167.35-.89-1.44-.74-2.87-1.47-4.31-2.21,0,0,.36.3.36.3-6.77-8.75-7.51-18.79-7.49-29.47.25-129.93.32-259.87.09-389.8-.02-9.66,1.87-18.02,7.4-25.72,0,0-.36.3-.36.3,1.44-.74,2.87-1.47,4.31-2.21,129.62-.24,259.23-.71,388.85-.5,24.13.04,32.17,10.04,32.2,35.8.1,85.75-.07,171.5.24,257.25.03,7.09-4.52,17.09,7.67,20.01.3,3.3.61,6.6.91,9.9-.26,12.4-.52,24.81-.77,37.21Z" fill="#fde000"/><path d="M255.93,399.3c0-22.56-.35-45.12.18-67.67.2-8.7-1.98-13.07-11.36-11.69-2.46.36-5.03.24-7.52.02-14.76-1.32-37.48,6.77-42.55-3.16-7.39-14.48-2.27-35.25-2.81-53.33-.22-7.49,4.31-7.62,9.7-7.57,13.18.11,26.45-.92,39.51.3,13.05,1.22,15.07-4.16,15.21-15.77.25-20.47-2.77-40.98,2.95-61.5,11.34-40.72,41.71-65.7,83.55-66.43,17.99-.31,36.02.4,53.99-.31,9.05-.36,12.36,2.39,11.64,11.43-.64,8.1-.12,16.28-.11,24.43.02,27.69.01,27.58-29.11,27.68-12.07.04-24.16.47-36.21,1.15-15.08.85-22.06,9.37-22.96,24.2q-3.31,54.86,50.8,54.85,28.82,0,28.82,29.16c0,34.9,0,34.8-34.37,34.95-14.34.06-33.35-4.84-41.8,2.38-10.03,8.56-2.96,28.16-3.21,42.93-.57,33.83-.49,67.68.01,101.51.14,9.55-2.38,12.59-12.44,12.95-51.93,1.82-51.92,2.14-51.92-48.54,0-10.65,0-21.31,0-31.96Z" fill="#63d4fd"/></svg>