<?xml version="1.0" encoding="UTF-8"?><svg id="CUBIC" xmlns="http://www.w3.org/2000/svg" width="512" height="512" viewBox="0 0 512 512" fill="currentColor"><path d="M6.56,305.4v-98.55c9.83-.54,18.21-1.41,26.58-1.41,127.47-.05,255.01,2.27,382.38-1.21,43.79-1.2,68.54,16.67,89.92,51.95-44.79,50.71-93.31,98.85-133.52,153.13-37.79,51.01-81.95,73.64-144.25,62.76-13.23-2.31-27.2-.34-48.28-.34,51.68-56.97,99.1-109.25,150.88-166.34H6.56Z"/><path d="M423.16,160c-45.64,0-83.29.16-120.94-.2-4.76-.05-11.03-1.45-14.01-4.64-34.88-37.3-69.27-75.07-108.52-117.86,46.8,0,86.69-.2,126.58.28,4.52.05,10.24,2.78,13.3,6.17,33.16,36.72,65.9,73.83,103.59,116.26Z"/></svg>