<?xml version="1.0" encoding="UTF-8"?><svg id="RESEAUX_COLOR" xmlns="http://www.w3.org/2000/svg" viewBox="0 0 512 512"><path d="M117.53,15.45c2.49-.38,4.98-.76,7.47-1.13,18.58-4.27,37.55-2.3,56.33-3.47h169.58c44.18-.45,81.7,15.15,112.62,46.63,1.4,4.37,4.04,7.81,7.88,10.33,11.64,17.61,20.02,36.59,24.26,57.32.86,18.51,1.71,37.02,2.57,55.53v169.06c-.79,15.37-2.61,30.58-7.05,45.39-.97,1.03-1.14,2.17-.48,3.43-.66,2.32-1.32,4.65-1.98,6.97-18.52,39-46.15,68-88.7,80.64-5.23,1.45-10.46,2.91-15.68,4.36-1.22.45-2.44.9-3.66,1.35-9.97.45-19.94.89-29.91,1.34h-169.31c-16.2-.43-32.41-.87-48.61-1.3-22.89-5.81-44.91-13.57-63.92-28.16-.28-1.42-1.12-1.96-2.52-1.61-33.75-29.84-50.64-67.35-51.24-112.28v-112.8c.63-2.28,1.25-4.56,1.88-6.84,12.64-4.23,14.24,2.26,14.5,13.06,1.05,44.14-4.23,88.51,3.2,132.39,6.29,37.14,24.18,66.8,59.8,83.37l.02.02c.68,4.2,4.41,3.81,7.23,4.81,17.63,12.66,38.64,12.52,58.52,12.86,64.53,1.1,129.1,1.2,193.63.15,41.52-.68,77.41-15.34,103.34-49.74,18.56-24.62,24.32-53.09,24.57-82.8.52-61.38.24-122.76.1-184.15-.03-15-1.76-29.95-6.05-44.32-16.5-55.29-60.71-87.95-122.28-88.75-64.54-.84-129.1-.67-193.64.08-19.59.23-39.78,1.38-56.62,14.14-3.89-1.06-7.18-.72-8.79,3.67l-.02.02c-2.29.69-4.91.9-6.83,2.16-42.27,27.58-56.64,68.62-56.45,116.74.02,6.38,2.04,15.57-8.12,15.27-8.22-.24-7.23-8.26-7.56-14.55-1.83-35.21,6.6-67.57,26.43-96.86,8.84-9.07,17.68-18.13,26.52-27.2,14.91-11.13,31.77-18.5,49-25.12Z" fill="#090906"/><path d="M103.35,41.32c16.84-12.76,37.03-13.91,56.62-14.14,64.54-.76,129.1-.92,193.64-.08,61.57.8,105.78,33.46,122.28,88.75,4.29,14.37,6.02,29.32,6.05,44.32.14,61.38.42,122.77-.1,184.15-.25,29.72-6.01,58.18-24.57,82.8-25.93,34.41-61.83,49.07-103.34,49.74-64.53,1.05-129.1.95-193.63-.15-19.88-.34-40.89-.19-58.52-12.86-.23-4.86-1.71-7.86-7.23-4.81,0,0-.02-.02-.01-.02,3.02-8.84-5.6-10.69-9.56-14.72-23.65-24.07-35.59-52.56-35.51-86.36.15-69.37.3-138.74-.2-208.11-.26-36.58,12.02-67.31,38.39-92.74,3.09-2.98,11.18-4.44,6.88-12.08,0,0,.02-.02.02-.02,5.22,4.25,6.4-1.15,8.79-3.67ZM258.63,60.25c-35.73,0-71.46-.21-107.18.05-48.24.35-86.5,38.3-86.72,86.51-.33,70.1-.33,140.21,0,210.31.22,48.24,38.41,86.38,86.63,86.58,70.83.3,141.66.29,212.48-.03,45.71-.21,84.6-38.97,84.81-84.59.33-71.35.31-142.7-.01-214.04-.2-45.64-39.02-84.29-84.71-84.71-35.1-.32-70.2-.06-105.3-.08Z" fill="#fde000"/><path d="M258.63,60.26c35.1,0,70.2-.25,105.3.07,45.69.42,84.5,39.07,84.71,84.71.32,71.35.34,142.7.01,214.04-.21,45.62-39.1,84.38-84.81,84.59-70.83.32-141.66.33-212.48.03-48.22-.2-86.41-38.34-86.63-86.58-.32-70.1-.32-140.21,0-210.31.23-48.22,38.48-86.16,86.72-86.51,35.73-.26,71.45-.05,107.18-.04ZM433.52,252.69c0-33.2.28-66.39-.07-99.59-.48-46.09-31.9-77.44-78.31-77.69-65.86-.35-131.73-.41-197.59.02-46.2.3-77.47,31.86-77.72,78.23-.36,65.76-.41,131.53.02,197.29.3,46.38,31.58,77.36,78.25,77.64,65.86.39,131.73.42,197.59.02,46.18-.29,77.35-31.92,77.78-78.21.3-32.57.06-65.14.06-97.71Z" fill="#090906"/><path d="M433.52,252.69c0,32.57.24,65.14-.06,97.71-.42,46.29-31.59,77.93-77.78,78.21-65.86.41-131.73.37-197.59-.02-46.67-.27-77.95-31.25-78.25-77.64-.43-65.76-.38-131.53-.02-197.29.25-46.37,31.53-77.93,77.72-78.23,65.86-.43,131.73-.37,197.59-.02,46.41.25,77.83,31.59,78.31,77.69.35,33.19.07,66.39.07,99.59ZM255.32,379.91c70.78.25,129.05-56.27,129.44-125.57.41-71.96-56.02-129.96-126.69-130.2-70.78-.25-129.04,56.28-129.44,125.57-.41,71.96,56.02,129.96,126.69,130.2Z" fill="#fde000"/><path d="M255.32,379.91c-70.66-.25-127.1-58.24-126.69-130.2.4-69.29,58.66-125.81,129.44-125.57,70.67.25,127.1,58.24,126.69,130.2-.4,69.29-58.66,125.81-129.44,125.57ZM369.55,251.09c-1.11-60.27-54.31-112.74-113.31-111.76-60.55,1.01-112.82,53.41-112.4,112.68.43,60.84,54.23,113.91,114.27,112.71,60.15-1.2,112.53-54.61,111.44-113.63Z" fill="#090906"/><path d="M369.55,251.09c1.09,59.02-51.29,112.43-111.44,113.63-60.03,1.2-113.84-51.87-114.27-112.71-.42-59.27,51.85-111.67,112.4-112.68,59-.99,112.2,51.48,113.31,111.76ZM259.04,164.38c-48.92-1.58-88.17,35.4-90.05,84.84-1.86,48.98,34.76,88.15,84.43,90.31,49.67,2.15,89.79-35.55,91.12-85.62,1.29-48.79-36.08-87.92-85.5-89.52Z" fill="#fde000"/><path d="M259.04,164.38c49.42,1.6,86.8,40.73,85.5,89.52-1.33,50.08-41.45,87.78-91.12,85.62-49.67-2.16-86.29-41.33-84.43-90.31,1.88-49.44,41.13-86.42,90.05-84.84ZM328.18,252.55c2-40.27-32.98-71.23-70.86-71.91-40.72-.73-72.22,30.85-72.24,71.3-.02,39.76,30.85,71.24,70.2,71.59,40.79.36,72.75-30.76,72.89-70.99Z" fill="#090906"/><path d="M328.18,252.55c-.14,40.22-32.1,71.35-72.89,70.99-39.35-.35-70.22-31.82-70.2-71.59.02-40.46,31.52-72.03,72.24-71.3,37.88.68,72.86,31.64,70.86,71.91Z" fill="#63d4fd"/><path d="M226.84,283.8c-15-.77-23.8-7.51-24.25-22.87-.44-15.4,8.15-23.19,22.58-23.73,14.8-.55,23.74,7.57,23.86,22.59.11,14.42-7.42,23.09-22.19,24.02Z" fill="#090906"/><path d="M408.26,132.21c0,11.73-5.52,21.24-21.24,21.24-11.73,0-21.24-9.51-21.24-21.24s9.51-21.24,21.24-21.24c16.35,0,21.24,9.51,21.24,21.24Z" fill="#090906"/></svg>