<?xml version="1.0" encoding="UTF-8"?><svg id="Calque_12" xmlns="http://www.w3.org/2000/svg" viewBox="0 0 512 512" fill="currentColor"><path d="M496.74,401.94c2.66.94,4.91,2.75,7.61,3.61.7.22.97.81.79,1.47-.92,3.39-.66,6.97-1.7,10.45-1.81-.17-3.4-.93-5.04-1.47-15.97-5.26-31.76-11.07-47.33-17.41-8.4-3.42-16.78-6.89-24.98-10.78-4.47-2.12-4.4-2.04-7.48,1.82-5.59,7.02-11.03,14.15-16.96,20.9-2.21,2.52-4.63,4.84-6.84,7.35-3.21,3.64-6.81,6.87-10.33,10.18-7,6.58-14.54,12.51-22.34,18.11-10.63,7.62-21.9,14.15-33.7,19.78-11.39,5.43-23.17,9.82-35.31,13.27-8.63,2.45-17.4,4.31-26.25,5.69-5.54.86-11.14,1.39-16.75,1.85-9.61.79-19.21.5-28.8.33-6.39-.12-12.76-.95-19.11-1.86-8.97-1.28-17.82-3.08-26.58-5.39-10.49-2.77-20.69-6.35-30.63-10.68-13.61-5.92-26.52-13.11-38.7-21.6-6.93-4.83-13.62-9.99-19.96-15.6-4.09-3.61-8.22-7.2-12-11.13-8.48-8.82-16.55-17.99-23.62-28.02-6.15-8.72-11.79-17.73-16.79-27.17-5.5-10.37-10.1-21.11-13.98-32.17-2.25-6.4-4.22-12.87-5.88-19.43-1.66-6.55-3.07-13.16-4.07-19.86-.91-6.07-1.74-12.15-2.22-18.28-.22-2.81-.1-5.64-.47-8.41-.77-5.72-.42-11.44-.36-17.16.05-4.82.51-9.64.84-14.46.37-5.36,1.03-10.67,1.82-15.96,1.22-8.16,2.87-16.26,5.05-24.23,1.47-5.35,2.95-10.68,4.78-15.92,2.53-7.24,5.4-14.33,8.54-21.32,5.82-13,12.96-25.23,21.11-36.88,4.95-7.07,10.34-13.78,16.03-20.28,5.71-6.51,11.9-12.54,18.17-18.48,5.62-5.32,11.68-10.17,17.94-14.73,10.49-7.63,21.45-14.55,33.09-20.28,17.53-8.62,35.84-15.05,55.06-18.77,7.25-1.4,14.54-2.38,21.87-3.23,11.52-1.32,23.07-1.32,34.57-.78,18.04.85,35.76,4.07,53.04,9.49,10.01,3.14,19.74,6.98,29.26,11.41,13.88,6.46,26.79,14.48,39.04,23.6,4.87,3.62,9.49,7.56,14.06,11.57,6.31,5.54,12.15,11.55,17.91,17.61,4.6,4.84,8.77,10.09,12.85,15.4,4.02,5.23,8.25,10.3,11.99,15.74.45.65.85,1.33,1.27,2-.02.78-.03,1.54,1.05,1.6,0,0,0,0,0,0-.1.93.28,1.73.76,2.48,1.99,3.12,3.74,6.37,5.34,9.71,1.91,3.96,3.85,7.92,5.75,11.89,3.66,7.67,6.76,15.56,9.4,23.62,2.78,8.5,5.18,17.11,6.98,25.89.21,1.04-.06,2.34.94,3.19,0,.35.01.7.02,1.05-.05.6-.15,1.21.48,1.6.19,1.23.38,2.46.58,3.69.06,1.82.24,3.62,1.01,5.31l.05,2.1c0,.75-.3,1.56.48,2.13.03,1.23.06,2.46.08,3.68-.09.6-.18,1.2.44,1.61.01.53.02,1.05.04,1.58.14,1.59-.52,3.28.53,4.77-.36,2.33.7,4.57.46,6.89-.65.54-.63,1.32-.41,1.95.58,1.63.37,3.3.43,4.96.24,6.5-.3,12.98-.49,19.47-.03.92-.34,1.95.47,2.76,0,.69,0,1.38,0,2.06-1.81.65-.71,2.14-.95,3.24-.02.7-.03,1.4-.05,2.1-.79.57-.5,1.38-.47,2.13-.02.7-.04,1.4-.05,2.1-.71,2.06-1.1,4.18-1.02,6.36,0,.35-.02.7-.03,1.05-.82.56-.5,1.38-.5,2.13-.01.35-.02.7-.03,1.05-.65.38-.55,1-.49,1.6-.01.35-.02.7-.04,1.05-.66.38-.56,1-.48,1.6-.02.52-.03,1.05-.05,1.57-.66.38-.55,1-.5,1.6-.01.35-.02.7-.03,1.05-.46.23-.55.62-.48,1.08-.01.35-.03.7-.04,1.05-.46.22-.56.61-.48,1.07.16,2.04-1.08,3.81-1.13,5.8-.45.23-.54.62-.48,1.08-.54,1.34-.67,2.75-.64,4.18-1.48.87-.95,2.52-1.47,3.77-1.53,4.75-2.92,9.56-4.61,14.25-3.22,8.95-7.23,17.57-11.39,26.12-.5,1.02-1.44,1.81-1.53,3.03-1.24,1.88-1.23,1.9.33,3.1,1.46,1.12,2.86,2.32,4.33,3.42,3.02,2.25,5.76,4.88,9.07,6.73.42,1.56,1.99,1.87,3.03,2.73,6.77,5.59,14.01,10.56,21.16,15.64,3.43,2.44,7.13,4.51,10.69,6.77,1.54.98,3.22,1.32,5,1.32.74,0,1.53-.08,1.77-.86.33-1.06,1.07-1.12,1.98-1.34,1.39-.33,2.77-.56,4.17-.43,1.09.1,1.86-.32,2.53-1.09ZM345.27,409.92c.56.14.92-.2,1.28-.54,2.06-.69,3.44-2.34,5.14-3.56.77-.55,1.09-1.35,1.01-2.3,2.09-2.15,4.57-3.82,6.93-5.65,6.37-4.93,11.57-11.06,16.87-17.08,2.85-3.24,5.02-6.99,7.86-10.23,1.66-1.9,1.6-2.23-.71-3.44-.78-.41-1.59-.77-2.37-1.18-5.37-2.85-10.79-5.62-16.08-8.6-9.97-5.62-19.89-11.34-29.62-17.37-10.31-6.38-20.62-12.77-30.26-20.18-6.48-4.98-13.14-9.74-19.56-14.8-10.08-7.95-20.12-15.95-29.88-24.31-6.48-5.55-12.87-11.2-19.26-16.86-4.15-3.68-8.08-7.6-12.11-11.42-1.02-.97-2.02-1.97-3.09-2.89-2.73-2.37-5.23-4.96-7.64-7.66-2.51-2.82-5.17-5.51-7.77-8.26-.13-.91-.65-1.5-1.53-1.74-.96-.98-1.42-2.41-2.74-3.07-.36-1.85-2.11-2.68-3.05-4.14-1.35-2.11-2.48-2.11-4.57-.63-1.7,1.2-3.36,2.48-5.18,3.48-1.05.58-1.4,1.33-1.51,2.37-.35.04-.77-.04-1.02.14-3.74,2.66-7.39,5.41-10.44,8.88-.69.78-1.31,1.65-2.32,2.07-.13-1.63.93-2.69,2.29-4.02-1.57.02-2.44.62-3.27,1.16-3.76,2.42-7.45,4.94-11.21,7.34-6.94,4.42-13.94,8.74-20.87,13.18-2.26,1.45-4.81,2.53-6.65,4.59-.57.21-1.23.3-1.71.63-2.74,1.9-5.68,3.47-8.55,5.17-4.82,2.85-9.54,5.86-14.41,8.61-4.43,2.5-9.03,4.71-13.52,7.1-2.31,1.23-4.56,2.59-6.83,3.9-1.55.45-3,1.08-4.23,2.16-2.87.99-5.57,2.31-7.98,4.18-.33.1-.69.16-1,.31-5.27,2.65-10.57,5.22-15.75,8.05-2.62,1.43-5.25,2.87-8.07,3.89-.84-.02-1.52.39-2.16.87-.4.3-.57.85-.2,1.14,1.41,1.14,1.96,3.15,3.83,3.81,1.55,5.23,3.35,10.38,5.42,15.42,2.91,7.09,6.05,14.06,9.78,20.78,2.57,4.62,5.22,9.17,8.18,13.54,0,.67.43,1.12.78,1.63,3.32,4.86,6.72,9.66,10.54,14.13,2.5,2.93,4.78,6.06,7.71,8.62,1.47,1.72,2.89,3.49,4.44,5.14,3.17,3.38,6.94,6.14,10.08,9.55.37.4.83.63,1.38.67,1.07,1.93,3.08,2.84,4.63,4.25,2.46,2.24,5.21,4.13,8.09,5.82.27.34.47.77.81,1,4.07,2.78,8.05,5.71,12.45,7.99,4.2,3.07,8.91,5.24,13.54,7.53.39.19.82.3,1.25.39,4.5.91,8.74.93,12.89-1.77,2.1-1.37,3.62-2.53,4.27-5.1.59-2.33,1.35-4.38-.79-6.23-.06-.06-.11-.14-.16-.21-.28-.49-.37-1.02-.12-1.52.29-.57.87-.53,1.39-.44.56.1,1.14.66,1.63-.12,1.1.17,1.85.96,2.72,1.55-1.09.85-1.35,1.93-.45,2.96,1.43,1.65,2.83,3.43,4.59,4.67,1.37.97,2.3,2.15,3.12,3.48,1.1,1.8.81,3.05-.81,4.39-.67.55-1.59.83-2.03,1.65-1.37,2.54-3.76,2.91-6.29,3.08-.8.05-2.05-.49-2.25.69-.18,1.1,1.07,1.17,1.87,1.45,5.63,2,11.34,3.76,17.14,5.19,4.5,1.11,9.03,2.15,13.64,2.7,4.03.79,8.06,1.55,12.18,1.57,1.34.46,2.71.58,4.12.55,1.82-.03,3.65-.02,5.45.38,2.12.09,4.24.24,6.36-.07,1.21.32,2.43.19,3.65.14.55.09,1.09.11,1.63-.09,2.81.14,5.61-.18,8.41-.28,6.7-.23,13.28-1.19,19.86-2.26,8.42-1.38,16.71-3.36,24.81-6.01,10.29-3.36,20.27-7.5,29.85-12.61,8.72-4.65,17.02-9.91,24.99-15.74.57-.42,1.22-.75,1.17-1.6h-.02ZM70.96,256.36c2.04-1.28,4.17-2.47,5.29-4.77h0c1.32-.19,1.95-1.24,2.66-2.18,3.49-3.08,7.01-6.13,10.48-9.24,5.31-4.74,10.74-9.36,15.84-14.32,7.14-6.94,14.29-13.85,20.98-21.25,5.54-6.13,10.94-12.38,16.43-18.55,5.25-5.91,10.13-12.13,15.25-18.16,6.49-7.63,12.75-15.46,19.14-23.18,6.06-7.31,12.03-14.68,17.89-22.15,1.68-2.14,3.44-4.23,5.12-6.38.56-.72,1.05-.89,1.69-.17.03.55.31.97.65,1.4,2.85,3.67,5.69,7.35,8.52,11.04,3.69,4.8,7.36,9.6,11.05,14.39,2.3,2.98,4.71,5.89,6.94,8.93,2.85,3.89,5.92,7.6,8.82,11.46,3,3.99,6.28,7.79,9.29,11.77,4.45,5.87,9.06,11.62,13.6,17.42,5.84,7.46,11.86,14.77,17.77,22.18,3.39,4.25,6.66,8.6,10.2,12.72,2.41,2.8,4.45,5.87,6.86,8.67,2.06,2.39,4.06,4.84,6.13,7.23,2.92,3.38,5.48,7.09,8.5,10.37,3.69,4.01,6.75,8.54,10.58,12.44,1.57,1.6,3.22,3.23,4.51,5.13,1.63,2.07,3.27,4.12,5.15,5.98,4.96,4.88,9.83,9.87,14.8,14.75,2.82,2.77,5.68,5.51,8.57,8.21,5.27,4.92,10.63,9.74,15.85,14.7,2.49,2.36,5.3,4.36,7.56,6.96.17.2.38.39.62.49.79.33.85-.28.96-.8,1.77,1.03,2.82,2.82,4.31,4.16,2.33,2.09,4.62,4.28,6.65,6.65,2.28,2.66,5.13,4.7,7.45,7.3.31.34.75.43,1.2.43.47.4.91.83,1.4,1.18,1.28.91,2.02.81,2.74-.59,1.07-2.11,1.98-4.3,2.97-6.44.27-.59-.17-1-.29-1.49.89-.02,1.15-.7,1.42-1.36,3.22-7.91,5.95-15.98,8.13-24.23,1.91-7.22,3.29-14.53,4.4-21.92.93-6.17,1.56-12.38,1.85-18.58.33-7.09.45-14.2.11-21.31-.08-1.64-.02-3.37-.28-4.9-.46-2.75-.29-5.54-.91-8.28-.32-1.4-.66-2.9-.68-4.33-.04-2.74-.63-5.37-1.11-8.02-1.23-6.82-2.91-13.53-4.86-20.2-2.35-8.02-5.42-15.76-8.82-23.35-1.49-3.32-3.11-6.63-4.87-9.86-5.77-10.63-12.02-20.9-19.56-30.37-5.87-7.38-11.94-14.55-19.15-20.7-1.12-.95-2.5-1.66-3.28-2.99-.49-1.74-1.99-2.57-3.22-3.67-1.52-1.36-3.58-2.27-3.94-4.65-.11-.73-.83-1.09-1.39-1.52-3.28-2.51-6.41-5.19-9.32-8.13-1.53-1.55-3.39-2.92-5.49-3.53-1.99-.58-3.7-1.53-5.44-2.56-2.76-1.64-4.86-4.33-8.23-5-.95-.19-1.57-1.14-2.18-1.87-1.28-1.54-2.99-2.6-4.74-3.25-3.86-1.43-7.38-3.65-11.36-4.76-3.52-.98-6.52-3.56-10.4-3.45-.32,0-.7-.2-.96-.41-1.78-1.48-4.25-.9-6.14-2.06-.26-.16-.74-.14-1.03-.01-2.05.91-3.83-.13-5.5-.94-1.3-.63-2.45-.88-3.76-.44-1.43.48-2.74.28-4.07-.38-2.2-1.09-4.68-1.48-6.86-2.63-.29-.15-.7-.29-1-.21-2.35.64-4.74.12-7.09.34-2.06.2-3.8-.39-5.29-1.78-.52-.49-1.06-1.06-1.84-.75-2.01.79-4.23,1.24-5.67,3.08-4.24,0-8.47,0-12.71-.01-4.3-.23-8.58.13-12.86.51-2.26.2-4.59.15-6.77.7-3.66.92-7.42,1.13-11.08,1.96-.7-.01-1.39.08-2.08.2-3.82.61-7.44,2.01-11.19,2.82-3.03.65-5.87,1.77-8.8,2.68-.49.15-1.11.19-1.15.88-.04.65.52.9.99,1.09,1.33.54,2,1.63,2.6,2.84.5,1.02,1.07,2.02,1.75,2.94.68.91.68,1.73.58,2.88-.21,2.61-2.18,3.94-3.68,5.39-1.7,1.64-3.39,3.3-5.13,4.87-1.66,1.5-1.62,2.68-.85,4.32-.72.8-1.63,1.24-2.68,1.42-.28-.33-.5-.74-.85-.98-1.18-.84-1.44-1.58-.57-3.01.59-.96,1.11-2.17,1.33-3.35.34-1.82-.53-3.23-1.86-4.4-1.34-1.18-2.38-2.5-2.83-4.31-.78-3.16-3.64-4.65-6.59-3.42-2.01.84-3.94,1.89-5.9,2.87-3.76,1.89-7.51,3.78-11.25,5.7-.28.14-.44.53-.65.8-2.08.67-3.83,1.99-5.63,3.14-2.61,1.66-5.4,3.08-7.61,5.33-1.87.94-3.53,2.22-5.24,3.4-2.57,1.77-4.7,4.14-7.47,5.65-1.52-1.29-2.63-.13-3.65.74-1.78,1.52-3.66,2.71-6.05,2.95-.81.08-1.6.4-2.12.99-2.55,2.9-5.97,4.93-8.21,8.15-.55.79-1.17,1.53-1.76,2.29-2.09,2.71-4.26,5.36-6.23,8.15-.76,1.08-1.43,2.2-2.39,3.12-1.78,1.7-3.45,3.49-4.75,5.63-1.42,2.31-3.08,4.48-4.62,6.72-.59.87-1.61,1.51-1.79,2.59-.47,2.88-2.56,4.69-4.2,6.84-1.76,2.31-4.07,4.44-3.52,7.87.17,1.04-.64,1.94-1.37,2.44-1.42.97-1.93,2.46-2.77,3.78-1.3,2.05-1.35,4.6-2.61,6.58-2.38,3.74-4.27,7.67-5.81,11.81-.65,1.74-.78,3.38-.35,5.14.48,1.95-.25,3.66-1.94,4.71-.6.37-1.24.67-1.87.99-.55.28-.86.81-.65,1.3.54,1.27.07,2.14-.77,3.04-.53.56-.38,1.32-.1,2,.46,1.11.41,2.09-.77,2.71-1.07.55-1.08,1.51-1.06,2.5.05,2.38-.06,4.7-.88,7.02-.44,1.26-.77,2.69-.72,4.13.12,3.11-.16,6.15-1.73,8.93-.27.48-.43.99-.21,1.52.93,2.22.17,4.28-1,6.01-1.84,2.73.69,5.57-.55,8.23-.24.52.18,1.01.38,1.49.03.08.07.17.12.24,1.16,1.65,1.18,3.61.79,5.36-.51,2.31-.1,4.3.81,6.35.96,2.17.74,4.23-.68,6.19-.71.98-1.45,1.96-1.8,3.19-.69,2.42-.51,2.85,1.86,3.46,1.61.41,2.21,1.28,1.84,2.88-.16.69-.42,1.35-.31,2.06.15.96.73,1.6,1.67,1.83.81.2,1.39-.08,1.49-1,2.05-.62,3.55-1.95,4.75-3.66,1.7-.51,2.64-1.93,3.73-3.16.54-.07.97-.34,1.38-.69,3.94-3.43,7.94-6.8,11.81-10.3,1.13-1.02,2.57-1.8,3.22-3.31h0Z"/><path d="M459.63,244.67c.24-2.32-.82-4.56-.46-6.89.9-1.36.48-2.82.3-4.25-.05-.37-.5-.42-.83-.51-.01-.53-.02-1.05-.04-1.58.8-.8.65-1.33-.44-1.61-.03-1.23-.06-2.46-.08-3.68.68-.9.93-1.7-.48-2.13-.02-.7-.03-1.4-.05-2.1.71-1.88.28-4.15-1.01-5.31-.19-1.23-.39-2.46-.58-3.69.8-.82.62-1.35-.48-1.6,0-.35-.01-.7-.02-1.05.66-.63.74-1.51.95-2.31.44-1.7.4-1.72,2.16-1.4.76,1.15.75,2.55.94,3.8.57,3.71,1.64,7.32,1.9,11.12.16,2.28.84,4.62,1.2,6.95.09.61.23,1.22.2,1.83-.16,3.35.41,6.67.72,9.97.25,2.68-.11,5.46.83,8.09.2.55.08,1.23.05,1.84-.22,4.47.21,8.94-.32,13.44-.2,1.7-.08,3.6-.2,5.4-.41,6.16-.64,12.32-1.48,18.46-1.01,7.38-2.19,14.71-3.84,21.97-2,8.83-4.75,17.45-8.04,25.89-1.56,4.01-3.5,7.87-5.28,11.79-.76,1.69-2.23,2.94-2.89,4.7-.36.96-1.56.54-2.18,1.52-1.47,2.28-2.2,4.66-2.23,7.32-.39.71-.44,1.49-.58,2.27-.46,2.6-2.09,3.62-4.69,3.04.09-1.22,1.03-2.01,1.53-3.03,4.16-8.55,8.16-17.17,11.39-26.12,1.69-4.69,3.08-9.5,4.61-14.25,1.67-.79,1.43-2.34,1.48-3.77-.02-1.43.1-2.83.64-4.18.64-.14,1.25-.3.48-1.08.05-2,1.29-3.77,1.13-5.8.63-.15,1.22-.31.48-1.07.01-.35.03-.7.04-1.05.64-.15,1.24-.31.48-1.08.01-.35.02-.7.03-1.05,1.09-.25,1.26-.78.5-1.6.02-.52.03-1.05.05-1.57,1.08-.26,1.24-.79.48-1.6.01-.35.02-.7.04-1.05,1.08-.25,1.26-.78.49-1.6.01-.35.02-.7.03-1.05,1.39-.42,1.15-1.22.5-2.13,0-.35.02-.7.03-1.05.45-.1.91-.27.92-.79.03-1.15.36-2.24.55-3.36.13-.74.29-1.6-.44-2.21.02-.7.04-1.4.05-2.1,1.37-.44,1.13-1.24.47-2.13.02-.7.03-1.4.05-2.1.7-.11.99-.55.98-1.23-.01-.67-.02-1.34-.03-2.01,0-.69,0-1.38,0-2.06.49-.35.55-.86.56-1.4.03-2.72.29-5.42.43-8.12.31-5.79.09-11.62.11-17.43,0-.93-.11-1.77-1.09-2.19Z"/><path d="M496.74,401.94c-.67.77-1.44,1.19-2.53,1.09-1.41-.13-2.78.1-4.17.43-.91.22-1.65.28-1.98,1.34-.24.78-1.04.86-1.77.86-1.78,0-3.47-.34-5-1.32-3.56-2.26-7.26-4.33-10.69-6.77-7.15-5.08-14.38-10.05-21.16-15.64-1.04-.86-2.61-1.17-3.03-2.73,1.23-.21,2.23.3,3.15,1.03,1.17.93,2.36,1.03,3.9.86,2.33-.27,4.77-.69,7.06.83,1.21.8,2.68,1.23,3.96,2.02,1.47.92,1.77.72,2.61-1.11,3.24,1.77,6.21,3.98,9.2,6.1,5.47,3.87,11.16,7.36,16.9,10.78,1.2.71,2.5,1.28,3.55,2.24Z"/><path d="M467.08,382.82c-.84,1.83-1.13,2.03-2.61,1.11-1.28-.8-2.76-1.23-3.96-2.02-2.29-1.51-4.73-1.09-7.06-.83-1.54.18-2.73.08-3.9-.86-.92-.74-1.92-1.24-3.15-1.03-3.32-1.85-6.06-4.47-9.07-6.73-1.47-1.1-2.87-2.3-4.33-3.42-1.56-1.2-1.57-1.23-.33-3.1,2.6.58,4.23-.44,4.69-3.04.14-.78.19-1.56.58-2.27,2.41.78,4.04,2.73,5.93,4.22,7.27,5.75,14.8,11.17,22.15,16.82.41.31.71.77,1.06,1.15Z"/><path d="M458.58,206.54c-1.76-.32-1.72-.3-2.16,1.4-.21.8-.29,1.68-.95,2.31-1-.85-.73-2.15-.94-3.19-1.8-8.78-4.2-17.39-6.98-25.89-2.64-8.06-5.74-15.94-9.4-23.62-1.89-3.97-3.84-7.92-5.75-11.89-1.61-3.33-3.35-6.59-5.34-9.71-.48-.75-.85-1.55-.76-2.48,2.23,2.17,3.62,4.94,5.28,7.5,3.34,5.18,6.3,10.6,9.07,16.09,3.33,6.59,6.39,13.33,8.99,20.26,3.59,9.56,6.58,19.29,8.94,29.22Z"/><path d="M426.29,133.47c-1.08-.05-1.07-.82-1.05-1.6.69.31,1.05.84,1.05,1.6Z"/><path d="M92.66,326.27c0,.14-.01.29-.02.43.09.29.26.5.55.59,0,0-.02-.02-.02-.02.03.59-.09,1.23.54,1.61,0,0-.01-.02-.01-.02,0,.45.1.85.54,1.08,0,0-.01-.02-.01-.02,0,1.33.4,2.47,1.6,3.2,0,0-.01-.02-.01-.02,0,.45.09.86.54,1.08,0,0-.01-.02-.01-.02.01.45.09.86.54,1.08,0,0-.01-.02-.01-.02.01.44.07.86.54,1.08,0,0-.01-.02-.01-.02,0,.45.07.86.54,1.08,0,0-.01-.02-.01-.02,0,.45.08.86.54,1.08,0,0-.01-.02-.01-.02,0,.45.1.85.54,1.08,0,0-.01-.02-.01-.02.01.46.1.89.6,1.08.72.31.94,1,1.29,1.62,4.71,8.36,10.08,16.28,15.93,23.88.48.62.84,1.33,1.25,2.01.18.19.35.37.53.56,0,0,0,0,0,0,0,.44.09.84.53,1.06,0,0,0,0,0,0,.18,1.23.57,2.26,2.12,2.12,0,0,0,0,0,0,0,.7.05,1.39.21,2.08.21.97-.24,1.29-1.14.81-.7-.38-1.33-.88-2.18-.76-1.72.25-2.94-.57-3.68-1.98-.92-1.76-2.33-2-4-1.57-.68.17-1.34.41-2.06.37-1.52-.1-2.87.19-4.22,1.05-1.61,1.03-2.73.74-4.19-.57-.94-.84-2-1.49-3.27-1.51-1.45-.02-2.73-.55-4.04-1.07-1.79-.7-3.57-1.42-5.51-1.67-1.01-.13-2.18-.29-2.86-1.17-1.94-2.51-4.72-2.77-7.54-3.01-2.96-4.37-5.61-8.92-8.18-13.54-3.73-6.71-6.87-13.69-9.78-20.78-2.07-5.05-3.87-10.19-5.42-15.43-.19-2.02-1.51-3.75-1.48-5.83,2.82-1.02,5.46-2.46,8.07-3.89,5.18-2.83,10.48-5.4,15.75-8.05.31-.16.67-.21,1-.31,1.03.97,2.26,1.2,3.63,1.1.87-.06,1.75.01,2.62-.02.84-.03,1.54.11,1.94.99.45.99-.22,1.51-.85,1.93-.88.58-1.17,1.26-.71,2.21.28.58,1.04,1.03.4,1.83-.44.55-1.23.3-1.87.76,1.25.48,2.3.88,3.35,1.29,1.95,5.2,3.46,10.55,5.65,15.66.23.53.12,1.2.17,1.8.03.59-.08,1.23.54,1.62,0,0-.01-.02-.01-.02.02.44.11.85.54,1.08,0,0-.01-.02-.01-.02,0,.46.13.86.54,1.11Z"/><path d="M54.54,270.66c-1.09,1.23-2.03,2.65-3.73,3.16-.22-.28-.5-.44-.87-.52-1.99-.44-2.08-.59-1.42-2.32.19-.49.47-.95.63-1.44.58-1.92,1.14-3.85.09-5.8.02-.35.05-.71.07-1.06,1.1-.14.97-.92.87-1.68l-.37-2c1.32-.35,2.3-.91,1.66-2.54-.17-.43.06-.84.15-1.26.6-2.78,1.17-5.57,1.74-8.35.13-.62.16-1.21-.43-1.64.17-.53.35-1.07.52-1.6.66-.03,1.33-.24,1.44-.92.42-2.59,1.77-4.9,1.84-7.64.05-2.13.64-4.24,2.02-6.12,1-1.37,1.62-3.12,2.07-4.78.81-3.02,1.12-6.19,3.07-8.82.35-.48.42-1.16.73-1.68.92-1.55.69-3.44,1.44-4.98,1.42-2.93,2.59-5.91,3.43-9.06.45-1.68,1.07-3.33,1.81-4.94.98-2.15,1.71-4.41,2.56-6.62.28-.72.46-1.38-.59-1.62.02-.29.23-.4.46-.48.76-.03,1.47-.13,1.41-1.16-.02-.35-.04-.7-.06-1.04.08-.5.15-1.01.23-1.51.11,0,.22-.03.33-.05.02.18.05.36.07.55.1.37.09.96.67.75.56-.21.34-.83.39-1.3,0-.17,0-.35,0-.52.55-.04,1.2-.17,1.32-.7.39-1.81,1.84-2.97,2.6-4.53,1.76-3.63,3.79-7.12,5.57-10.74,2.45-4.98,5.81-9.33,8.86-13.9.31-.47.64-.83,1.23-.86-.03,1.28.73,2.46.16,3.85-.34.84.48,1.54,1.42,1.33,1-.23,1.91-.73,2.84-1.27,2.45-1.42,4.63-3.56,7.79-3.36.08,1.13-.41,2.06-1.07,2.91-2.33,2.99-4.17,6.3-6.26,9.45-2.93,4.4-5.12,9.22-7.43,13.94-2.38,4.87-4.51,9.88-6.43,14.97-1.73,4.59-3.56,9.19-4.62,13.96-1.37,6.15-2.86,12.28-4.1,18.47-.78,3.88-1.43,7.8-1.69,11.66-.32,4.89-1.02,9.81-.69,14.75,0,0,0,0,0,0-2.89.42-4.86,2.19-5.29,4.77,0,0,0,0,0,0-.53-.02-1.13-.12-1.53.26-2.73,2.61-6.43,3.99-8.8,7.07-1.3,1.69-3.14,2.82-4.82,4.07-1.12.84-1.39,1.7-1.28,2.9Z"/><path d="M201.72,116.02c3.23.58,5.89,2.54,8.9,3.69,3.32,1.27,6.51,2.86,9.76,4.32.07,1.9,1.92,2.56,2.75,3.94,1.46,2.45,3.08,4.76,5.07,6.87,2.36,2.5,4.29,5.4,6.4,8.13-.1,1.87,1,2.75,2.62,3.2h0c-.01.77-.02,1.54,1.06,1.59.02.16.04.32.04.49.64,1.93,1.96,3.44,3.13,5.04.51.7,1.27.89,2.11.84.02.16.03.32.04.49.17.98.26,2.01,1.6,2.12.16.01.32.03.48.05-.03,1.12.25,2.02,1.59,2.11.02.16.03.32.05.49.89,1.54.94,3.7,3.15,4.26.48.22.84.56,1.02,1.07-.83.7-.1,1.3.21,1.83.3.51.96.8,1.26,1.3,2.1,3.56,4.9,6.57,7.43,9.8.91,1.16,2.15,2.04,2.81,3.39,1.69,3.49,4.03,6.54,6.47,9.53,1.22,1.5,2.86,2.77,3.69,4.41,1.46,2.86,3.93,4.91,5.41,7.7.37.71,1,1.24,1.91,1.2h0c.27,2.02,1.01,3.68,3.2,4.24.49.22.83.58,1.02,1.08-.11,1.28.45,2.14,1.64,2.61h0c-.07.74.28,1.09,1.01,1.1,0,0,0,0,0,0-.15,1.64.93,2.46,2.15,3.17.17.17.34.33.51.5.17,1.13.5,2.19,1.17,3.15,2.91,4.13,6.08,8.06,8.77,12.36,1.47,2.35,3.38,4.43,5.08,6.63.49.64,1.01,1.23,1.92,1.19h0c-.1.85.27,1.47.75,2.16,2.08,2.95,4.53,5.58,6.82,8.35,1.1,1.34,1.9,2.99,3.57,3.79.33.37.67.73,1,1.1.01.26-.05.56.05.78,1.51,3.29,3.9,5.92,6.42,8.44.21.21.65.18.98.26h0c-.09,1.54.56,2.47,2.14,2.64.17.18.33.36.5.54-.25,1.41.81,2.28,1.46,3.27.62.97.86,1.84.27,3.01-1.48-.75-3.01-1.16-4.05-2.44-.49-.61-1.21-.66-1.93-.64-1.29-1.9-2.94-3.54-4.51-5.13-3.84-3.9-6.89-8.43-10.58-12.44-3.02-3.28-5.58-6.99-8.5-10.37-2.07-2.39-4.07-4.84-6.13-7.23-2.41-2.8-4.46-5.87-6.86-8.67-3.54-4.12-6.81-8.47-10.2-12.72-5.9-7.41-11.93-14.72-17.77-22.18-4.54-5.8-9.15-11.54-13.6-17.42-3.01-3.98-6.29-7.78-9.29-11.77-2.9-3.85-5.97-7.57-8.82-11.46-2.23-3.04-4.64-5.94-6.94-8.93-3.69-4.79-7.36-9.6-11.05-14.39-2.83-3.69-5.67-7.37-8.52-11.04-.34-.43-.62-.85-.65-1.4Z"/><path d="M234.56,448.49c-1.22.05-2.44.18-3.65-.14-.07-.43-.06-.86-.4-1.22-3.04-3.24-6.96-5.06-11.08-6.29-2.54-.76-4.98-1.8-7.3-2.89-3.62-1.7-7.49-2.99-10.78-5.38-.72-.52-1.5-.42-2.28-.43h0c-.99-1.57-2.25-2.7-4.25-2.64-.17,0-.34,0-.51-.02-1.3-2.29-1.34-2.46-1.05-3.72,4.95,1.48,9.79,3.33,14.83,4.5,4.99,1.16,9.87,2.66,15.03,3.2,3.6.38,7.22,1.23,10.85,1.68,1.77.22,3.64.68,5.36-.37.52.05,1.03.1,1.55.15.28,1.08,1.19,1,1.93.88,3.47-.56,6.76,1.73,10.27.59.35-.11.85.16,1.26.29.52.17,1.07.26,1.55.05,1.27-.55,2.6-.38,3.91-.38,2.55,0,5.07-.45,7.57-.74,1.55-.18,3.02.71,4.37.13,2.09-.9,4.25-.95,6.42-1.12,2.88-.22,5.6-1.28,8.49-1.55,1.29-.12,2.84-.3,3.57-1.8.34-.05.68-.09,1.03-.14,1.98.74,2.32.65,3.74-.93.33-.07.67-.14,1-.22.05.07.1.17.16.19,2.19.64,4.04-.56,6-1.13.02,0-.1-.45-.15-.68l-.07-.17c.33-.04.66-.07.99-.11.92.54,1.7.57,2.19-.56.32-.17.64-.33.97-.5.21-.04.43-.07.64-.11.15.01.29-.02.42-.11.4-.15.8-.29,1.2-.44.16-.03.29-.1.39-.24.36-.11.72-.21,1.09-.32,1.04-.08,2.11.1,3.11-.35,5.34-2.4,10.98-4.11,16.14-6.95,1.76-.97,3.65-1.71,5.44-2.61,1.99-.99,4.09-1.96,5.58-3.76,1.97-.17,3.31-1.83,5.18-2.24.04.85-.6,1.18-1.17,1.6-7.96,5.83-16.27,11.09-24.99,15.74-9.58,5.11-19.56,9.25-29.85,12.61-8.1,2.65-16.39,4.63-24.81,6.01-6.58,1.08-13.17,2.04-19.86,2.26-2.8.09-5.6.41-8.41.28-.1-.4-.23-.79-.73-.83-.65-.05-.8.4-.89.91Z"/><path d="M240.89,434.93c-.52-.05-1.03-.1-1.55-.15-.28-.42-.7-.48-1.15-.49-3.17-.06-6.28-.64-9.41-1.06-9.69-1.33-19.14-3.65-28.46-6.59-6.55-2.06-12.69-5.18-19.21-7.28-.18-.45-.59-.48-.99-.52-.28-1.12-1.22-1.33-2.14-1.53-1.35-.3-2.55-.92-3.7-1.67-.87-.58-1.62-1.38-2.72-1.55-1.42-.86-2.83-1.73-4.25-2.59-1.79-.84-3.25-2.31-5.26-2.69-.28-.56-.71-1.01-1.23-1.33-5.64-3.47-10.9-7.5-16.28-11.34-.26-.35-.47-.78-.8-1.03-3.32-2.46-6.38-5.22-9.23-8.2-.3-.32-.62-.63-.96-.9-.54-.42-1.02-.35-1.14.37-.24,1.56-.91,1.19-1.7.43-1.27-1.22-2.65-1.43-4.35-.84-1.21.42-2.5.77-3.87.65-1.62-.14-2.97.52-3.78,1.92-.57.99-1.34,1.24-2.4,1.24-3.66,0-7.32-.3-10.85,1.37-1.46.69-3.16.5-4.27-1.42-1.13-1.95-3.13-2.73-5.41-2.59-2.93-2.55-5.21-5.69-7.71-8.62-3.82-4.48-7.22-9.28-10.54-14.13-.35-.51-.78-.96-.78-1.63,2.82.23,5.6.5,7.54,3.01.68.88,1.86,1.04,2.86,1.17,1.95.26,3.72.97,5.51,1.67,1.31.51,2.58,1.04,4.04,1.07,1.27.02,2.34.67,3.27,1.51,1.46,1.31,2.58,1.6,4.19.57,1.35-.86,2.7-1.15,4.22-1.05.71.05,1.37-.19,2.06-.37,1.67-.42,3.09-.18,4,1.57.74,1.42,1.95,2.23,3.68,1.98.85-.12,1.48.39,2.18.76.9.48,1.35.16,1.14-.81-.15-.7-.2-1.38-.21-2.08,1.62.76,2.18,2.49,3.37,3.66,4.4,4.33,8.61,8.87,13.16,13.05,4.58,4.22,9.41,8.18,14.51,11.78,7.04,4.98,14.32,9.56,21.92,13.67,10.66,5.76,21.85,10.18,33.41,13.66,6.21,1.87,12.57,3.19,19.02,4.06,5.3.71,10.62,1.17,15.94,1.67,6.53.61,13.03.15,19.53.41,0,0,.02.02.02.02.95.98,2.21.27,3.28.59-2.31.96-4.71.3-7.07.35-1.93-.6-3.86-.78-5.76.12-1.17,1-2.29-.19-3.48-.08-1.72.16-3.5.14-5.2-.13-1.11-.18-2.05-.05-3.02.34Z"/><path d="M46.06,277.48c-.1.92-.67,1.21-1.49,1-.93-.23-1.52-.87-1.67-1.83-.11-.71.15-1.38.31-2.06.38-1.61-.23-2.48-1.84-2.88-2.37-.6-2.55-1.04-1.86-3.46.35-1.24,1.09-2.21,1.8-3.19,1.42-1.96,1.63-4.02.68-6.19-.9-2.05-1.32-4.05-.81-6.35.39-1.75.37-3.71-.79-5.36-.05-.07-.08-.16-.12-.24-.2-.48-.62-.97-.38-1.49,1.24-2.66-1.29-5.5.55-8.23,1.17-1.73,1.93-3.8,1-6.01-.22-.53-.06-1.04.21-1.52,1.57-2.79,1.85-5.83,1.73-8.93-.06-1.44.27-2.87.72-4.13.82-2.32.93-4.64.88-7.02-.02-.99-.01-1.94,1.06-2.5,1.18-.62,1.23-1.6.77-2.71-.28-.68-.43-1.44.1-2,.85-.9,1.32-1.77.77-3.04-.21-.49.1-1.03.65-1.3.63-.32,1.27-.62,1.87-.99,1.69-1.05,2.41-2.76,1.94-4.71-.43-1.77-.31-3.4.35-5.14,1.55-4.14,3.43-8.08,5.81-11.81,1.26-1.98,1.31-4.53,2.61-6.58.84-1.33,1.35-2.81,2.77-3.78.73-.5,1.54-1.41,1.37-2.44-.55-3.42,1.76-5.56,3.52-7.87,1.64-2.15,3.73-3.96,4.2-6.84.17-1.08,1.19-1.72,1.79-2.59,1.53-2.24,3.2-4.41,4.62-6.72,1.31-2.14,2.97-3.92,4.75-5.63.96-.92,1.64-2.04,2.39-3.12,1.96-2.8,4.14-5.45,6.23-8.15.59-.76,1.21-1.5,1.76-2.29,2.24-3.22,5.66-5.24,8.21-8.15.52-.59,1.31-.91,2.12-.99,2.38-.25,4.27-1.43,6.05-2.95,1.02-.87,2.13-2.03,3.65-.74-.95,1.37-2.14,2.51-3.46,3.5-2.09,1.57-3.9,3.42-5.55,5.42-1.89,1.16-3.6,2.57-4.94,4.32-.75.99-1.53,1.92-2.41,2.78-5.09,5-9.55,10.53-13.79,16.24-.54.7-1.1,1.38-1.61,2.09-5.18,7.23-9.97,14.69-14.25,22.5-5.18,9.45-9.41,19.28-12.87,29.47-3.57,10.5-6.24,21.2-8.02,32.16-1.18,7.29-1.87,14.61-2.37,21.94-.41,5.97-.08,11.99-.06,17.99,0,.46-.18,1.13.75,1.12.35-1.96.47-4,1.11-5.87.5-1.46.84-2.85.77-4.36.34,0,.68-.02,1.02-.02.39.65.67,1.34.6,2.12-1.03.91-.42,2.12-.58,3.19,0,.53,0,1.05.01,1.58-2.08,3.82-2.2,8.06-2.59,12.23-.02.86-.04,1.71-.06,2.57Z"/><path d="M105.35,115.43c1.66-2,3.46-3.85,5.55-5.42,1.31-.99,2.51-2.13,3.46-3.5,2.77-1.51,4.89-3.87,7.47-5.65,1.72-1.18,3.37-2.46,5.24-3.4,1.34-.17,2.63.16,3.86.57,3.29,1.09,6.72,1.75,9.44,4.32,1.3,1.24,3.06,2.28,5.21,2.06,1-.1,1.99.5,2.95.96,1.4.68,2.87.84,4.5.72,2.13-.16,3.71-1.54,5.67-1.96,1.91-.4.75.7.68,1.29,0,0,.01-.01.01-.01-.46,0-.89.08-1.07.6-2.26,2.06-4.95,3.55-7.34,5.44-3.63,2.87-7.22,5.78-10.82,8.7-.42.34-.84.62-1.39.65-.71-.83-1.63-1.15-2.7-1.09-.16-.02-.33-.03-.49-.05-.07-.99-.75-1.63-1.46-2.1-2.13-1.41-4.49-2.32-6.94-3.02-.24-.07-.52-.03-.78,0-3.48.47-6.36,1.96-8.88,4.5-2.29,2.3-4.17,4.98-6.66,7.09-.87.74-1.87,1.36-2.58,2.22-4,4.86-7.93,9.78-11.89,14.68-.54-.63-1.44-1.18-.07-1.95.58-.33,1.28-.92,1.41-1.51.48-2.17,2.24-3.47,3.4-5.12,2.05-2.92,3.98-5.98,6.63-8.47,1.13-1.07,2-2.44,2.91-3.72.67-.94.59-1.71-.59-2.33-1.98-1.04-3.41-2.73-4.74-4.49Z"/><path d="M372.9,303.94c.15.09.31.19.46.28.14.1.27.21.41.31,4.73,4.3,9.44,8.63,14.21,12.9,5.68,5.09,11.4,10.13,17.1,15.19.12.49.56.9.29,1.49-.99,2.15-1.9,4.33-2.97,6.44-.71,1.41-1.45,1.51-2.74.59-.5-.35-.94-.79-1.4-1.18-.04-.78-.57-1.25-1.07-1.76-7.32-7.39-14.78-14.64-21.83-22.3-6.15-6.67-12.94-12.73-19.02-19.5-4.99-5.56-10.05-11.07-15.04-16.64-2.99-3.34-6.05-6.61-8.79-10.17.05-.79.07-1.57-1.04-1.61l-2.1-2.66c0-.77.03-1.56-1.08-1.56h0c.02-.73-.33-1.07-1.05-1.07h0c.03-.79.05-1.56-1.05-1.6h0c.02-.78.03-1.56-1.07-1.58-1.38-.67-1.94-2.43-3.6-2.73-.39-.5-.78-1-1.17-1.5,0-.36,0-.73,0-1.09.34-.2.51-.5.36-.87-.27-.65-.3-1.24.44-1.53.78-.3,1.03.38,1.4.87.95,1.24,1.65,2.79,2.7,3.78,3.5,3.28,5.96,7.49,9.72,10.51.33.26.53.69.79,1.04,1.88,2.52,3.89,4.92,6.24,7.02.53.48,1.02,1,1.83.74l-.15.13s.16-.13.16-.13q-.02,1.63,1.7,1.61c.14,0,.23.08.27.2.15.15.3.31.45.46,0,0,.05.05.05.05.16.16.32.32.48.48,0,0,.04.04.04.04-.13,1.21.68,1.91,1.43,2.66,2.47,2.48,5.04,4.88,7.32,7.53.85.99,1.61,1.48,2.82,1.45,0,0,.06.06.06.06.84,2.77,2.88,4.43,5.33,5.71.14.07.35.01.52.02,0,0,.01.01.01.01.17.17.34.34.52.51,0,0,.01.01.01.01.09.27.27.44.55.5,0,0,0,0,0,0,.69,1.87,1.76,3.33,3.92,3.63.13-.02.23.02.3.13.52,1.64,1.48,2.81,3.28,3.11Z"/><path d="M357.45,112.21c-2.27-.99-4.16-2.6-6.14-4.01-4.24-3.02-8.67-5.71-13.18-8.27-10.52-5.97-21.55-10.83-33.09-14.44-8.65-2.71-17.46-4.68-26.42-6.14-11.82-1.92-23.7-1.71-35.58-1.45-4.07.09-8.19.61-12.26,1.31-3.36.58-6.75.98-10.09,1.67-.37.08-.68-.11-.93-.38.27-.42.69-.52,1.13-.54.64-.03.93-.4.99-1,.35,0,.7-.01,1.05-.02,1.85.64,2.55.45,3.73-1.04,2.14.22,4.18-.8,6.33-.52.56.64,1.34.68,1.88.25.98-.77,2.19-.53,3.16-.94,1.35-.57,2.65.45,3.78-.13,1.19-.61,2.27-.47,3.49-.33.89.1,2.2.6,2.55-.98.7.17,1.39.35,2.09.52,1.92.72,5,.72,6.89,0,.53,0,1.06,0,1.58,0,.89.75,1.77.77,2.65,0,2.31.07,4.67-.31,6.85.94.51.29,1.2.19,1.65-.37,2.96.74,5.98,1.08,8.98,1.55.4.62,1.02.51,1.62.47.88.05,1.8-.06,2.63.17,3.96,1.1,8.07,1.27,12.06,2.47,6.19,1.86,12.47,3.46,18.56,5.65,3.88,1.39,7.66,3.1,11.39,4.87,5.23,2.48,10.51,4.87,15.34,8.12.96.64,2.01,1.32,3.22,1.4.2-.6.04-.9-.25-1.11-.99-.73-1.98-1.46-2.99-2.15-6.38-4.39-13.03-8.32-19.8-12.1-8.18-4.56-16.74-8.22-25.49-11.43-10.57-3.88-21.48-6.57-32.59-8.36-3.88-.62-7.78-1.37-11.76-1.24-1.68-.66-3.44-.49-5.19-.56-.93-.04-1.95.34-2.75-.46,1.44-1.85,3.66-2.29,5.67-3.08.78-.31,1.32.27,1.84.75,1.49,1.39,3.23,1.98,5.29,1.78,2.35-.22,4.75.29,7.09-.34.29-.08.7.06,1,.21,2.19,1.15,4.66,1.54,6.86,2.63,1.33.66,2.64.86,4.07.38,1.31-.44,2.46-.19,3.76.44,1.66.81,3.45,1.85,5.5.94.29-.13.78-.14,1.03.01,1.89,1.17,4.36.59,6.14,2.06.26.22.64.42.96.41,3.89-.1,6.88,2.47,10.4,3.45,3.97,1.11,7.5,3.33,11.36,4.76,1.75.65,3.46,1.71,4.74,3.25.61.73,1.23,1.68,2.18,1.87,3.37.67,5.47,3.36,8.23,5,1.74,1.03,3.45,1.99,5.44,2.56,2.11.61,3.96,1.98,5.49,3.53,2.91,2.95,6.04,5.62,9.32,8.13.56.43,1.27.79,1.39,1.52.37,2.38,2.43,3.29,3.94,4.65,1.23,1.1,2.73,1.93,3.22,3.67Z"/><path d="M247.84,75.25c-.35,1.58-1.65,1.08-2.55.98-1.22-.14-2.3-.28-3.49.33-1.13.58-2.43-.45-3.78.13-.97.41-2.18.17-3.16.94-.54.43-1.33.39-1.88-.25.16-1.43-.59-2.05-1.9-2.35-3.33-.76-6.63-1.63-9.96-2.38-.66-.15-1.45-.13-2.08.1-1.13.4-2.25.37-3.39.34-1.25-.03-2.43.17-3.63.53-3.35,1.01-6.56,2.27-9.7,3.87-3.88,1.98-7.96,3.57-11.58,6.07-.5.34-1.16.41-1.2,1.18-.17,0-.35,0-.52.01-.68.02-1.04.37-1.06,1.06-.55.76-1.38.46-2.1.55-.69,0-1.04.36-1.08,1.04-1.72.09-2.73,1.61-4.24,2.12.03-.52-.05-1.1.43-1.46,1.92-1.43,4.21-2.41,5.49-4.6,2.18-.45,3.46-2.28,5.2-3.34,2.77-1.68,5.28-3.69,7.9-5.56.98-.7,2.43-1.19,2.08-2.71-.32-1.38-1.79-1.5-2.93-1.9-1.34-.47-1.45-.69-.51-1.64.45-.46.86-.86.9-1.53,3.66-.83,7.42-1.04,11.08-1.96,2.18-.55,4.51-.49,6.77-.7,4.28-.38,8.56-.74,12.86-.51-.12,1.1.42,1.7,1.35,2.27,2.76,1.71,5.64,3.08,8.75,4.02,1.58.48,3.31.96,4.08,2.58.81,1.7,2.17,2.39,3.84,2.78Z"/><path d="M144.55,396.13c5.38,3.85,10.63,7.87,16.28,11.34.52.32.95.77,1.23,1.33-1.05.04-2.16.21-3.08-.46-2.15-1.57-4.75-2.31-6.89-3.87-1.35-.98-2.68-1.21-4.15-.27-.66.43-1.49.63-2.09,1.11-2.1,1.67-4.85,2.06-6.98,3.66-.32.24-.85.4-1.24.34-1.94-.28-3.61.57-5.34,1.19-2.57.92-5.19,1.59-7.88,2.04-2.88-1.69-5.62-3.58-8.09-5.82-1.55-1.41-3.56-2.32-4.63-4.25,1.4-.03,2.74-.05,4.11-.67,2.32-1.06,4.81-1.7,7.41-1.45,1.48.14,2.27-.31,2.48-1.89.27-1.96,1.59-2.92,3.45-3.52,3.39-1.08,6.88-.71,10.32-.91.38-.02.81.29,1.17.53.73.49,1.42,1.02,2.12,1.55.62.48,1.21.74,1.81-.02Z"/><path d="M124.4,412.56c2.68-.46,5.31-1.13,7.88-2.04,1.73-.62,3.4-1.46,5.34-1.19.4.06.92-.1,1.24-.34,2.13-1.6,4.88-2,6.98-3.66.61-.48,1.43-.69,2.09-1.11,1.47-.94,2.8-.71,4.15.27,2.14,1.56,4.74,2.31,6.89,3.87.92.67,2.02.49,3.08.46,2.02.39,3.48,1.86,5.26,2.69-1.85,1.19-3.75,2.29-5.33,3.86-.26.26-.81.33-1.23.34-1.33.03-1.99.75-2.5,1.93-.77,1.75-1.55,2.21-3.3,1.62-2.64-.88-4.61.11-6.44,1.78-2.61,2.37-2.68,2.4-5.95.86-.4-.19-.77-.45-1.19-.56-1.26-.36-2.53-.68-3.72.23-4.4-2.28-8.37-5.21-12.45-7.99-.34-.23-.54-.66-.81-1Z"/><path d="M144.55,396.13c-.6.76-1.19.5-1.81.02-.69-.54-1.39-1.07-2.12-1.55-.35-.24-.79-.55-1.17-.53-3.45.19-6.93-.17-10.32.91-1.86.59-3.18,1.56-3.45,3.52-.21,1.58-1,2.03-2.48,1.89-2.6-.25-5.08.39-7.41,1.45-1.36.62-2.71.64-4.11.67-.55-.04-1.01-.26-1.38-.67-3.14-3.42-6.91-6.17-10.08-9.55-1.55-1.65-2.96-3.42-4.44-5.14,2.29-.13,4.29.64,5.41,2.59,1.11,1.92,2.81,2.11,4.27,1.42,3.53-1.67,7.18-1.36,10.85-1.37,1.05,0,1.82-.26,2.4-1.24.82-1.41,2.16-2.06,3.78-1.92,1.36.12,2.66-.23,3.87-.65,1.7-.59,3.08-.38,4.35.84.79.76,1.46,1.13,1.7-.43.11-.72.6-.79,1.14-.37.34.27.66.58.96.9,2.85,2.99,5.91,5.74,9.23,8.2.34.25.54.68.8,1.03Z"/><path d="M76.25,251.59c-.33-4.94.36-9.85.69-14.75.25-3.86.91-7.79,1.69-11.66,1.24-6.19,2.73-12.32,4.1-18.47,1.06-4.77,2.89-9.37,4.62-13.96,1.92-5.09,4.05-10.1,6.43-14.97,2.31-4.72,4.5-9.54,7.43-13.94,2.1-3.14,3.93-6.46,6.26-9.45.66-.85,1.15-1.78,1.07-2.91,2.19-2.16,3.67-4.88,5.65-7.22,3.63-4.27,7.16-8.63,10.94-12.77,1.77-1.95,3.41-4,5.16-5.96.71-.32,1.17-1.14,2.08-1.06.35.88-.94,1.74-.03,2.63-2.21,2.86-4.96,5.23-7.36,7.93-8.32,9.41-15.69,19.49-21.95,30.37-8.68,15.07-15.06,31.08-19.16,47.97-2.35,9.68-4.02,19.48-4.61,29.45-.13,2.2-.64,4.37-.35,6.59-.71.94-1.34,1.98-2.66,2.18Z"/><path d="M174.29,415.64c1.15.75,2.34,1.37,3.7,1.67.91.2,1.86.41,2.14,1.53-.67.24-1.83-.37-1.95.7-.09.77.74,1.29,1.57,1.47.08.02.17.03.26.04.03,1.03.76,1.46,1.57,1.8,1.28.54,2.32,1.38,3.22,2.41.02.69.38,1.04,1.07,1.05.17,0,.34.01.51.01.78,1.9,2.27,2.86,4.25,3.17h0c.06,1.06.83,1.06,1.59,1.06h0c.02.56.22,1.03.64,1.4,2.83,2.47,5.95,4.58,8.54,7.35.64.69,1.67,1,2.4,1.61,1.26,1.06,1.3,1.97.06,3.03-.65.56-1.17,1.04-1.04,1.95-4.62-.55-9.14-1.59-13.64-2.7-5.8-1.43-11.51-3.19-17.14-5.19-.8-.28-2.05-.35-1.87-1.45.2-1.18,1.45-.64,2.25-.69,2.53-.17,4.92-.54,6.29-3.08.44-.81,1.36-1.09,2.03-1.65,1.63-1.34,1.91-2.59.81-4.39-.81-1.33-1.75-2.51-3.12-3.48-1.75-1.24-3.16-3.02-4.59-4.67-.9-1.03-.63-2.12.45-2.96Z"/><path d="M159.38,105.42c.08-.58,1.23-1.69-.68-1.29-1.97.42-3.55,1.8-5.67,1.96-1.63.12-3.1-.04-4.5-.72-.96-.46-1.95-1.06-2.95-.96-2.16.22-3.91-.83-5.21-2.06-2.71-2.57-6.14-3.23-9.44-4.32-1.23-.41-2.52-.74-3.86-.57,2.21-2.24,5.01-3.66,7.61-5.33,1.8-1.15,3.55-2.47,5.63-3.14,1.84-.03,3.58.68,5.46.58,2.03-.11,3.94.68,5.82,1.38.76.28,1.44.75,1.79,1.48.91,1.92,1.9,3.74,3.87,4.81.27.15.43.55.59.86.99,1.91,2.48,2.85,4.7,2.57,1.04-.13,2.16-.16,2.69,1.09-1.69,1.64-3.87,2.49-5.85,3.67Z"/><path d="M165.22,101.75c-.54-1.25-1.65-1.22-2.69-1.09-2.23.28-3.71-.65-4.7-2.57-.16-.31-.32-.71-.59-.86-1.97-1.07-2.96-2.89-3.87-4.81-.35-.73-1.02-1.2-1.79-1.48-1.89-.7-3.8-1.49-5.82-1.38-1.88.1-3.62-.61-5.46-.58.22-.27.37-.66.65-.8,3.74-1.92,7.49-3.82,11.25-5.7,1.95-.98,3.88-2.03,5.9-2.87,2.95-1.23,5.81.27,6.59,3.42.45,1.81,1.49,3.13,2.83,4.31,1.33,1.17,2.2,2.57,1.86,4.4-.22,1.18-.74,2.39-1.33,3.35-.87,1.43-.61,2.17.57,3.01.34.24.57.65.85.98-1.14,1.33-2.72,1.96-4.25,2.66Z"/><path d="M102.69,294.48c-3.97,2.27-7.84,4.74-12.15,6.35-.57-.51.2-1.36-.54-1.88-1.06-.74-1.05-1.89-1.09-3.06-.05-1.55-.95-2.81-2.44-2.93-1.6-.13-1.9-.88-1.77-2.2,1.23-1.08,2.68-1.71,4.23-2.15,3.28,1.17,6.36.8,9.08-1.42.97-.79,1.94-1.44,3.14-1.84,1.41-.47,3-.86,4.06-1.81,1.56-1.4,3.33-2.21,5.19-3.01.64-.27,1.24-.68,1.77-1.12,2.7-2.26,6.06-3.1,9.24-4.31,1.29-.49,2.95.33,2.96,1.3,0,1.29-.14,2.44-1.49,3.35-1.53,1.02-3.01,2.28-3.74,4.12,0,0,0,0,0,0-.6.06-1.5-.12-1.76.21-1.09,1.37-2.78,1.71-4.11,2.66-3.25,2.31-6.23,5.04-9.91,6.71-.47.22-.59.59-.66,1.03Z"/><path d="M201.75,228.78c1.32.66,1.77,2.09,2.73,3.07-.46.91-1.16,1.57-2.11,1.89-1.35.46-2.46,1.23-3.55,2.16-1.23,1.06-3.04,1.42-3.73,3.17-.08.2-.64.19-.95.33-2.53,1.22-5.05,2.53-7.01,4.52-.88.89-1.76,1.81-2.84,2.24-1.63.66-3.06,1.67-4.69,2.33-1.3.53-2.68,1.04-3.64,2.39-.76,1.06-2.32,1.15-3.61,1-1.26-.15-2.21-1.28-1.77-2.16.73-1.44,1.07-3.17,2.45-4.22,1.71-1.31,2.81-3.24,4.68-4.43.63-.4,1.27-1.23,1.26-2.22,0,0,0,0,0,0,1.98-.14,2.76-1.48,3.17-3.18h0c1.94-.54,3.53-1.41,3.73-3.7.88-.36,1.75-.72,2.63-1.07.34-.03.99-.06.99-.1.01-2.04,1.62-2.25,3.02-2.52.8-.15,1.16-.56,1.61-1.14,1-1.33,1.76-1.4,2.95-.28,1.34,1.26,2.83,2,4.69,1.91Z"/><path d="M137.66,421.55c1.19-.91,2.46-.59,3.72-.23.41.12.79.38,1.19.56,3.27,1.55,3.34,1.51,5.95-.86,1.83-1.66,3.81-2.66,6.44-1.78,1.75.59,2.54.13,3.3-1.62.51-1.17,1.17-1.89,2.5-1.93.42,0,.96-.08,1.23-.34,1.57-1.58,3.48-2.68,5.33-3.86,1.42.86,2.83,1.73,4.25,2.59-.49.77-1.07.22-1.63.12-.52-.09-1.11-.13-1.39.44-.25.49-.17,1.03.12,1.52.04.08.09.15.16.21,2.14,1.86,1.38,3.9.79,6.23-.65,2.57-2.17,3.74-4.27,5.1-4.15,2.69-8.4,2.68-12.89,1.77-.43-.09-.86-.2-1.25-.39-4.63-2.3-9.33-4.47-13.54-7.53Z"/><path d="M199.11,66.77c-.03.67-.44,1.07-.9,1.53-.94.95-.83,1.17.51,1.64,1.13.4,2.61.52,2.93,1.9.35,1.52-1.1,2.01-2.08,2.71-2.62,1.87-5.13,3.88-7.9,5.56-1.75,1.06-3.02,2.9-5.2,3.34-1.28,2.2-3.58,3.17-5.49,4.6-.48.36-.4.94-.43,1.46-.43.02-.82.12-1.05.53-.66,0-1.17.33-1.58.81-.69.79-2.06.94-2.33,2.01-.36,1.38,1.88.78,1.85,2.08-1.46,1.48-3.55,1.74-5.27,2.74-.77-1.65-.82-2.83.85-4.32,1.74-1.57,3.44-3.23,5.13-4.87,1.51-1.45,3.47-2.78,3.68-5.39.09-1.15.09-1.96-.58-2.88-.67-.91-1.24-1.92-1.75-2.94-.6-1.21-1.27-2.3-2.6-2.84-.47-.19-1.03-.44-.99-1.09.04-.69.66-.73,1.15-.88,2.92-.91,5.77-2.03,8.8-2.68,3.75-.81,7.37-2.2,11.19-2.82.7-.11,1.38-.21,2.08-.2Z"/><path d="M178.98,238.86c.01.99-.63,1.82-1.26,2.22-1.87,1.18-2.97,3.12-4.68,4.43-1.38,1.06-1.71,2.78-2.45,4.22-.44.87.51,2.01,1.77,2.16,1.29.15,2.85.06,3.61-1,.96-1.34,2.33-1.86,3.64-2.39,1.63-.66,3.06-1.67,4.69-2.33,1.07-.43,1.96-1.35,2.84-2.24,1.97-2,4.48-3.31,7.01-4.52.31-.15.87-.13.95-.33.69-1.75,2.5-2.11,3.73-3.17,1.09-.93,2.2-1.7,3.55-2.16.95-.32,1.65-.99,2.11-1.89.89.25,1.4.83,1.54,1.74-3.56,2.72-7.44,4.97-11.18,7.42-7.28,4.75-14.65,9.36-21.98,14.03-.44.28-.93.49-1.4.73-.15.11-.29.22-.44.33-.17.08-.35.16-.52.24-1.08-.12-2.07.12-2.99.71-4.68,3.03-9.46,5.88-14.49,8.29-.69,0-1.03.36-1.09,1.03-1.51-.05-2.76.9-4.21,1.09-1.41-.18-.97-1.27-1.05-2.11.99-.58,2.22-.84,2.65-2.12,1.67.15,1.62-.99,1.59-2.11,1.91-.55,3.53-1.4,3.71-3.69.66-.05,1.03-.39,1.06-1.07.76-.02,1.53-.02,1.57-1.08h0c.66,0,1.02-.33,1.09-.99.87-.05,1.69-.2,2.08-1.13.18,0,.36,0,.54,0,2.24-.98,3.83-2.86,5.79-4.22,2.8-1.94,4.87-4.74,7.62-6.71,1.54-1.1,2.58-2.91,4.6-3.36Z"/><path d="M119.13,283.87c.73-1.84,2.21-3.1,3.74-4.12,1.35-.91,1.5-2.06,1.49-3.35,0-.97-1.67-1.79-2.96-1.3-3.18,1.21-6.54,2.05-9.24,4.31-.53.44-1.14.85-1.77,1.12-1.86.79-3.63,1.61-5.19,3.01-1.05.94-2.65,1.34-4.06,1.81-1.2.4-2.17,1.05-3.14,1.84-2.72,2.22-5.79,2.59-9.08,1.42,2.27-1.3,4.52-2.66,6.83-3.9,4.49-2.39,9.09-4.6,13.52-7.1,4.87-2.75,9.59-5.76,14.41-8.61,2.87-1.69,5.8-3.26,8.55-5.17.48-.34,1.13-.43,1.71-.63.7.83,1.57.5,2.43.38,1.6-.24,2.13.38,1.45,1.87-.93,2.05-1.64,4.24-3.57,5.7-.95.72-1.64,1.73-2.28,2.87.53.33,1.14.33,1.43.82-.19.18-.38.36-.57.55-.69-.17-1.38-.34-2.07-.52l-.12-.22-.1.1.22.12c0,.35,0,.7,0,1.05-1.07.21-1.69,1.16-2.63,1.59,0,.18,0,.36-.01.54-1.13.16-1.68,1.16-2.5,1.76-2.08,1.5-3.85,3.47-6.49,4.08Z"/><path d="M325.14,271.16c.72-.02,1.44.03,1.93.64,1.04,1.28,2.57,1.69,4.05,2.44.59-1.17.36-2.04-.27-3.01-.64-1-1.7-1.86-1.46-3.27.66.31,1.1.86,1.5,1.45.98,1.45,1.94,2.92,2.98,4.34,2.77,3.77,6.35,6.81,9.38,10.36,4.17,4.88,8.57,9.57,13.07,14.16,4.75,4.85,9.45,9.74,14.08,14.7,2.69,2.88,6.1,5.07,8.25,8.48-.11.52-.17,1.13-.96.8-.23-.1-.45-.29-.62-.49-2.27-2.6-5.08-4.6-7.56-6.96-5.22-4.96-10.58-9.78-15.85-14.7-2.89-2.7-5.75-5.44-8.57-8.21-4.97-4.88-9.83-9.86-14.8-14.75-1.89-1.86-3.52-3.91-5.15-5.98Z"/><path d="M247.84,75.25c-1.67-.39-3.03-1.09-3.84-2.78-.78-1.62-2.5-2.1-4.08-2.58-3.11-.93-6-2.3-8.75-4.02-.93-.58-1.47-1.18-1.35-2.27,4.24,0,8.47.01,12.71.02.81.8,1.83.43,2.75.47,1.74.07,3.51-.1,5.19.56.03.93.68,1.21,1.4,1.65,2.36,1.48,5.03,2.48,7.06,4.44,1.11,1.07,2.28,1.77,3.89,1.92,1.28.12,2.64.49,3.61,1.41.96.9,2.04,1.57,3.13,2.26-.45.56-1.14.66-1.65.37-2.17-1.25-4.53-.87-6.85-.94-.89-.78-1.77-.78-2.65,0-.53,0-1.06,0-1.58,0-1.91-.75-5-.75-6.89,0-.7-.17-1.39-.35-2.09-.52Z"/><path d="M133.41,274.83c-.29-.49-.9-.49-1.43-.82.64-1.14,1.32-2.15,2.28-2.87,1.94-1.46,2.64-3.65,3.57-5.7.67-1.49.15-2.1-1.45-1.87-.86.13-1.73.45-2.43-.38,1.85-2.06,4.39-3.14,6.65-4.59,6.92-4.44,13.93-8.76,20.87-13.18,3.77-2.4,7.46-4.92,11.21-7.34.83-.53,1.71-1.14,3.27-1.16-1.36,1.33-2.42,2.39-2.29,4.02-.32.03-.63.06-.95.09-.76-.09-1.14.25-1.14,1.02h0c-.81-.04-1.59-.06-1.59,1.08-.48.21-.82.56-1.06,1.02-2.24.41-3.96,1.48-4.75,3.74h0c-.8-.05-1.6-.1-1.59,1.06,0,0,0,0,0,0-1.9-.16-2.24,1.29-2.68,2.62-.17.18-.34.36-.52.54-.26.01-.66-.09-.77.05-.96,1.22-2.32,1.58-3.71,1.96-.48.13-.94.51-1.29.88-3.09,3.23-6.76,5.79-9.97,8.88-2.8,2.69-6.11,4.87-8.1,8.35-1.08.03-1.07.8-1.07,1.57-.26.11-.44.28-.47.58,0,.18-.02.35-.04.52-.19-.02-.37-.04-.56-.06Z"/><path d="M186.36,426.33c-.17,0-.34,0-.51-.01-.02-.7-.37-1.05-1.07-1.05-.9-1.03-1.94-1.87-3.22-2.41-.8-.34-1.54-.77-1.57-1.8.37-.56.74-1.12,1.11-1.69,6.53,2.1,12.67,5.22,19.21,7.28,9.32,2.93,18.77,5.26,28.46,6.59,3.13.43,6.24,1,9.41,1.06.45,0,.88.08,1.15.49-1.72,1.06-3.59.59-5.36.37-3.63-.44-7.25-1.3-10.85-1.68-5.17-.54-10.05-2.04-15.03-3.2-5.04-1.17-9.88-3.02-14.83-4.5-1.74-1.4-3.87-1.83-5.94-2.41-.25-.07-.53-.11-.71.15-.22.31-.21.65-.03.97.35.63.88,1.06,1.53,1.36.87.41,1.66.91,2.35,1.61,1.06,1.08,2.38,1.71,3.86,2.03.17,0,.34.02.51.02.57,2.24,2.28,2.64,4.25,2.63,0,0,0,0,0,0,.13,1.48,1.28,1.97,2.4,2.48.71.32,1.72.39,2.12.93,1.29,1.74,3.19,1.94,5.02,2.42.03.68.38,1.03,1.06,1.04,3.59,1.12,6.54,3.52,10,4.96,1.91.8,3.86,2.28,4.88,4.43-1.8-.4-3.63-.41-5.45-.38-1.41.02-2.78-.09-4.12-.55,0-.62-.13-1.17-.45-1.75-1.53-2.84-4.17-4.63-6.82-5.9-3.36-1.61-6.19-4.01-9.5-5.61-2.13-1.03-3.66-3.02-6.02-3.66,0,0,0,0,0,0-.29-.72-.82-1.07-1.59-1.05,0,0,0,0,0,0-.99-1.63-2.45-2.62-4.25-3.17Z"/><path d="M378.65,321.43c-2.14-3.41-5.55-5.6-8.25-8.48-4.63-4.96-9.33-9.85-14.08-14.7-4.49-4.58-8.9-9.28-13.07-14.16-3.03-3.55-6.62-6.59-9.38-10.36-1.04-1.41-2-2.88-2.98-4.34-.4-.59-.83-1.14-1.5-1.45-.17-.18-.33-.36-.5-.54-.2-1.3-1.14-1.99-2.14-2.64,0,0,0,0,0,0-.98-2.17-2.49-3.98-3.98-5.8-.54-.66-1.43-1.11-1.26-2.18,1.66.3,2.22,2.06,3.6,2.73.03.75.37,1.29,1.07,1.58,0,0,0,0,0,0,.01.75.36,1.29,1.05,1.59,0,0,0,0,0,0,.03.66.38,1.02,1.05,1.06,0,0,0,0,0,0,.02.75.39,1.27,1.08,1.56.7.89,1.4,1.77,2.1,2.66.02.75.37,1.28,1.04,1.61,2.74,3.56,5.8,6.83,8.79,10.17,4.99,5.57,10.04,11.07,15.04,16.64,6.08,6.77,12.86,12.83,19.02,19.5,7.06,7.65,14.51,14.91,21.83,22.3.5.5,1.03.98,1.07,1.76-.45,0-.89-.08-1.2-.43-2.32-2.6-5.17-4.64-7.45-7.3-2.04-2.37-4.32-4.55-6.65-6.65-1.49-1.34-2.53-3.13-4.31-4.16Z"/><path d="M192.2,430.56c2.36.64,3.88,2.63,6.02,3.66,3.31,1.6,6.14,4,9.5,5.61,2.66,1.27,5.29,3.07,6.82,5.9.31.58.44,1.13.45,1.75-4.13-.02-8.16-.78-12.18-1.57-.13-.91.38-1.39,1.04-1.95,1.24-1.06,1.2-1.98-.06-3.03-.73-.62-1.76-.93-2.4-1.61-2.58-2.76-5.71-4.88-8.54-7.35-.42-.37-.62-.84-.64-1.4Z"/><path d="M208.62,437.98c-1.82-.48-3.73-.68-5.02-2.42-.4-.54-1.4-.61-2.12-.93-1.12-.51-2.28-1-2.4-2.48.78,0,1.57-.09,2.28.43,3.29,2.39,7.16,3.67,10.78,5.38,2.31,1.09,4.76,2.13,7.3,2.89,4.12,1.23,8.03,3.05,11.08,6.29.34.36.33.79.4,1.22-2.12.3-4.24.16-6.36.07-1.01-2.15-2.96-3.64-4.87-4.43-3.46-1.44-6.41-3.84-10-4.96-.02-.69-.36-1.05-1.06-1.04Z"/><path d="M84.7,290.76c-.13,1.31.17,2.06,1.77,2.2,1.49.12,2.39,1.38,2.44,2.93.04,1.17.03,2.32,1.09,3.06.74.52-.03,1.37.54,1.88-1.16,1.07-2.67,1.53-4.04,2.23-.85.44-1.42.95-1.27,1.98-1.05-.4-2.1-.81-3.35-1.29.64-.46,1.43-.21,1.87-.76.65-.81-.12-1.25-.4-1.83-.45-.95-.16-1.63.71-2.21.63-.42,1.3-.94.85-1.93-.4-.87-1.1-1.02-1.94-.99-.87.03-1.75-.05-2.62.02-1.36.1-2.6-.14-3.63-1.1,2.41-1.87,5.11-3.19,7.98-4.18Z"/><path d="M168.93,244.16c.24-.46.58-.81,1.06-1.02.77,0,1.53-.04,1.59-1.09,0,0,0,0,0,0,.67-.01,1.03-.37,1.14-1.01.32-.03.63-.06.95-.09,1.01-.43,1.64-1.3,2.32-2.07,3.05-3.47,6.7-6.23,10.44-8.88.25-.18.68-.1,1.02-.14.35.35.7.7,1.05,1.05-.88.36-1.75.72-2.63,1.07-1.87.6-3.08,1.86-3.73,3.69,0,0,0,.01,0,.01-1.34.78-2.86,1.38-3.17,3.18,0,0,0,0,0,0-2.01.45-3.05,2.26-4.6,3.36-2.75,1.97-4.82,4.77-7.62,6.71-1.97,1.36-3.55,3.24-5.79,4.22,0-.37-.01-.74-.02-1.11.66-.97,1.34-1.93,1.64-3.09,0,0,0,0,0,0,.77.01,1.52-.01,1.59-1.06,0,0,0,0,0,0,2.25-.4,3.69-1.82,4.75-3.74Z"/><path d="M188.5,230.91c-.35-.35-.7-.7-1.05-1.05.11-1.04.46-1.79,1.51-2.37,1.81-1,3.48-2.28,5.18-3.48,2.09-1.48,3.22-1.48,4.57.63.94,1.46,2.69,2.29,3.05,4.14-1.86.09-3.36-.66-4.69-1.91-1.19-1.12-1.94-1.05-2.95.28-.44.58-.81.99-1.61,1.14-1.4.27-3.01.48-3.02,2.52,0,.03-.65.07-.99.1Z"/><path d="M54.54,270.66c-.11-1.2.16-2.06,1.28-2.9,1.68-1.25,3.52-2.39,4.82-4.07,2.37-3.08,6.07-4.46,8.8-7.07.4-.38,1-.28,1.53-.26-.65,1.51-2.09,2.29-3.22,3.31-3.87,3.5-7.87,6.87-11.81,10.3-.41.35-.84.62-1.38.69Z"/><path d="M459.63,244.67c.98.42,1.1,1.25,1.09,2.19-.01,5.81.21,11.63-.11,17.43-.15,2.7-.4,5.41-.43,8.12,0,.54-.06,1.06-.56,1.4-.81-.81-.49-1.84-.47-2.76.19-6.49.72-12.97.49-19.47-.06-1.66.15-3.33-.43-4.96-.22-.63-.24-1.41.41-1.95Z"/><path d="M46.06,277.48c.02-.86.04-1.71.06-2.57.33-.12.81-.2.81-.58.04-2.21,1.02-4.28,1.07-6.45.04-1.56.45-2.88,1.23-4.15,1.06,1.95.5,3.88-.09,5.8-.15.5-.44.95-.63,1.44-.66,1.73-.57,1.88,1.42,2.32.37.08.64.24.87.52-1.2,1.72-2.71,3.04-4.75,3.66Z"/><path d="M345.29,409.91c-1.87.41-3.21,2.06-5.18,2.24,0,0-.18-.18-.18-.18l.83-1.43c.27-.03.53-.07.8-.11.78.03,1.31-.36,1.66-1.03,3.16-1.96,6.32-3.93,9.49-5.89.08.95-.24,1.75-1.01,2.3-1.69,1.21-3.08,2.87-5.14,3.56-.51-.02-1.02-.03-1.28.54h.02Z"/><path d="M51.91,307.2c-.03,2.08,1.28,3.81,1.48,5.83-1.87-.67-2.42-2.67-3.83-3.81-.37-.3-.2-.84.2-1.14.63-.48,1.31-.89,2.16-.87Z"/><path d="M70.96,256.36c.43-2.58,2.4-4.35,5.29-4.77-1.12,2.3-3.25,3.48-5.29,4.77Z"/><path d="M458.1,285.46c.73.62.57,1.47.44,2.21-.19,1.12-.52,2.21-.55,3.36-.01.52-.47.69-.92.79-.07-2.19.31-4.3,1.02-6.36Z"/><path d="M456.54,216.59c1.29,1.16,1.72,3.43,1.01,5.31-.76-1.69-.95-3.49-1.01-5.31Z"/><path d="M458.64,233.02c.33.09.79.14.83.51.17,1.43.6,2.89-.3,4.25-1.05-1.49-.4-3.17-.53-4.77Z"/><path d="M459.62,275.87c0,.67.01,1.34.03,2.01.01.68-.28,1.12-.98,1.23.24-1.1-.86-2.6.95-3.24Z"/><path d="M451.68,318.78c-.05,1.43.19,2.97-1.48,3.77.53-1.24,0-2.9,1.48-3.77Z"/><path d="M457.6,224.01c1.41.43,1.16,1.23.48,2.13-.78-.57-.48-1.39-.48-2.13Z"/><path d="M457.05,292.88c.65.9.89,1.71-.5,2.13,0-.75-.31-1.57.5-2.13Z"/><path d="M458.62,281.22c.66.89.9,1.69-.47,2.13-.03-.75-.32-1.56.47-2.13Z"/><path d="M456.51,296.05c.77.82.6,1.35-.49,1.6-.06-.6-.17-1.22.49-1.6Z"/><path d="M455.46,301.88c.76.82.59,1.35-.5,1.6-.05-.6-.16-1.22.5-1.6Z"/><path d="M234.56,448.49c.09-.51.25-.96.89-.91.51.04.63.43.73.83-.53.19-1.08.18-1.63.08Z"/><path d="M455.48,211.3c1.11.25,1.28.78.48,1.6-.63-.39-.53-1.01-.48-1.6Z"/><path d="M458.16,229.83c1.08.28,1.24.82.44,1.61-.62-.41-.53-1.01-.44-1.61Z"/><path d="M455.99,298.7c.75.81.59,1.35-.48,1.6-.07-.6-.18-1.22.48-1.6Z"/><path d="M452.8,313.53c.77.77.16.93-.48,1.08-.06-.46.03-.85.48-1.08Z"/><path d="M454.92,304.53c.76.77.16.93-.48,1.08-.07-.46.02-.85.48-1.08Z"/><path d="M454.41,306.65c.74.76.15.93-.48,1.07-.08-.46.02-.85.48-1.07Z"/><path d="M345.27,409.92c.26-.57.77-.56,1.28-.54-.36.35-.72.68-1.28.54Z"/><path d="M343.82,275.77c-.81.25-1.3-.27-1.83-.74-2.35-2.1-4.36-4.51-6.24-7.02-.26-.35-.46-.77-.79-1.04-3.76-3.02-6.22-7.23-9.72-10.51-1.06-.99-1.75-2.54-2.7-3.78-.37-.48-.62-1.17-1.4-.87-.74.29-.71.88-.44,1.53.15.36-.02.67-.36.87-3.85-5.2-7.84-10.28-11.81-15.39-4.5-5.78-8.69-11.79-13.19-17.57-1.25-1.61-2.1-3.64-4.04-4.67v-.02c-.16-1.43-.42-2.78-2.12-3.17-.67-2.42-2.47-4.1-3.89-6.03-1.83-2.5-3.67-4.99-5.53-7.47-.12-.16-.48-.13-.73-.19-.17-.18-.33-.37-.5-.55,0-.36,0-.72,0-1.07.21-.25.42-.51.63-.76,3.06,3.71,6.2,7.37,9.17,11.15,10.06,12.78,20.24,25.46,30.66,37.95,7.15,8.57,14.4,17.06,21.75,25.48,1.08,1.24,2.64,2.12,3.09,3.87Z"/><path d="M243.61,154.62c0-.16-.02-.33-.04-.49-1.12-1.54-2.24-3.07-3.36-4.61-.47-.65-1-1.21-1.87-1.28,0-.16-.02-.32-.04-.49,0-.77-.35-1.3-1.06-1.59,0,0,0,0,0,0-.4-1.46-1.24-2.55-2.62-3.2-2.11-2.73-4.05-5.63-6.4-8.13-1.99-2.11-3.61-4.42-5.07-6.87-.83-1.39-2.68-2.04-2.75-3.94,2.47.39,3.86,2.1,5.29,3.98,7.03,9.24,14.16,18.41,21.26,27.6.38.49.85.91.91,1.57-.03.72.27,1.16,1.03,1.19.18.21.37.42.55.63,0,.15-.02.3-.05.45-.69-.02-1.38-.03-2.07-.05-.01-.16-.03-.32-.05-.49-.02-1.09-.71-1.67-1.59-2.11-.16-.02-.32-.04-.48-.05.02-1.12-.28-2-1.6-2.12Z"/><path d="M179.49,90.04c.23-.41.62-.51,1.05-.53,1.51-.51,2.52-2.03,4.24-2.12,0,.18,0,.35,0,.53-.12.81-1.35.85-1.32,1.76.4.41.92.5,1.25.27,1.19-.81,2.61-.97,3.89-1.52,3.2-1.39,6.45-2.65,9.72-3.86,3.96-1.46,8.12-2.15,12.14-3.36,1.94-.59,3.95-1.63,6.15-1.18.04,1.14-1.3.79-1.63,1.53-.33.02-.66.05-.99.07-1.21-.14-2.27.25-3.23.94-.32.05-.64.1-.96.16-1.01-.04-1.89.33-2.73.84-.33.07-.67.13-1,.2-.48-.1-.89-.03-1.15.44-.31.04-.61.08-.92.12-3,.64-5.95,1.44-8.62,3.02-.31.05-.62.09-.93.14-.32-.01-.54.14-.66.43-.14.06-.3.08-.45.07-.89-.04-1.62.29-2.2.97-.3.05-.6.1-.9.15-.33-.02-.55.14-.68.44-.13.06-.27.08-.42.06-.31-.01-.53.13-.66.41-.3.05-.6.09-.9.14-.33,0-.55.16-.67.47-.12.07-.24.09-.38.08-.33-.03-.55.12-.69.41-.13.06-.26.09-.41.09-.31,0-.52.14-.66.42-.28.07-.56.14-.85.21-.35-.06-.58.08-.72.4-.93.8-2.02,1.25-3.23,1.45-1.63-1.01-1.62-1-.78-2.63.15-.3.19-.66.29-.99Z"/><path d="M132.34,127.11c-.91-.89.38-1.75.03-2.63.08-.69,1.5-1.22.57-1.9-.76-.55-1.47-1.54-2.68-1.3-.23-2.04-2.18-1.82-3.39-2.35-2.34-1.02-5.51.51-6.71,2.89-.62,1.03-1.69,1.5-2.64,2.13-.36,0-.71,0-1.07-.01-.02-.18-.03-.37-.05-.55.31-1.34.92-2.46,2.18-3.14,1.25-.16,1.94-.88,2.13-2.11,2.75-1.28,5.64-.83,8.34-.2,2.17.5,4.32,1.22,6.5,1.72.16.01.33.03.49.05-.46,1.39-.66,2.82-.49,4.28-.97,1.15-1.94,2.31-3.24,3.12Z"/><path d="M279.16,197.32c-.21.25-.42.51-.63.76-.34,0-.68,0-1.02,0-.51-1.19-1.75-1.88-2.15-3.15,0-.69-.34-1.06-1.03-1.08-.37-.52-.74-1.04-1.12-1.55.04-.79-.3-1.33-1.05-1.59-.36-.7-.89-1.23-1.59-1.59.2-1.55-.86-1.92-2.04-2.19-.02-.16-.04-.32-.06-.48.02-.69-.33-1.05-1.01-1.1-.03-.32-.05-.63-.08-.95.04-1.06-.49-1.59-1.52-1.67-.03-.16-.04-.32-.05-.48.08-.74-.45-1.2-.78-1.77-.25-.44-.86-.92-.19-1.5,2.2,2.03,3.8,4.55,5.66,6.87,2.41,3,4.76,6.05,7.14,9.07.59.75,1.29,1.43,1.52,2.4Z"/><path d="M264.83,178.97c-.67.58-.06,1.07.19,1.5.32.57.86,1.02.78,1.77-1.05-.08-1.52-.86-1.8-1.69-.81-2.37-3.15-3.66-4.05-5.95-3.07-1.5-3.12-5.58-6.12-7.15-.11-.06-.16-.32-.16-.48.06-1.18-1.05-1.52-1.6-2.26,0-.7-.01-1.39-.02-2.09l.04-.04c3.24,3.47,5.94,7.39,8.88,11.11,1.35,1.71,2.92,3.28,3.87,5.3Z"/><path d="M358.4,290.26c-1.21.04-1.97-.45-2.82-1.45-2.28-2.65-4.85-5.05-7.32-7.53-.75-.75-1.56-1.45-1.43-2.66,4.08,3.66,7.92,7.55,11.57,11.64Z"/><path d="M179.49,90.04c-.09.33-.13.69-.29.99-.84,1.63-.85,1.62.78,2.63-.68.77-1.67.93-2.57,1.27.04-1.3-2.2-.7-1.85-2.07.28-1.07,1.64-1.22,2.33-2.01.42-.47.92-.8,1.58-.81Z"/><path d="M135.58,123.98c-.17-1.46.02-2.89.49-4.28,1.07-.06,1.99.26,2.7,1.09-.71,1.42-1.72,2.53-3.19,3.19Z"/><path d="M247.32,159.39c.69.02,1.38.03,2.07.05.15-.03.29-.05.44-.09.09.12.12.25.11.4.06.38.26.66.59.85,0,0-.05.11-.05.11,0,.62.01,1.24.02,1.86,0,.36-.02.72-.03,1.08-2.21-.56-2.26-2.73-3.15-4.26Z"/><path d="M364.31,296.05c-.18,0-.38.05-.52-.02-2.45-1.27-4.49-2.94-5.33-5.71,2.13,1.73,4.21,3.5,5.85,5.73Z"/><path d="M195.38,87.35c2.67-1.58,5.62-2.38,8.62-3.02-.09.15-.14.39-.26.44-2.71,1.1-5.39,2.3-8.35,2.59Z"/><path d="M369.32,300.7c-2.15-.29-3.23-1.75-3.92-3.63,1.8.68,2.83,2.18,3.92,3.63Z"/><path d="M214.98,81.56c.33-.73,1.67-.39,1.63-1.53.51,0,1.02,0,1.54,0,.2.18.4.35.6.53-1.03,1.19-2.29,1.49-3.77.99Z"/><path d="M372.9,303.94c-1.8-.29-2.76-1.47-3.28-3.11,1.51.59,2.42,1.82,3.28,3.11Z"/><path d="M218.75,80.57c-.2-.18-.4-.35-.6-.53.98-1.28,2.37-1.13,3.73-1.09-.06.6-.34.97-.99,1-.45.02-.87.12-1.13.54-.34.03-.67.05-1.01.08Z"/><path d="M210.76,82.56c.97-.69,2.03-1.07,3.23-.94-.8,1.28-1.97,1.28-3.23.94Z"/><path d="M207.07,83.56c.84-.51,1.72-.88,2.73-.84-.64,1.16-1.66,1.07-2.73.84Z"/><path d="M345.53,277.39q-1.72.02-1.7-1.61c.83.26,1.33.87,1.7,1.61Z"/><path d="M250.5,162.57c0-.62-.01-1.24-.02-1.86.66.5,1.38.96,1.6,1.85,0,0-.04.04-.04.04-.52-.01-1.03-.02-1.55-.03Z"/><path d="M191.15,88.95c.58-.67,1.3-1.01,2.2-.97-.39,1.1-1.34.92-2.2.97Z"/><path d="M204.92,84.2c.25-.48.67-.54,1.15-.44-.27.44-.41,1.22-1.15.44Z"/><path d="M248.88,158.36c-.76-.03-1.06-.47-1.03-1.19.43.32.85.65,1.03,1.19Z"/><path d="M158.33,106.01c.18-.52.6-.59,1.07-.6-.24.41-.64.53-1.07.6Z"/><path d="M184.79,91.61c.13-.28.35-.42.66-.42-.22.14-.44.28-.66.42Z"/><path d="M185.85,91.1c.14-.29.36-.43.69-.41-.23.14-.46.27-.69.41Z"/><path d="M186.93,90.62c.12-.3.33-.47.67-.47-.22.16-.44.31-.67.47Z"/><path d="M188.5,90.02c.13-.28.34-.42.66-.41-.22.14-.44.28-.66.41Z"/><path d="M189.57,89.54c.13-.3.35-.46.68-.44-.23.15-.45.29-.68.44Z"/><path d="M193.8,87.92c.13-.29.34-.44.66-.43-.22.14-.44.28-.66.43Z"/><path d="M365.41,297.09c-.28-.06-.47-.22-.55-.5.3.04.47.22.55.5Z"/><path d="M373.77,304.54c-.14-.1-.27-.21-.41-.31.26-.05.36.09.41.31Z"/><path d="M364.84,296.57c-.17-.17-.34-.34-.52-.51.3.04.47.22.52.51Z"/><path d="M249.83,159.35c-.15.03-.29.06-.44.09.03-.15.04-.3.05-.45.13.12.26.24.4.36Z"/><path d="M250.53,160.61c-.33-.19-.53-.47-.59-.85.2.28.39.57.59.85Z"/><path d="M346.25,278.06c-.15-.16-.3-.31-.45-.46.27.04.42.2.45.46Z"/><path d="M183.22,92.21c.14-.32.37-.46.72-.4-.24.13-.48.27-.72.4Z"/><path d="M346.78,278.59c-.16-.16-.32-.32-.48-.48.28.04.44.2.48.48Z"/><path d="M133.97,274.9c.02-.17.03-.35.04-.53.15,0,.3-.02.45-.02.45,0,.85-.11,1.09-.54q2.35-1.58,3.68-1.61c.26,1.36.96,1.13,1.86.57,2.1-1.32,3.91-3.05,6.15-4.16.4-.2.45-.71.49-1.15,1.45-.19,2.7-1.13,4.21-1.09.71.02,1.06-.33,1.09-1.03,5.03-2.41,9.82-5.25,14.49-8.29.91-.59,1.91-.83,2.99-.71-3.09,2.5-6.61,4.35-9.97,6.42-5.85,3.6-11.72,7.18-17.64,10.65-3.77,2.21-7.56,4.42-11.59,6.17-.23-.54-.62-1.05.09-1.6.64-.5.93-1.23.97-2.05.18,0,.35,0,.53,0,.69.01,1.05-.33,1.09-1.02Z"/><path d="M302.94,428.09c-.33.04-.66.07-.99.11-.29-.13-.48,0-.63.23-1.84.3-3.61.81-5.32,1.55-.33.07-.67.14-1,.21-.77-.3-1.43.39-2.18.23-.39-.56-1.29-.25-1.6-.94,5.97-1.4,11.91-2.96,17.72-4.92,8.67-2.92,17.07-6.48,25.2-10.68.92-.48,1.78-1.16,2.91-1.13-.53,1.13-1.66,1.52-2.63,2.05-5.48,2.95-11.17,5.44-16.89,7.87-2.55,1.09-5.36,1.55-7.69,3.15-.36.11-.72.21-1.08.32-.27-.15-.39-.05-.39.24-.4.15-.8.29-1.2.44-.22-.29-.36-.24-.42.11-.21.04-.43.07-.64.11-.56-.14-1.1-.18-1.47.4l-.72.14c-.4-.11-.71,0-.91.37,0,0-.05.15-.05.15Z"/><path d="M132.35,275.92c-.04.82-.33,1.55-.97,2.05-.7.55-.32,1.05-.09,1.6-4.48,2.88-9,5.67-14.24,7-.08-.76.42-1.08.99-1.37.56-.28,1.08-.59,1.09-1.33,0,0,0,0,0,0,2.64-.61,4.41-2.57,6.49-4.08.82-.6,1.37-1.6,2.5-1.76.4-.04.84.11,1.17-.26-.32-.38-.76-.23-1.15-.28.94-.43,1.56-1.38,2.63-1.59.53,0,1.06,0,1.59,0Z"/><path d="M309.83,425.82c2.33-1.61,5.14-2.07,7.69-3.15,5.72-2.43,11.41-4.92,16.89-7.87.98-.53,2.11-.92,2.63-2.05.27-.06.53-.13.8-.2.78.11,1.35-.54,2.08-.58,0,0,.18.18.18.18-1.48,1.8-3.59,2.77-5.58,3.77-1.79.9-3.68,1.64-5.44,2.61-5.16,2.84-10.8,4.55-16.14,6.95-1,.45-2.07.27-3.11.35Z"/><path d="M262.11,433.72c.29-.37.69-.54,1.15-.51,4.56.24,9.03-.72,13.54-1.14,3.54-.33,7.05-1.07,10.55-1.76.96-.19,1.9-.26,2.85-.32-.19.44-.61.48-.99.62-.37.13-.18.35.01.52-.31.15-.6.39-.93.44-3.03.55-6.04,1.21-9.09,1.56-3.4.39-6.76,1.18-10.21,1.08-.45-.55-1.07-.48-1.67-.48-1.73,0-3.45,0-5.18,0l-.02-.02Z"/><path d="M119.13,283.87c0,.74-.52,1.05-1.09,1.33-.57.28-1.07.61-.99,1.37,0,0-.02-.03-.02-.03-.62-.04-1.14.24-1.63.56-.45.29-.44.65-.02.98-4.05,2.5-8.29,4.61-12.7,6.41.07-.44.18-.82.66-1.03,3.68-1.67,6.66-4.4,9.91-6.71,1.33-.95,3.02-1.29,4.11-2.66.26-.33,1.16-.15,1.76-.21Z"/><path d="M289.21,431.13c-.2-.17-.38-.39-.01-.52.39-.14.8-.19.99-.62.23-.41.61-.49,1.03-.5.31.69,1.21.38,1.6.94-.52.24-1.22.06-1.56.71-.34.05-.68.09-1.03.14-.34-.05-.68-.1-1.02-.15Z"/><path d="M95.83,333.12c-1.2-.73-1.6-1.86-1.6-3.2,1.19.73,1.58,1.87,1.6,3.2Z"/><path d="M339.93,411.97c-.74.04-1.3.69-2.08.58.36-1.55,1.75-1.61,2.91-2.01-.28.48-.55.95-.83,1.43Z"/><path d="M121.25,371.77c-1.55.14-1.94-.89-2.12-2.12,1.27.14,1.45,1.38,2.12,2.12Z"/><path d="M115.39,288.07c-.42-.34-.44-.69.02-.98.49-.31,1.01-.6,1.63-.56.01,1.11-.97,1.17-1.65,1.54Z"/><path d="M343.21,409.41c-.35.67-.87,1.06-1.66,1.03.07-1.13.85-1.09,1.66-1.03Z"/><path d="M91.59,324.12c-.62-.39-.51-1.03-.54-1.62.63.39.51,1.03.54,1.62Z"/><path d="M93.71,328.88c-.63-.38-.51-1.02-.54-1.61.61.39.53,1.02.54,1.61Z"/><path d="M96.89,335.24c-.45-.22-.53-.64-.54-1.08.43.23.53.64.54,1.08Z"/><path d="M119.13,369.65c-.44-.22-.53-.62-.53-1.06.43.22.53.62.53,1.06Z"/><path d="M92.12,325.18c-.44-.23-.53-.64-.54-1.08.46.22.54.63.54,1.08Z"/><path d="M92.66,326.27c-.42-.26-.54-.66-.54-1.11.5.22.52.66.54,1.11Z"/><path d="M94.24,329.95c-.44-.23-.54-.63-.54-1.08.47.21.53.63.54,1.08Z"/><path d="M96.36,334.18c-.46-.22-.53-.63-.54-1.08.44.23.53.64.54,1.08Z"/><path d="M97.42,336.3c-.47-.21-.53-.63-.54-1.08.43.23.54.63.54,1.08Z"/><path d="M97.95,337.36c-.47-.21-.54-.63-.54-1.08.44.23.54.63.54,1.08Z"/><path d="M98.48,338.42c-.46-.22-.54-.63-.54-1.08.44.23.54.63.54,1.08Z"/><path d="M99.01,339.48c-.44-.23-.54-.63-.54-1.08.44.23.53.64.54,1.08Z"/><path d="M99.59,340.54c-.5-.19-.58-.62-.6-1.08.45.22.52.65.6,1.08Z"/><path d="M118.6,368.59c-.18-.19-.35-.37-.53-.56.18.19.35.37.53.56Z"/><path d="M93.19,327.3c-.29-.09-.46-.3-.55-.59.18.2.37.39.55.59Z"/><path d="M171.02,256.1c.15-.11.29-.22.44-.33-.05.23-.18.37-.44.33Z"/><path d="M130.29,125.53c-1.74,1.97-3.38,4.02-5.16,5.96-3.78,4.14-7.31,8.5-10.94,12.77-1.99,2.34-3.46,5.06-5.65,7.22-3.15-.2-5.34,1.95-7.79,3.36-.92.53-1.83,1.04-2.84,1.27-.94.21-1.76-.49-1.42-1.33.57-1.39-.19-2.58-.16-3.85.27-1.95,1.77-3.16,2.85-4.6,3.91-5.22,7.96-10.32,12.52-14.99,1.02.03,1.54-.75,2.16-1.36,2.05-2.03,4.12-4.04,6.39-5.83,2.74-2.16,5.97-2.16,9.2-1.78,1.04.12,1.61.78.76,1.85-.37.47-.56.9.08,1.3Z"/><path d="M73.25,186.43c1.04.23.86.89.59,1.62-.85,2.21-1.58,4.47-2.56,6.62-.73,1.61-1.36,3.25-1.81,4.94-.84,3.15-2.01,6.13-3.43,9.06-.75,1.54-.52,3.43-1.44,4.98-.31.52-.37,1.2-.73,1.68-1.95,2.63-2.26,5.8-3.07,8.82-.45,1.67-1.07,3.41-2.07,4.78-1.37,1.88-1.97,3.99-2.02,6.12-.06,2.73-1.42,5.05-1.84,7.64-.11.68-.78.9-1.44.92-.02-.43-.1-.82-.52-1.05-.02-.54-.05-1.09-.07-1.63.03-.34.06-.68.09-1.01.66-.38.55-1,.5-1.61,0,0,.04.03.04.03,1.66-.76,1.18-2.42,1.57-3.72.02-.33.04-.67.05-1,1.6-.42.79-1.75,1.03-2.69.72-.6.5-1.4.46-2.16.02-.34.04-.68.07-1.02,1.42-.19.94-1.3,1.04-2.13-.15-.94.5-1.72.57-2.62,1.1-.23,1.31-.75.55-1.61-.03-.59.29-1.05.53-1.54,1.38-1.04,2.26-2.41,2.62-4.08.16-.76.98-1.56-.02-2.33-.06-.91,1.14-1.19,1.04-2.12.45-.23.54-.63.5-1.08.01-.45-.07-.85-.55-1.04.06-.49.12-.99.17-1.48.41-.07.78-.19.99-.59.67-.09,1.03-.42.94-1.13.01-.34.03-.68.04-1.02.65-.37.56-1,.57-1.6.03-.79-.12-1.68.43-2.29,1.46-1.63,1.29-3.71,1.71-5.63.04-.14.07-.29.09-.44.32-.03.64-.06.96-.09.77-.06,1.41-.39,1.49-1.2.11-1.05.74-1.97.63-3.05.75-1.33,1.8-2.55,1.58-4.24h0c.24,0,.49,0,.73,0Z"/><path d="M111.71,131.35c-4.57,4.67-8.61,9.77-12.52,14.99-1.08,1.44-2.58,2.64-2.85,4.6-.59.03-.92.39-1.23.86-3.05,4.57-6.41,8.91-8.86,13.9-1.77,3.61-3.81,7.11-5.57,10.74-.76,1.56-2.21,2.72-2.6,4.53-.12.54-.77.67-1.32.7,0-.37,0-.73-.01-1.1.84-.73.42-1.73.55-2.61.02-.16.03-.33.02-.49,1.55-.53,1.71-1.94,2.05-3.24.7-.53.99-1.26,1.04-2.11.9-.65,1.14-1.59,1.13-2.63h0c1.07-.08,1.06-.83,1.01-1.61.02-.17.04-.34.04-.51.31-.14.78-.2.89-.44,1.44-2.86,3.63-5.34,4.44-8.53,1.35-.91,1.33-2.78,2.61-3.75.05-.43.16-.82.6-1.03,1.18.07,1.65-.51,1.5-1.65,0-.17.02-.33.04-.5,2.15-.33,2.2-2.41,3.13-3.76,0-.16.01-.33.03-.49.8-.23,1.98-.19,1.08-1.58.01-.44.13-.83.56-1.04,1.21.09,1.88-.63,2.58-1.52,1.82-2.33,3.17-5.03,5.53-6.93.87-.7.9-1.66.87-2.65.36-.36.72-.72,1.08-1.08.95.07,1.69-.29,2.25-1.05.31-.42.27-.79-.17-1.09.03-.61-.05-1.37.54-1.67,1.47-.75,2.56-2.11,4.18-2.6.54,0,1.08.01,1.62.02-.7,1.31-1.95,2.13-2.91,3.21-.56.63-1.33,1.12-1.31,2.1Z"/><path d="M49.27,257.91c.07-.78-.21-1.47-.6-2.12.59-.36.7-1.07,1.12-1.56,1.8-1.18,1.91-1.73.5-2.68-.02-.36-.04-.72-.06-1.08l.07.05c1.06-.07,1.3-.77,1.62-1.67.42-1.2.1-2.59,1-3.64.6.43.56,1.02.43,1.64-.58,2.78-1.14,5.57-1.74,8.35-.09.42-.31.83-.15,1.26.64,1.64-.34,2.2-1.66,2.54-.06-.42-.11-.84-.52-1.09Z"/><path d="M49.23,263.74c-.78,1.28-1.19,2.59-1.23,4.15-.06,2.17-1.04,4.23-1.07,6.45,0,.38-.49.46-.81.58.39-4.18.51-8.41,2.59-12.23.2,0,.4,0,.6,0-.02.35-.05.71-.07,1.06Z"/><path d="M52.92,245.21c-.9,1.05-.57,2.44-1,3.64-.32.9-.56,1.6-1.62,1.67,0-.36-.02-.72-.02-1.08.6-.99,1.54-1.92.51-3.17.6-1.16,1.56-2.21,1.12-3.69l1.01-.02c.43.22.5.62.52,1.05-.17.53-.35,1.07-.52,1.6Z"/><path d="M73.25,186.43c-.24,0-.49,0-.73,0,.01-2.33.75-4.34,2.61-5.85.05.55.1,1.1.15,1.66-.08.5-.15,1.01-.23,1.51-.77.01-1.48.09-1.46,1.13.04.36.07.72.11,1.08-.23.08-.44.19-.46.48Z"/><path d="M49.27,257.91c.41.25.46.67.52,1.09.13.67.25,1.33.38,2-.49.03-.99.07-1.48.1.16-1.07-.45-2.28.58-3.19Z"/><path d="M75.29,182.24c-.05-.55-.1-1.1-.15-1.66.04-.15.07-.31.1-.47.5.15,1.01.3,1.51.45,0,.37,0,.73.01,1.1,0,.17,0,.35,0,.52-.2,0-.39.02-.59.02-.18,0-.36-.01-.54-.02-.11.02-.22.04-.33.05Z"/><path d="M48.69,261.1c.49-.03.99-.06,1.48-.1.1.76.23,1.54-.87,1.68-.2,0-.4,0-.6,0,0-.53,0-1.05-.01-1.58Z"/><path d="M73.71,185.95c-.04-.36-.07-.72-.11-1.08.5-.03,1.01-.05,1.52-.08.06,1.03-.65,1.13-1.41,1.16Z"/><path d="M75.12,184.79c-.51.03-1.01.05-1.52.08-.03-1.04.69-1.11,1.46-1.12.02.35.04.7.06,1.04Z"/><path d="M76.16,182.21c.2,0,.39-.02.59-.02-.05.46.17,1.09-.39,1.3-.58.22-.57-.38-.67-.75.16-.18.31-.35.47-.53Z"/><path d="M76.16,182.21c-.16.18-.31.35-.47.53-.02-.18-.05-.36-.07-.55.18,0,.36.01.54.02Z"/><path d="M252.07,164.7c.55.74,1.66,1.08,1.6,2.26,0,.16.05.43.16.48,2.99,1.57,3.05,5.65,6.12,7.15.9,2.29,3.25,3.58,4.05,5.95.29.84.75,1.61,1.8,1.69,0,.16.02.32.05.48,0,1.02.59,1.5,1.52,1.67.03.32.05.63.08.95-.04.71.32,1.06,1.01,1.1.02.16.04.32.06.48.05,1.31.82,1.96,2.04,2.19.7.36,1.23.9,1.59,1.59.02.75.04,1.5,1.05,1.59.37.52.74,1.04,1.12,1.55,0,.69.36,1.04,1.03,1.08.4,1.27,1.64,1.96,2.15,3.15,0,.69.34,1.04,1.02,1.08.17.18.33.37.5.55-.16,1.67,1.42,2.66,1.66,4.17-.91.04-1.53-.49-1.91-1.2-1.48-2.79-3.96-4.85-5.41-7.7-.84-1.64-2.47-2.92-3.69-4.41-2.44-2.99-4.77-6.03-6.47-9.53-.65-1.34-1.9-2.23-2.81-3.39-2.52-3.23-5.32-6.24-7.43-9.8-.3-.51-.96-.8-1.26-1.3-.31-.53-1.04-1.13-.21-1.83.19,0,.38-.01.58-.02Z"/><path d="M291.29,216.58c1.95,1.03,2.79,3.06,4.04,4.67,4.5,5.77,8.69,11.79,13.19,17.57,3.97,5.1,7.97,10.19,11.81,15.39,0,.36,0,.73,0,1.09-.35,0-.7,0-1.05,0-.33-.37-.67-.73-1-1.1.07-.84-.34-1.46-.82-2.14-2.62-3.62-5.84-6.74-8.38-10.43-.48-.7-1.11-1.37-1.95-1.74,0,0,0,0,0,0,0-.56-.35-.95-.59-1.41-1.19-2.37-3.27-4.04-4.69-6.22-2.75-4.25-5.97-8.16-8.97-12.23-.75-1.02-1.85-1.94-1.62-3.45Z"/><path d="M291.29,216.58c-.23,1.51.87,2.43,1.62,3.45,3,4.07,6.22,7.98,8.97,12.23,1.41,2.18,3.5,3.86,4.69,6.22.23.47.59.86.59,1.41-.91.04-1.42-.55-1.92-1.19-1.71-2.2-3.62-4.28-5.08-6.63-2.68-4.3-5.86-8.23-8.77-12.36-.67-.96-1-2.02-1.17-3.15.35,0,.71,0,1.06,0v.02Z"/><path d="M280.68,203.87c-.24-1.52-1.82-2.5-1.66-4.17.25.06.61.03.73.19,1.86,2.47,3.7,4.97,5.53,7.47,1.42,1.93,3.22,3.62,3.89,6.03,0,0-.11.11-.11.11-.5-.2-1-.41-1.5-.61,0,0,0,0,0,0-.01-.67-.32-1.06-1.01-1.1,0,0,0,0-.01,0,.09-1.27-.56-2.07-1.64-2.61-.19-.5-.54-.86-1.02-1.08-.74-1.66-1.7-3.15-3.2-4.23h0Z"/><path d="M307.15,239.89c.84.37,1.46,1.04,1.95,1.74,2.53,3.69,5.76,6.81,8.38,10.43.49.67.89,1.29.82,2.14-1.68-.81-2.47-2.45-3.57-3.79-2.28-2.77-4.74-5.41-6.82-8.35-.49-.69-.86-1.31-.75-2.15Z"/><path d="M319.3,255.3c.35,0,.7,0,1.05,0,.39.5.78,1,1.17,1.5-.17,1.07.72,1.52,1.26,2.18,1.48,1.82,3,3.63,3.98,5.8-.33-.08-.77-.06-.98-.26-2.52-2.52-4.92-5.15-6.42-8.44-.1-.22-.04-.52-.05-.78Z"/><path d="M238.33,148.25c.87.07,1.4.63,1.87,1.28,1.12,1.54,2.24,3.07,3.36,4.61-.84.05-1.6-.14-2.11-.84-1.16-1.6-2.48-3.12-3.13-5.04Z"/><path d="M280.68,203.88c1.5,1.08,2.46,2.57,3.2,4.23-2.19-.56-2.93-2.22-3.2-4.23Z"/><path d="M291.28,216.56c-.35,0-.71,0-1.06,0-.17-.17-.34-.33-.51-.5.13-.94-.48-1.7-.65-2.56,0,0,.11-.11.11-.11,1.71.39,1.96,1.75,2.11,3.17Z"/><path d="M234.61,142.97c1.38.65,2.22,1.75,2.62,3.2-1.63-.45-2.72-1.34-2.62-3.2Z"/><path d="M289.05,213.51c.17.86.78,1.62.65,2.56-1.23-.71-2.3-1.53-2.15-3.17.5.2,1,.41,1.5.61Z"/><path d="M326.75,264.78c1,.64,1.95,1.34,2.14,2.64-1.58-.17-2.23-1.1-2.14-2.64Z"/><path d="M252.07,164.7c-.19,0-.38.01-.58.02-.18-.51-.54-.84-1.02-1.07,0-.36.02-.72.03-1.08.52,0,1.03.02,1.55.03,0,.7.01,1.39.02,2.09Z"/><path d="M284.89,209.19c1.08.53,1.73,1.34,1.64,2.61-1.19-.47-1.75-1.32-1.64-2.61Z"/><path d="M243.61,154.62c1.31.12,1.61,1,1.6,2.12-1.33-.1-1.43-1.14-1.6-2.12Z"/><path d="M245.68,156.79c.88.44,1.57,1.02,1.59,2.11-1.34-.09-1.62-.98-1.59-2.11Z"/><path d="M237.23,146.18c.71.29,1.06.82,1.06,1.59-1.08-.05-1.07-.82-1.06-1.59Z"/><path d="M286.54,211.79c.69.04,1,.43,1.01,1.1-.73,0-1.08-.36-1.01-1.1Z"/><path d="M289.21,431.13c.34.05.68.1,1.02.15-.73,1.5-2.28,1.68-3.57,1.8-2.89.27-5.61,1.33-8.49,1.55-2.18.17-4.34.22-6.42,1.12-1.35.58-2.82-.31-4.37-.13-2.5.29-5.02.75-7.57.74-1.31,0-2.64-.17-3.91.38-.49.21-1.03.12-1.55-.05-.41-.14-.91-.41-1.26-.29-3.51,1.14-6.8-1.16-10.27-.59-.74.12-1.65.2-1.93-.88.98-.4,1.91-.52,3.02-.34,1.7.28,3.48.29,5.2.13,1.19-.11,2.31,1.07,3.48.08,1.92.05,3.84.17,5.76-.12,2.36-.05,4.75.62,7.07-.35,1.19-.04,2.37-.08,3.56-.11,3.45.11,6.82-.68,10.21-1.08,3.05-.35,6.07-1.01,9.09-1.56.33-.06.62-.29.93-.44Z"/><path d="M194.32,429.5c-1.47-.32-2.8-.95-3.86-2.03-.69-.7-1.48-1.2-2.35-1.61-.65-.3-1.18-.73-1.53-1.36-.18-.32-.18-.66.03-.97.18-.26.46-.22.71-.15,2.07.58,4.21,1,5.94,2.41-.29,1.27-.24,1.43,1.05,3.72Z"/><path d="M296,429.99c1.71-.75,3.48-1.26,5.32-1.55.23-.02.47-.04.7-.07.05.24.16.68.15.68-1.96.58-3.81,1.78-6,1.13-.07-.02-.11-.13-.16-.19Z"/><path d="M199.08,432.15c-1.97.01-3.67-.4-4.25-2.63,2-.06,3.26,1.06,4.25,2.63Z"/><path d="M291.26,431.14c.33-.64,1.04-.47,1.56-.71.75.17,1.42-.53,2.18-.23-1.43,1.59-1.77,1.67-3.74.93Z"/><path d="M303.91,427.57c.24-.05.48-.1.72-.15.17,0,.34.03.5.1-.49,1.14-1.27,1.11-2.19.56,0,0,.05-.15.05-.15.34-.03.68-.07.91-.37Z"/><path d="M305.13,427.53c-.16-.07-.33-.1-.5-.1.37-.57.91-.54,1.47-.4-.32.17-.64.33-.97.5Z"/><path d="M308.35,426.38c0-.29.12-.39.39-.24-.1.13-.23.21-.39.24Z"/><path d="M302.02,428.37c-.23.02-.47.04-.7.07.15-.24.35-.36.63-.23,0,0,.07.17.07.17Z"/><path d="M306.74,426.92c.06-.34.19-.4.42-.11-.13.09-.26.12-.42.11Z"/><path d="M181.11,419.36c-.37.56-.74,1.12-1.11,1.69-.09-.01-.17-.02-.26-.04-.83-.18-1.66-.71-1.57-1.47.12-1.07,1.28-.46,1.95-.7.4.04.81.07.99.52Z"/><path d="M268.97,434.21c-1.19.04-2.37.08-3.56.11-1.07-.32-2.33.39-3.28-.59,1.73,0,3.45,0,5.18,0,.6,0,1.22-.07,1.67.48Z"/><path d="M258.35,434.68c-1.91.29-3.84.17-5.76.12,1.9-.9,3.82-.72,5.76-.12Z"/><path d="M47.66,255.82c.07,1.51-.27,2.9-.77,4.36-.64,1.87-.76,3.91-1.11,5.87-.93.02-.75-.66-.75-1.12-.02-6-.35-12.02.06-17.99.5-7.33,1.19-14.65,2.37-21.94,1.78-10.96,4.45-21.66,8.02-32.16,3.46-10.18,7.7-20.02,12.87-29.47,4.28-7.81,9.06-15.28,14.25-22.5.51-.71,1.07-1.39,1.61-2.09,1.04-.08,2.08.06,3.13-.23,1.13-.31,2.22.2,3.27.56.77.26,1.13.91.94,1.66-.66,2.69-1.37,5.36-2.1,8.03-.09.32-.38.58-.57.87-.62.95-1.35,1.85-1.83,2.86-1,2.09-2.74,3.86-2.89,6.33-2.09.45-2.08,2.09-2.11,3.71-.18.18-.35.36-.53.53-2.13.26-1.46,1.92-1.59,3.18-.5.21-.85.56-1.05,1.06-1.32,1.99-2.99,3.81-3.17,6.36-.18.52-.37,1.05-.55,1.57-1.48.33-1.55,1.48-1.57,2.67-.36.7-.71,1.4-1.07,2.11-.97.41-1.12,1.22-1.03,2.14-.9,1.9-2,3.72-2.66,5.7-1.85,5.55-4.57,10.7-6.99,16-1.81,3.97-3.07,8.21-4.14,12.47-.6,2.37-1.05,4.81-1.91,7.08-.83,2.17-1.9,4.19-2.62,6.46-.96,3.04-1.45,6.07-1.87,9.18-.19,1.4-.35,3.04-1.04,4.09-1.52,2.33-1.65,4.75-1.58,7.31-.4.23-.5.6-.47,1.03-.11,1.44-.83,2.79-.56,4.28Z"/><path d="M84.16,158.88c.15-2.48,1.89-4.24,2.89-6.33.49-1.01,1.21-1.91,1.83-2.86.19-.29.48-.56.57-.87.73-2.67,1.44-5.34,2.1-8.03.18-.76-.17-1.4-.94-1.66-1.06-.36-2.14-.88-3.27-.56-1.05.29-2.09.16-3.13.23,4.25-5.71,8.71-11.24,13.79-16.24.88-.86,1.66-1.8,2.41-2.78,1.34-1.75,3.04-3.17,4.94-4.32,1.33,1.76,2.76,3.45,4.74,4.49,1.18.62,1.26,1.39.59,2.33-.92,1.28-1.78,2.65-2.91,3.72-2.65,2.5-4.57,5.56-6.63,8.47-1.16,1.65-2.92,2.95-3.4,5.12-.13.59-.83,1.18-1.41,1.51-1.37.77-.47,1.33.07,1.95-.17.18-.35.36-.52.54-2.04.4-2.85,1.69-2.67,3.69-.17.18-.35.36-.52.53-1.15,0-1.11.8-1.04,1.6-.13.9-.64,1.56-1.23,2.23-.86.99-1.48,2.15-1.52,3.53-.43.02-.77.18-1,.56-1.79.14-1.59,1.46-1.59,2.66-.17.18-.34.35-.52.53-.54,0-1.07,0-1.61,0l-.02-.02Z"/><path d="M47.66,255.82c-.27-1.49.46-2.84.56-4.28,1.12-.03.83,1.24,1.5,1.62.03.36.05.72.08,1.08-.41.49-.52,1.2-1.12,1.56-.34,0-.68.02-1.02.02Z"/><path d="M95.87,143.57c.17-.18.35-.36.52-.54,3.96-4.9,7.89-9.82,11.89-14.68.71-.86,1.71-1.49,2.58-2.22,2.48-2.11,4.37-4.78,6.66-7.09,2.52-2.54,5.4-4.03,8.88-4.5.26-.03.54-.07.78,0,2.45.7,4.81,1.61,6.94,3.02.71.47,1.39,1.11,1.46,2.1-2.19-.51-4.34-1.22-6.5-1.72-2.71-.63-5.6-1.08-8.34.2-1.29.11-1.99.83-2.13,2.11-1.27.67-1.87,1.8-2.18,3.14-.22.14-.92-.2-.53.54,0,.17.01.34.02.51-1.14-.07-1.67.46-1.6,1.6-1.62.49-2.71,1.85-4.18,2.6-.59.3-.51,1.06-.54,1.67-1.26.16-2,.83-2.07,2.14-.36.36-.72.72-1.08,1.08-.56-.02-1.02.17-1.36.63-1.93,2.57-3.9,5.1-5.76,7.71-.64.9-1.7,1.53-1.85,2.76-.44.21-.55.6-.56,1.04-1.09.03-1.09.8-1.08,1.58-.02.16-.03.33-.03.49-2.05.42-2.56,2.11-3.13,3.76-.02.16-.03.33-.04.5-.66.4-1.59.56-1.5,1.65-.44.2-.54.6-.6,1.03-.55.17-1.09.34-1.64.51.05-1.37.66-2.54,1.52-3.53.59-.68,1.1-1.33,1.23-2.23.66-.33,1.03-.85,1.05-1.6.17-.18.35-.36.52-.54,1.1-1.08,2.17-2.18,2.67-3.69Z"/><path d="M329.37,265.34c-.7-.29-1.06-.81-1.08-1.56,1.11,0,1.08.79,1.08,1.56Z"/><path d="M327.23,262.7c-.69-.3-1.04-.84-1.05-1.59,1.1.04,1.08.81,1.05,1.59Z"/><path d="M326.18,261.1c-.7-.29-1.04-.83-1.07-1.58,1.1.02,1.09.8,1.07,1.58Z"/><path d="M332.51,269.6c-.67-.33-1.03-.86-1.04-1.61,1.12.04,1.09.82,1.04,1.61Z"/><path d="M328.28,263.77c-.67-.04-1.01-.4-1.05-1.06.71,0,1.07.34,1.05,1.06Z"/><path d="M269.55,76.32c-1.09-.69-2.18-1.36-3.13-2.26-.97-.92-2.34-1.3-3.61-1.41-1.61-.15-2.77-.84-3.89-1.92-2.03-1.96-4.7-2.97-7.06-4.44-.72-.45-1.36-.73-1.4-1.65,3.97-.13,7.88.61,11.76,1.24,11.11,1.79,22.02,4.49,32.59,8.36,8.75,3.21,17.31,6.87,25.49,11.43,6.77,3.77,13.42,7.71,19.8,12.1,1.01.7,2.01,1.42,2.99,2.15.29.22.46.52.25,1.11-1.21-.08-2.27-.76-3.22-1.4-4.83-3.25-10.11-5.64-15.34-8.12-3.73-1.77-7.51-3.47-11.39-4.87-6.09-2.19-12.37-3.79-18.56-5.65-3.99-1.2-8.1-1.37-12.06-2.47-.83-.23-1.75-.12-2.63-.17-.26-1.11-.78-1.32-1.62-.47-3-.47-6.02-.82-8.98-1.55Z"/><path d="M221.88,78.95c-1.36-.04-2.75-.19-3.73,1.09-.51,0-1.03,0-1.54,0-2.2-.46-4.2.59-6.15,1.18-4.02,1.21-8.18,1.9-12.14,3.36-3.27,1.21-6.52,2.48-9.72,3.86-1.28.55-2.7.71-3.89,1.52-.33.23-.85.14-1.25-.27-.03-.91,1.2-.95,1.32-1.76,1.08-.03,1.07-.81,1.07-1.57.73-.08,1.55.21,2.1-.55.7,0,1.05-.36,1.06-1.06.17,0,.35-.01.52-.01.7,0,1.51.22,2.04-.29,1.23-1.19,2.84-1.7,4.24-2.56,2.66-1.63,5.57-2.68,8.57-3.55,1.92-.56,3.87-.98,5.81-1.44,3.8-.92,7.63-1.29,11.54-.64,1.38.23,1.76.94,1.71,2.15-.18.18-.35.36-.53.53-.35,0-.7.01-1.05.02Z"/><path d="M223.46,78.4c.05-1.21-.33-1.92-1.71-2.15-3.91-.66-7.74-.28-11.54.64-1.94.47-3.89.88-5.81,1.44-3,.87-5.91,1.93-8.57,3.55-1.41.86-3.02,1.37-4.24,2.56-.53.51-1.34.29-2.04.29.04-.77.7-.84,1.2-1.18,3.62-2.5,7.7-4.09,11.58-6.07,3.14-1.6,6.35-2.86,9.7-3.87,1.2-.36,2.38-.56,3.63-.53,1.14.02,2.27.06,3.39-.34.63-.23,1.42-.24,2.08-.1,3.33.75,6.63,1.62,9.96,2.38,1.31.3,2.06.92,1.9,2.35-2.15-.29-4.19.74-6.33.52-1.07.11-2.07.71-3.19.51Z"/><path d="M249.93,75.77c1.89-.76,4.98-.76,6.89,0-1.89.73-4.97.73-6.89,0Z"/><path d="M223.46,78.4c1.12.2,2.12-.4,3.19-.51-1.18,1.49-1.88,1.69-3.73,1.04.18-.18.35-.35.53-.53Z"/><path d="M258.41,75.76c.88-.79,1.77-.79,2.65,0-.88.78-1.77.76-2.65,0Z"/><path d="M278.53,77.88c.83-.85,1.36-.63,1.62.47-.6.04-1.21.15-1.62-.47Z"/><path d="M185.86,86.35c0,.77.01,1.54-1.07,1.57,0-.18,0-.35,0-.53.03-.68.38-1.04,1.08-1.04Z"/><path d="M189.03,84.75c-.01.7-.36,1.05-1.06,1.06.03-.68.38-1.04,1.06-1.06Z"/><path d="M111.71,131.35c-.01-.98.75-1.47,1.31-2.1.96-1.08,2.21-1.89,2.91-3.21,0-.17.02-.34.02-.51,1.01-.05,1.54-.58,1.59-1.59.94-.63,2.02-1.1,2.64-2.13,1.18,0,2.02-.87,3.16-1.15,2.46-.6,4.67-.09,6.94.61,1.2-.24,1.92.75,2.68,1.3.93.68-.49,1.21-.57,1.9-.92-.08-1.37.74-2.08,1.06-.63-.4-.45-.83-.08-1.3.85-1.06.28-1.73-.76-1.85-3.24-.38-6.46-.38-9.2,1.78-2.27,1.79-4.34,3.8-6.39,5.83-.61.61-1.14,1.39-2.16,1.36Z"/><path d="M186.36,426.33c1.79.55,3.26,1.55,4.25,3.17-1.97-.31-3.46-1.27-4.25-3.17Z"/><path d="M190.61,429.51c.78-.02,1.31.33,1.59,1.05-.77,0-1.53,0-1.59-1.05Z"/><path d="M184.78,425.26c.7,0,1.05.36,1.07,1.05-.69-.01-1.04-.36-1.07-1.05Z"/><path d="M182.14,235.67c.65-1.83,1.86-3.09,3.73-3.69-.2,2.29-1.8,3.16-3.73,3.69Z"/><path d="M178.98,238.86c.32-1.8,1.84-2.4,3.17-3.18-.41,1.7-1.19,3.04-3.17,3.18Z"/><path d="M139.23,272.2q-1.33.04-3.68,1.61c0-.53,0-1.06,0-1.59,1.98-3.47,5.3-5.66,8.1-8.35,3.21-3.09,6.89-5.65,9.97-8.88.35-.37.81-.75,1.29-.88,1.4-.38,2.76-.75,3.71-1.96.11-.13.51-.04.77-.05.2.49.53.86,1.04,1.04-.39.93-1.2,1.09-2.08,1.13-.68-.01-1.66-.36-1.09.99,0,0,0,0,0,0-.61-.05-1.08.3-1.59.53-1.01.04-1.54.57-1.59,1.58-.35.18-.7.36-1.05.54-.7,0-1.06.36-1.04,1.07-.7.29-1.06.81-1.09,1.57-2.29.26-2.59.51-3.17,2.66-.17.01-.34.02-.51.03-.25.06-.58.05-.74.2-1.89,1.77-3.56,3.78-5.76,5.21-.5.32-.39.93-.4,1.45h0c-1.09.03-1.07.81-1.07,1.58,0,.17,0,.34-.01.52Z"/><path d="M139.23,272.2c.01-.17.02-.34.01-.52,1.08-.04,1.08-.8,1.07-1.57,0,0,0,0,0,0,1.06-.03,1.78-.76,2.41-1.42,1.21-1.25,2.62-2.25,3.93-3.36h.01c.08.85-.36,1.95,1.05,2.13-.04.44-.09.95-.49,1.15-2.24,1.11-4.06,2.84-6.15,4.16-.9.57-1.59.79-1.86-.57Z"/><path d="M153.03,257.93c.35-.18.7-.36,1.05-.54.18.01.36.02.55.03-.18,2.29-1.8,3.14-3.71,3.69l-.02-.02c0-.18,0-.36,0-.54.03-.75.39-1.28,1.09-1.57.68-.03,1.03-.39,1.04-1.07Z"/><path d="M147.22,263.25c.17,0,.34-.02.51-.03.53,0,1.05,0,1.58,0h.01c-.42,1.29-1.66,1.56-2.65,2.13,0,0-.01-.01-.01-.01.19-.69.37-1.39.56-2.08Z"/><path d="M150.92,261.11c.02,1.12.07,2.27-1.59,2.11,0,0-.01-.01-.01-.01.05-1.07.74-1.65,1.59-2.11l.02.02Z"/><path d="M154.63,257.42c-.18-.01-.36-.02-.55-.03.05-1.01.58-1.54,1.59-1.58,0,.18.01.36.02.55-.03.68-.41,1.01-1.06,1.07Z"/><path d="M160.43,253.15c-.51-.19-.83-.55-1.04-1.04.17-.18.34-.36.52-.54.35.16.69.32,1.04.48,0,.37.01.74.02,1.11-.18,0-.36,0-.54,0Z"/><path d="M157.27,255.28c-.58-1.36.41-1.01,1.09-.99-.06.66-.43.99-1.09.99Z"/><path d="M155.69,256.35c0-.18-.01-.36-.02-.55.51-.23.98-.58,1.59-.53-.04,1.06-.81,1.06-1.57,1.08Z"/><path d="M153.02,265.33c-.02.7-.38,1.05-1.09,1.03.05-.67.4-1.03,1.09-1.03Z"/><path d="M132.35,275.92c-.53,0-1.06,0-1.59,0,0-.35,0-.7,0-1.05.69.17,1.38.34,2.07.52.01.18.02.36.03.53-.18,0-.35,0-.53,0Z"/><path d="M132.88,275.91c-.01-.18-.02-.36-.03-.53.19-.18.38-.36.57-.55.19.02.37.04.56.06-.04.69-.4,1.03-1.09,1.02Z"/><path d="M128.14,277.5c.39.05.84-.1,1.15.28-.33.37-.77.22-1.17.26,0-.18,0-.36.01-.54Z"/><polygon points="130.78 274.86 130.56 274.74 130.66 274.64 130.78 274.86"/><path d="M168.93,244.16c-1.05,1.92-2.5,3.34-4.75,3.74.78-2.26,2.5-3.33,4.75-3.74Z"/><path d="M160.95,252.05c-.35-.16-.69-.32-1.04-.48.45-1.33.78-2.78,2.68-2.62-.3,1.16-.98,2.12-1.64,3.09Z"/><path d="M135.55,272.22c0,.53,0,1.06,0,1.59-.24.43-.65.53-1.09.54,0-.19.02-.37.03-.56,0-.77-.01-1.54,1.07-1.57Z"/><path d="M171.58,242.06c-.07,1.05-.82,1.08-1.59,1.09,0-1.14.79-1.13,1.59-1.09Z"/><path d="M164.18,247.9c-.07,1.04-.82,1.07-1.59,1.06,0-1.16.79-1.11,1.59-1.06Z"/><path d="M172.72,241.04c-.11.64-.47,1-1.14,1.01,0-.76.38-1.1,1.14-1.01Z"/><path d="M134.48,273.79c0,.19-.02.37-.03.56-.15,0-.3,0-.45.02.03-.29.21-.47.47-.58Z"/><path d="M208.62,437.98c.7,0,1.05.35,1.06,1.04-.68-.02-1.04-.36-1.06-1.04Z"/><path d="M278.52,199.15c-.68-.04-1.02-.4-1.02-1.08.34,0,.68,0,1.02,0,0,.36,0,.72,0,1.07Z"/><path d="M130.27,121.27c-2.26-.71-4.47-1.22-6.94-.61-1.13.28-1.98,1.16-3.16,1.15,1.19-2.38,4.37-3.91,6.71-2.89,1.21.53,3.15.31,3.39,2.35Z"/><path d="M118.6,120.24c.14-1.27.84-1.99,2.13-2.11-.19,1.23-.88,1.95-2.13,2.11Z"/><path d="M117.54,123.94c-.05,1.01-.58,1.54-1.59,1.59-.01-.37-.03-.74-.04-1.11,0-.17-.02-.34-.02-.51.19,0,.38,0,.58.01.36,0,.71,0,1.07.01Z"/><path d="M116.47,123.93c-.19,0-.38,0-.58-.01-.39-.74.31-.4.53-.54.01.18.03.37.05.55Z"/><path d="M270.55,189.1c-1.22-.23-1.98-.88-2.04-2.19,1.18.26,2.24.64,2.04,2.19Z"/><path d="M267.37,184.39c-.93-.17-1.52-.65-1.52-1.67,1.03.08,1.56.61,1.52,1.67Z"/><path d="M273.2,192.28c-1.01-.09-1.04-.84-1.05-1.59.76.26,1.09.8,1.05,1.59Z"/><path d="M275.35,194.92c-.67-.05-1.03-.4-1.03-1.08.7.03,1.03.4,1.03,1.08Z"/><path d="M268.45,186.44c-.69-.04-1.05-.39-1.01-1.1.68.05,1.02.42,1.01,1.1Z"/><path d="M303.91,427.57c-.23.3-.57.34-.91.37.2-.37.52-.48.91-.37Z"/><path d="M48.69,250.5c-.07-2.56.05-4.98,1.58-7.31.69-1.05.86-2.69,1.04-4.09.41-3.11.9-6.13,1.87-9.18.72-2.27,1.79-4.29,2.62-6.46.87-2.27,1.32-4.71,1.91-7.08,1.07-4.26,2.33-8.5,4.14-12.47,2.42-5.3,5.14-10.44,6.99-16,.66-1.98,1.76-3.81,2.66-5.7,1.39-.21.94-1.31,1.03-2.14.36-.7.71-1.4,1.07-2.11,1.44-.35,1.23-1.67,1.57-2.67.18-.52.37-1.05.55-1.57,1.53-1.2,3.13-4.41,3.17-6.36.2-.5.55-.86,1.05-1.06h1.06l.06.07c-.02,1.24-.81,2.35-.61,3.63-.04.42-.12.81-.55,1.02-1.66.49-1.52,1.89-1.6,3.18-1.79.88-2.04,2.52-2.12,4.26-.31.55-1.17.79-.95,1.65-.03.16-.06.31-.1.47-1.87,1.5-2.6,3.51-2.61,5.85,0,0,0,0,0,0-2.11.89-2.64,2.67-2.68,4.74h0c-2.04.57-1.91,2.26-1.98,3.84-.02.15-.05.3-.09.44-.35.04-.78.05-.9.42-.83,2.66-2.18,5.17-2.33,8.02-.03.35-.07.69-.1,1.04-1.32.51-1.23,1.69-1.35,2.78-.06.49-.12.99-.17,1.48-.72.1-1.24.29-.51,1.07-.02.34-.04.68-.06,1.03-.24.1-.62.13-.7.3-1.44,3.15-3.36,6.14-3.45,9.77-.01.16-.02.33-.03.49-.44.1-.91.27-.92.75-.04,1.38-.8,2.64-.65,4.05.01.36.02.72.04,1.08-.02.34-.04.68-.06,1.02-1.43.35-1.43,1.53-1.57,2.65-.68.11-1.01.51-1.01,1.2,0,.67,0,1.34-.01,2.01-.42.23-.51.63-.52,1.06-.55.33-.56.68-.06,1.07.02.53.04,1.06.07,1.59,0,0-.04-.03-.04-.03-1.12.24-1.36.75-.5,1.61-.03.34-.06.68-.09,1.01-1.04.14-1,.89-.94,1.65.44,1.48-.52,2.53-1.12,3.69-.54,1-1.08,2-.51,3.17,0,.36.02.72.02,1.08,0,0-.07-.05-.07-.05-.51,0-1.03.02-1.54.03Z"/><path d="M58.21,221.37c.09-3.63,2.01-6.62,3.45-9.77.08-.17.46-.2.7-.3.21,0,.41.02.62.03.1.93-1.11,1.21-1.04,2.12-.97,2.09-2.21,4.08-2.6,6.4-.24.49-.56.96-.53,1.54-.2,0-.39,0-.59-.01Z"/><path d="M64.55,203.89c.15-2.85,1.49-5.36,2.33-8.02.12-.38.55-.38.9-.42-.43,1.92-.26,4-1.71,5.63-.55.62-.39,1.5-.43,2.29-.36.17-.72.35-1.08.52Z"/><path d="M59.32,219.84c.39-2.33,1.64-4.31,2.6-6.4,1,.76.18,1.57.02,2.33-.36,1.67-1.24,3.04-2.62,4.08Z"/><path d="M69.84,191.16c.04-2.06.57-3.85,2.68-4.74.22,1.69-.83,2.91-1.58,4.24-.37.17-.73.33-1.1.5Z"/><path d="M69.84,191.16c.37-.17.73-.33,1.1-.5.11,1.08-.52,2-.63,3.05-.08.8-.72,1.14-1.49,1.2-.25-1.41,1.01-2.41,1.02-3.75h0Z"/><path d="M56.6,226.66c-.16-1.41.61-2.67.65-4.05.01-.49.49-.65.92-.75.02.38.04.76.07,1.14-.07.9-.71,1.67-.57,2.62-.36.35-.72.7-1.07,1.05Z"/><path d="M53.46,235.68c0-.43.09-.83.52-1.06.35,0,.7,0,1.05,0-.38,1.3.1,2.96-1.57,3.72-.02-.53-.04-1.06-.06-1.59.56-.33.62-.68.06-1.07Z"/><path d="M69.84,191.17c0,1.34-1.27,2.34-1.02,3.75-.32.03-.64.06-.96.09.08-1.58-.06-3.27,1.98-3.84Z"/><path d="M55.04,234.61c-.35,0-.7,0-1.05,0,0-.67.02-1.34.01-2.01,0-.69.33-1.09,1.01-1.2l.04.04c.01.72.03,1.44.04,2.17-.02.33-.04.67-.06,1Z"/><path d="M63.1,207.71c.12-1.09.03-2.28,1.35-2.78.21.01.41.02.62.04-.01.34-.03.68-.04,1.02-.68.08-.99.46-.94,1.13-.21.4-.58.52-.99.59Z"/><path d="M55.01,231.4c.14-1.11.14-2.3,1.57-2.65.04.76.26,1.56-.46,2.16-.36.17-.71.35-1.07.53l-.04-.04Z"/><path d="M55.05,231.44c.36-.18.71-.35,1.07-.53-.24.94.57,2.27-1.03,2.69-.01-.72-.03-1.44-.04-2.16Z"/><path d="M51.91,242.58c-.06-.76-.1-1.52.94-1.65.02.54.04,1.09.07,1.63-.34,0-.67.01-1.01.02Z"/><path d="M52.94,239.91c-.87-.85-.62-1.37.5-1.61.05.6.16,1.22-.5,1.61Z"/><path d="M56.6,226.66c.36-.35.72-.7,1.07-1.05-.09.83.38,1.94-1.04,2.13-.01-.36-.02-.72-.04-1.08Z"/><path d="M62.41,210.27c-.72-.79-.2-.98.51-1.07.48.19.56.59.55,1.04-.35.01-.71.02-1.06.03Z"/><path d="M58.24,222.99c-.02-.38-.04-.76-.07-1.14,0-.16.02-.33.03-.49.19,0,.39,0,.59.01.77.86.55,1.39-.55,1.61Z"/><path d="M65.06,204.97c-.2-.01-.41-.02-.62-.04.03-.35.07-.69.1-1.04.36-.17.72-.35,1.08-.52-.01.6.09,1.23-.57,1.6Z"/><path d="M64.08,207.12c-.05-.68.27-1.06.94-1.13.09.71-.28,1.05-.94,1.13Z"/><path d="M62.41,210.27c.35-.01.71-.02,1.06-.03.03.45-.06.85-.5,1.08-.21,0-.41-.02-.62-.03.02-.34.04-.68.06-1.03Z"/><path d="M97.46,144.62c.15-1.23,1.21-1.87,1.85-2.76,1.87-2.61,3.84-5.14,5.76-7.71.34-.46.8-.66,1.36-.63.03.99,0,1.95-.87,2.65-2.35,1.9-3.71,4.6-5.53,6.93-.7.89-1.36,1.61-2.58,1.52Z"/><path d="M85.78,158.91c.17-.18.34-.35.52-.53.49-.04.98-.09,1.47-.13l.15.15c-.81,3.19-3,5.67-4.44,8.53-.12.24-.59.3-.89.44-.02-.38-.04-.75-.06-1.13.66-1.12,1.26-2.26,1.14-3.63.03-.14.05-.29.06-.44.32-.04.64-.09.96-.13.61-.37,1.46-.66.56-1.57.18-.52.36-1.05.54-1.57Z"/><path d="M92.67,151.49c.56-1.65,1.08-3.34,3.13-3.76-.92,1.35-.98,3.43-3.13,3.76Z"/><path d="M78.31,174.21c.07-1.29-.07-2.69,1.6-3.18.04.42.09.84.5,1.09-.05.85-.34,1.58-1.04,2.11-.34,0-.67.02-1.01.03l-.04-.04Z"/><path d="M88.89,155.16c.55-.17,1.09-.34,1.64-.51-1.27.97-1.25,2.84-2.61,3.75,0,0-.15-.15-.15-.15-.03-.85.64-1.67.12-2.54.23-.37.57-.54,1-.56Z"/><path d="M82.53,166.24c.02.38.04.75.06,1.13,0,.17-.02.34-.04.51-1.06.09-1.03.85-1.01,1.62,0,0,0,0,0,0-.36.17-.73.34-1.09.51-.21-1.28.59-2.39.61-3.63.49-.04.98-.09,1.47-.13Z"/><path d="M76.19,178.46c.08-1.73.33-3.37,2.12-4.26,0,0,.04.04.04.04-.03,1.17-1.09,2.01-1.03,3.21,0,.16,0,.33-.02.49-.37.17-.74.34-1.11.51Z"/><path d="M107.52,132.44c.07-1.32.81-1.98,2.07-2.14.44.3.48.67.17,1.09-.56.76-1.3,1.12-2.25,1.05Z"/><path d="M76.19,178.46c.37-.17.74-.34,1.11-.51-.13.88.29,1.88-.55,2.61-.5-.15-1.01-.3-1.51-.45-.22-.86.64-1.1.95-1.65Z"/><path d="M77.32,177.47c-.06-1.2,1.01-2.04,1.03-3.21.34,0,.68-.02,1.01-.03-.34,1.3-.5,2.71-2.05,3.24Z"/><path d="M80.45,170c.36-.17.73-.34,1.09-.51,0,1.04-.23,1.98-1.13,2.63-.41-.25-.47-.67-.5-1.09.42-.21.51-.6.55-1.02Z"/><path d="M115.91,124.42c.01.37.03.74.04,1.11,0,.17-.01.34-.02.51-.54,0-1.08-.01-1.62-.02-.07-1.14.46-1.67,1.6-1.6Z"/><path d="M95.82,147.24c0-.78-.01-1.55,1.08-1.58.9,1.39-.29,1.35-1.08,1.58Z"/><path d="M91.13,153.63c-.09-1.09.84-1.24,1.5-1.65.15,1.14-.32,1.71-1.5,1.65Z"/><path d="M81.54,169.49c-.03-.76-.05-1.53,1.01-1.62.05.78.06,1.53-1.01,1.62Z"/><path d="M48.69,250.5c.51,0,1.03-.02,1.54-.03.02.36.04.72.06,1.08-.04.59.09,1.24-.57,1.6-.67-.38-.38-1.66-1.5-1.62-.04-.43.07-.8.47-1.03Z"/><path d="M49.72,253.16c.66-.37.53-1.02.57-1.6,1.41.96,1.31,1.5-.5,2.68-.02-.36-.05-.72-.08-1.08Z"/><path d="M50.28,249.44c-.57-1.18-.03-2.18.51-3.17,1.03,1.25.09,2.19-.51,3.17Z"/><path d="M82.53,166.24c-.49.04-.98.09-1.47.13,0,0-.06-.07-.06-.07-.17-1.12.37-2.12.53-3.18.18-.18.35-.36.53-.53.54,0,1.08.01,1.62.02.12,1.37-.48,2.51-1.14,3.63Z"/><path d="M78.88,167.37c-.04,1.96-1.64,5.17-3.17,6.36.18-2.56,1.85-4.37,3.17-6.36Z"/><path d="M83.67,162.61c-.54,0-1.08-.01-1.62-.02.03-1.62.02-3.26,2.11-3.71,0,0,.02.02.02.02-.18,1.09-.78,2.12-.45,3.28,0,.15-.03.29-.06.44Z"/><path d="M81.52,163.13c-.16,1.06-.7,2.06-.53,3.18h-1.06c.13-1.26-.54-2.92,1.59-3.18Z"/><path d="M75.16,175.3c-.34,1-.13,2.31-1.57,2.67.02-1.18.09-2.34,1.57-2.67Z"/><path d="M72.52,180.07c-.09.84.35,1.93-1.03,2.14-.09-.92.06-1.73,1.03-2.14Z"/><path d="M95.87,143.57c-.5,1.51-1.56,2.62-2.67,3.69-.18-2,.63-3.29,2.67-3.69Z"/><path d="M87.89,155.72c.52.87-.14,1.69-.12,2.54-.49.04-.98.08-1.47.13,0-1.2-.2-2.53,1.59-2.66Z"/><path d="M83.73,162.18c-.33-1.16.28-2.19.45-3.28.54,0,1.07,0,1.61,0-.18.52-.36,1.05-.54,1.57-.64.36-.52.99-.56,1.57-.32.04-.64.09-.96.13Z"/><path d="M92.68,147.8c-.02.75-.39,1.27-1.05,1.6-.07-.8-.11-1.59,1.05-1.6Z"/><path d="M147.22,263.25c-.19.69-.37,1.39-.56,2.08-1.31,1.11-2.72,2.11-3.93,3.36-.63.65-1.35,1.39-2.41,1.42,0-.52-.1-1.12.4-1.45,2.2-1.43,3.87-3.44,5.76-5.21.16-.15.49-.14.74-.2Z"/><path d="M150.9,261.09c-.85.47-1.55,1.05-1.59,2.11-.53,0-1.05,0-1.58,0,.57-2.14.88-2.4,3.17-2.66,0,.18,0,.36,0,.54Z"/><path d="M140.32,270.11c0,.77,0,1.54-1.07,1.57,0-.77-.02-1.55,1.07-1.57Z"/><path d="M153.03,257.93c-.02.68-.36,1.04-1.04,1.07-.01-.71.34-1.06,1.04-1.07Z"/><path d="M53.46,235.68c.56.39.5.74-.06,1.07-.5-.38-.49-.74.06-1.07Z"/><path d="M84.68,162.05c.03-.58-.08-1.21.56-1.57.9.91.05,1.2-.56,1.57Z"/></svg>