<?xml version="1.0" encoding="UTF-8"?><svg id="LECTEUR" xmlns="http://www.w3.org/2000/svg" viewBox="0 0 512 512"><g id="MELANGE"><path d="M391.57,359.54H26.67l41.99-166.74c5.97-23.72,27.31-40.35,51.77-40.35h364.9l-41.99,166.74c-5.97,23.72-27.31,40.35-51.77,40.35Z" fill="none" stroke="#000" stroke-miterlimit="10" stroke-width="29"/><path d="M148.69,202.35h11.89c26.74,0,52.38,10.62,71.29,29.53l24.12,24.12,24.12,24.12c18.91,18.91,44.55,29.53,71.29,29.53h11.89" fill="none" stroke="#000" stroke-linecap="round" stroke-miterlimit="10" stroke-width="24.9"/><path d="M363.31,202.35h-11.89c-26.74,0-52.38,10.62-71.29,29.53l-24.12,24.12-24.12,24.12c-18.91,18.91-44.55,29.53-71.29,29.53h-11.89" fill="none" stroke="#000" stroke-linecap="round" stroke-miterlimit="10" stroke-width="24.9"/></g></svg>