<?xml version="1.0" encoding="UTF-8"?><svg id="LECTEUR" xmlns="http://www.w3.org/2000/svg" viewBox="0 0 512 512"><g id="MUTE"><path d="M391.57,359.54H26.67l41.99-166.74c5.97-23.72,27.31-40.35,51.77-40.35h364.9l-41.99,166.74c-5.97,23.72-27.31,40.35-51.77,40.35Z" fill="none" stroke="#000" stroke-miterlimit="10" stroke-width="29"/><path d="M283.58,256.09c0,21.88,0,43.75,0,65.63,0,.93-.03,1.85,0,2.78.12,3.13-.77,5.74-3.78,7.19-3.15,1.52-5.76.47-8.24-1.68-11.99-10.37-24.35-20.34-35.91-31.17-6.42-6.02-12.94-9.07-21.84-8.18-7.45.74-15.03.17-22.56.15-7.32-.03-11.97-4.6-11.98-11.89-.03-15.39-.03-30.79.01-46.18.02-6.94,4.55-11.53,11.51-11.58,10.07-.08,20.14-.17,30.21.06,3.5.08,6.09-.92,8.7-3.21,13.94-12.18,28.04-24.18,42.05-36.29,2.43-2.1,5.03-2.81,7.99-1.5,2.9,1.28,3.91,3.75,3.83,6.78-.02.69,0,1.39,0,2.08,0,22.34,0,44.68,0,67.02Z"/><path d="M308.93,255.78c-4.42-4.42-8.75-8.74-13.08-13.07-.82-.82-1.68-1.6-2.42-2.49-1.95-2.37-1.86-5.25.14-7.2,1.91-1.87,5.07-1.98,7.22.06,4.11,3.91,8.09,7.95,12.06,12.01,1.13,1.15,2.03,2.53,3.19,4.01,5.56-5.6,10.54-10.6,15.49-15.62,1.83-1.86,4.17-2.65,6.26-1.28,1.41.93,2.64,3.01,2.79,4.69.13,1.39-1.16,3.2-2.29,4.37-4.65,4.84-9.47,9.51-14.58,14.59,3.19,3.22,6.24,6.31,9.29,9.39,2.04,2.05,4.17,4.02,6.11,6.16,2.21,2.43,2.17,5.45.08,7.46-2.16,2.08-5.02,2.1-7.44-.26-5.06-4.91-10-9.95-15.33-15.27-3.99,3.94-7.91,7.79-11.82,11.66-1.23,1.22-2.39,2.52-3.68,3.69-2.45,2.22-5.34,2.21-7.44.09-2.07-2.1-2.08-5.05.24-7.44,4.43-4.57,8.99-9.03,13.48-13.54.56-.56,1.03-1.2,1.71-2Z"/></g></svg>