<?xml version="1.0" encoding="UTF-8"?><svg id="LECTEUR_02" xmlns="http://www.w3.org/2000/svg" viewBox="0 0 512 512"><path d="M311.48,256.27c0,51.51,0,103.03,0,154.54,0,2.18-.08,4.36,0,6.54.28,7.37-1.82,13.51-8.9,16.92-7.41,3.57-13.56,1.1-19.41-3.96-28.23-24.42-57.34-47.9-84.55-73.4-15.13-14.17-30.48-21.36-51.44-19.26-17.54,1.75-35.4.41-53.11.35-17.24-.06-28.18-10.84-28.21-28-.08-36.25-.08-72.5.03-108.75.05-16.34,10.73-27.14,27.11-27.27,23.71-.19,47.43-.4,71.13.13,8.23.18,14.34-2.17,20.5-7.55,32.83-28.68,66.02-56.94,99.01-85.44,5.71-4.93,11.85-6.61,18.81-3.53,6.84,3.02,9.2,8.84,9.03,15.97-.04,1.63,0,3.27,0,4.91,0,52.6,0,105.21,0,157.81Z"/><path d="M371.19,255.55c-10.41-10.4-20.61-20.58-30.79-30.77-1.93-1.93-3.97-3.77-5.69-5.87-4.58-5.59-4.38-12.37.33-16.97,4.51-4.39,11.95-4.67,17.01.14,9.68,9.2,19.05,18.73,28.39,28.28,2.65,2.71,4.77,5.95,7.52,9.43,13.08-13.18,24.81-24.95,36.48-36.79,4.31-4.37,9.82-6.25,14.74-3.01,3.32,2.19,6.21,7.1,6.57,11.04.3,3.28-2.74,7.52-5.4,10.29-10.94,11.4-22.3,22.39-34.33,34.36,7.51,7.59,14.69,14.87,21.88,22.12,4.8,4.84,9.82,9.48,14.4,14.51,5.21,5.73,5.1,12.83.18,17.57-5.08,4.9-11.81,4.94-17.52-.6-11.92-11.57-23.56-23.43-36.09-35.95-9.41,9.27-18.63,18.35-27.83,27.45-2.91,2.88-5.63,5.95-8.66,8.68-5.77,5.22-12.58,5.21-17.52.21-4.88-4.94-4.89-11.89.56-17.52,10.44-10.76,21.16-21.26,31.74-31.89,1.31-1.32,2.43-2.83,4.03-4.71Z"/></svg>