<?xml version="1.0" encoding="UTF-8"?><svg id="CUBIC" xmlns="http://www.w3.org/2000/svg" width="512" height="512" viewBox="0 0 512 512"><path d="M502.42,504.06H63.69c25.01-24.5,47.74-43.7,66.66-66.11,20.36-24.13,43.62-31.36,74.7-30.22,65.38,2.41,130.91.73,199.71-5.35-32.62-32.5-64.95-65.3-98.29-97.04-3.57-3.4-13.05-.95-19.77-.64-15.48.7-32.05,5.74-46.18,1.81-26.53-7.38-43.01,2.14-61.01,20.31-50.54,51.03-102.97,100.2-154.69,150.06-3.48,3.36-7.3,6.37-15.49,13.46,0-44.41-.58-83.72.59-122.98.19-6.32,7.44-13.16,12.71-18.49,31.04-31.4,62.25-62.62,93.87-93.43,8.88-8.65,12.58-14.95,6.06-28.45-33.4-69.17-17-142.27,40.11-186.79,55.63-43.37,134.3-42.98,187.68.93,57.8,47.55,72.25,120.7,37.46,189.69-1.52,3.01-3.06,6.01-5.82,11.44,34.77,34.49,70.46,68.36,104.01,104.22,8.87,9.48,15.02,24.92,15.71,37.97,2.04,38.78.73,77.74.73,119.61ZM256.86,104.87c-30.76-.36-55.07,23.28-54.99,53.49.07,28.65,24.1,52.68,53,53,30.68.34,55.06-23.51,54.81-53.62-.25-29.62-23.13-52.53-52.82-52.88Z"/></svg>