<?xml version="1.0" encoding="UTF-8"?><svg id="RESEAUX_COLOR" xmlns="http://www.w3.org/2000/svg" viewBox="0 0 512 512"><path d="M322.25,19.35c46.4,16.25,87.33,40.83,119.72,78.41,0,0,0,0,0,0,11.96,18.84,23.92,37.68,35.88,56.52,2.88,8.79,5.76,17.58,8.63,26.37.9,1.87,1.8,3.75,2.7,5.62.25,1.87.5,3.73.75,5.6-.45,2.74.04,5.07,2.76,6.45.34,2.85.67,5.7,1.01,8.55.37,4.09.73,8.17,1.1,12.26.89,14.71,1.78,29.43,2.67,44.14-4.16,40.01-15.33,77.75-36.29,112.34-5.75,8.59-11.51,17.17-17.26,25.76-10.09,10.3-20.17,20.6-30.26,30.89-8.78,6.7-17.56,13.41-26.33,20.11-34.36,22.2-72.25,34.63-112.52,40.42-15.68-.19-31.36-.38-47.04-.57-20.05-6.13-41.78-9.22-59.73-19.14-23.66-13.07-44.49-9.45-66.62.35-2.52.38-5.04.77-7.56,1.15-1.88.9-3.77,1.81-5.65,2.71-3.14.35-6.28.7-9.41,1.05-1.88.9-3.75,1.8-5.63,2.7-1.86.25-3.71.5-5.57.75-6.53,1.59-13.06,3.18-19.58,4.77-3.55,1.02-7.1,2.04-10.64,3.05-1.88.9-3.75,1.8-5.63,2.7-5.8.15-11.72.81-16.52-3.63.23-19.64,9.61-37.08,13.5-55.84,1.82-8,6.3-15.38,5.57-23.97,2.65-1.42,3.16-3.73,2.71-6.45.27-1.9.54-3.81.81-5.71.88-1.83,1.76-3.66,2.64-5.49.98-3.44,1.96-6.89,2.94-10.33,2.84-7.33,2.49-14.07-1.06-21.5-6.89-14.41-12.6-29.38-18.8-44.12-.53-2.36-1.06-4.72-1.6-7.09.61-1.21.53-2.36-.25-3.47-1.28-6.39-2.55-12.77-3.83-19.16-.91-1.89-1.83-3.78-2.74-5.67,2.58-5.69.44-11.21-.59-16.77,1.26-18.76,2.51-37.53,3.77-56.29.23-1.87.45-3.75.68-5.62.88-1.83,1.76-3.66,2.64-5.49.38-3.18.75-6.36,1.13-9.55.88-1.83,1.76-3.66,2.64-5.49,1.73-5.82,3.45-11.63,5.18-17.45,9.15-17.45,17.16-35.56,29.17-51.34,3.74-4.92,6.69-14.51,15.45-8.59,8.53,5.76,1.71,11.97-1.98,17.51-50.15,75.27-55.89,153.36-14.62,234.24,4.23,8.3,4.92,15.47,2.07,24.72-9.4,30.54-17.4,61.5-26.42,94.08,7.42-2.84,13.02-4.99,18.61-7.13,22.28-5.55,44.96-9.89,66.7-17.05,15.81-5.21,28.87-4.03,43.76,3.36,36.84,18.28,75.72,26.03,117.43,21.38,118.71-13.25,221.73-130.21,195.86-264.42C445.2,47.16,259.61-24.84,123.57,71.13c-4.29,1.03-7.68-.74-10.77-3.43-1.75-17.09,16.45-15.53,23.17-24.72,10.74-5.29,21.48-10.59,32.22-15.88,16.73-4.35,33.47-8.7,50.2-13.05,18.78-1.01,37.57-2.01,56.35-3.02,10.59,1.92,20.95,5.59,31.99,4.29,1.85.88,3.69,1.76,5.53,2.63,3.34.47,6.67.93,10.01,1.4Z" fill="#090906"/><path d="M123.57,71.13c136.05-95.97,321.63-23.97,353.02,138.86,25.87,134.21-77.15,251.18-195.86,264.42-41.71,4.65-80.59-3.1-117.43-21.38-14.89-7.39-27.95-8.57-43.76-3.36-21.74,7.16-44.42,11.5-66.7,17.05,2-8.31,4.27-16.57,5.96-24.95,7.26-35.88,21.51-69.31,5.37-108.79-29.81-72.95-18.87-144.9,20.39-212.98,10.62-18.42,27.14-31.68,38.99-48.87ZM68.44,439.39c22.12-5.37,42.3-9.19,61.72-15.39,11.24-3.59,19.85-2.53,30.02,3.03,29.33,16.05,60.7,24.22,94.57,24.99,110.1,2.52,219.51-98.33,199.7-232.31-14.36-97.1-99.93-167.41-197.94-167.7-140.2-.41-238.98,136.57-187.41,266.52,15.28,38.5,16.73,70.7,2.64,106.71-1.51,3.86-1.94,8.14-3.3,14.15Z" fill="#fde000"/><path d="M68.44,439.39c1.37-6,1.79-10.28,3.3-14.15,14.09-36.01,12.64-68.22-2.64-106.71C17.54,188.58,116.32,51.6,256.52,52.02c98.01.29,183.58,70.6,197.94,167.7,19.81,133.98-89.6,234.83-199.7,232.31-33.87-.77-65.25-8.95-94.57-24.99-10.17-5.56-18.77-6.62-30.02-3.03-19.42,6.2-39.6,10.02-61.72,15.39ZM87.65,416.47c20.71-4.76,35.87-7.63,50.63-11.9,6.54-1.89,11.58-2.32,17.59,1.38,60.99,37.46,122.23,41.59,186.69,6.17,60.14-33.05,92.08-83.85,96.74-149.64,4.3-60.62-18.14-111.16-67.89-151.17-31.1-25.02-64.28-40.47-102.1-43.05-138.15-9.42-236.74,126.74-181.79,253.37,14.03,32.33,19.62,59.67.13,94.85Z" fill="#090906"/><path d="M87.65,416.47c19.49-35.18,13.9-62.52-.13-94.85-54.95-126.62,43.65-262.79,181.79-253.37,37.83,2.58,71,18.04,102.1,43.05,49.74,40.01,72.18,90.55,67.89,151.17-4.66,65.79-36.6,116.59-96.74,149.64-64.45,35.42-125.7,31.29-186.69-6.17-6.02-3.7-11.06-3.27-17.59-1.38-14.76,4.27-29.92,7.15-50.63,11.9ZM184.06,135.64c-14.77-2.87-24.94,3.79-34.09,14.52-19.88,23.31-22.56,49.1-11.41,76.47,29.88,73.38,85.46,118.65,160.04,141.1,20.39,6.14,41.85,3.04,60.56-9.7,16.75-11.41,24.62-27.73,25.04-47.34.39-18.32-16.35-19.43-27.97-25.4-4.9-2.52-9.89-4.86-14.9-7.15-27.51-12.58-28.05-12.43-46.08,10.93-4.62,5.98-9.04,12.34-18.26,7.42-25.05-13.37-47.02-30.11-62.87-54.25-4.42-6.72-3.66-11.46,1.9-16.21,15.09-12.89,17.34-27.13,6.77-44.41-5.38-8.8-8.31-19.14-11.96-28.93-4.7-12.62-12.48-20.03-26.77-17.04Z" fill="#fde000"/><path d="M184.06,135.64c14.29-2.99,22.07,4.43,26.77,17.04,3.65,9.79,6.58,20.13,11.96,28.93,10.56,17.28,8.32,31.53-6.77,44.41-5.57,4.76-6.32,9.49-1.9,16.21,15.86,24.13,37.82,40.88,62.87,54.25,9.22,4.92,13.64-1.43,18.26-7.42,18.03-23.36,18.57-23.51,46.08-10.93,5.01,2.29,10,4.63,14.9,7.15,11.62,5.97,28.36,7.08,27.97,25.4-.42,19.62-8.28,35.94-25.04,47.34-18.71,12.74-40.17,15.83-60.56,9.7-74.58-22.45-130.15-67.72-160.04-141.1-11.15-27.37-8.47-53.16,11.41-76.47,9.15-10.73,19.32-17.4,34.09-14.52ZM320.15,353.43c12.15-2.98,24.56-5.76,33.91-16.3,16.48-18.57,15.09-27.78-6.77-38.09-4.43-2.09-9.39-3.33-13.36-6.06-11.11-7.65-18.78-7.27-25.93,5.97-7.69,14.25-18.93,21.55-36.53,12.68-30.83-15.53-56.25-36.47-74.48-66.03-5.6-9.08-7.81-17.38,1.42-24.84,16.6-13.42,15.13-28.34,4.92-44.62-2.61-4.15-4.19-8.94-6.29-13.42-6.82-14.56-17.11-16.62-29.01-5.97-16.56,14.81-21.16,33.27-16.1,54.26,10,41.5,38.38,70.74,68.95,97.3,28.01,24.34,61.47,39.38,99.27,45.12Z" fill="#090906"/><path d="M320.15,353.43c-37.8-5.74-71.26-20.78-99.27-45.12-30.57-26.57-58.96-55.81-68.95-97.3-5.06-20.99-.46-39.45,16.1-54.26,11.9-10.64,22.18-8.58,29.01,5.97,2.1,4.48,3.68,9.27,6.29,13.42,10.21,16.28,11.68,31.2-4.92,44.62-9.23,7.46-7.02,15.76-1.42,24.84,18.22,29.56,43.65,50.5,74.48,66.03,17.6,8.87,28.84,1.56,36.53-12.68,7.15-13.23,14.81-13.62,25.93-5.97,3.96,2.73,8.93,3.97,13.36,6.06,21.86,10.31,23.25,19.52,6.77,38.09-9.35,10.54-21.76,13.32-33.91,16.3Z" fill="#63d4fd"/></svg>