<?xml version="1.0" encoding="UTF-8"?><svg id="CUBIC" xmlns="http://www.w3.org/2000/svg" width="512" height="512" viewBox="0 0 512 512" fill="currentColor"><path d="M101.89,198.06v194.69h304.19v-239.15H9.19V59.97h181.29c1.59-13.66,2.88-24.73,4.43-38.02h120.22c1.45,11.65,2.84,22.86,4.49,36.11h181.5c.6,9.81,1.48,17.66,1.49,25.5.06,126.28-.52,252.56.5,378.83.18,21.99-6.12,27.79-27.81,27.65-146.96-.93-293.92-.49-440.88-.58-8.03,0-16.05-.78-25.52-1.28V198.06h92.99Z"/><path d="M329.65,273.26c.42,40.89-32.01,74.29-72.93,75.14-42.08.86-76.26-32.07-76.73-73.95-.46-40.18,32.87-74.62,73.08-75.51,41.55-.93,76.15,32.66,76.59,74.33Z"/></svg>