<?xml version="1.0" encoding="UTF-8"?><svg id="RESEAUX_COLOR" xmlns="http://www.w3.org/2000/svg" viewBox="0 0 512 512"><path d="M254.46,402.67c-5.94.89-10.49,4.25-14.67,8.26-1.87,1.16-3.75,2.31-5.62,3.47-2.48-.32-4.8-.23-6.12,2.39-40.85,22.83-81.7,45.65-122.55,68.48q-33.56,15.71-35.68-21.7V125.18c0-18.75,0-37.51,0-56.26.22-16.21.44-32.42.66-48.63,9.29-8.92,16.77-1.15,24.68,2.68,6.67,3.03,13.33,6.07,20,9.1,18.05,11.53,37.26,20.83,56.89,29.33,7.02,4.74,13.81,9.92,22.47,11.46,11.31,6,22.62,11.99,33.93,17.99,15.68,8.17,30.44,18.18,47.46,23.67,9.21,4.87,18.43,9.75,27.64,14.62,8.1,6.97,17.3,12.05,27.26,15.85,21.76,13.25,42.87,27.64,66.75,37.09,17.63,13.43,36.71,24.41,56.81,33.68,12.47,7.46,24.94,14.91,37.4,22.37,12.11,13.36,7.55,22.64-6.62,30.87-30.99,17.98-61.64,36.57-92.43,54.91-14.34,5.99-27.8,13.49-40.01,23.14-6.04,3.44-12.07,6.89-18.11,10.33-16.56,9.29-33.11,18.57-49.67,27.86-10.16,5.82-20.31,11.63-30.47,17.45ZM89.11,463.55c8.08-1.73,11.71-8.58,16.39-14.22,67.35-61.78,132.59-125.76,197.81-189.77,5.92-5.81,5.79-8.72-.5-14.51-66.22-61.03-132.07-122.46-198.03-183.78-4.22-5.93-9-11.21-16.28-15.03-.47,2.8-1,4.47-1,6.13-.08,86.88-.8,173.76.09,260.62.52,50.34-2.52,100.74,1.84,151.03-.83,0-1.67.02-2.5.02.14.54.27,1.07.41,1.61.59-.7,1.18-1.41,1.77-2.11ZM158.02,434.63c71.22-35.29,139.14-76.57,208.61-115.04,7.38-4.09,5.11-8.23.26-12.94-12.11-11.76-24.44-23.36-35.71-35.89-6.2-6.9-9.31-4.04-14.31.86-54.52,53.27-109.22,106.35-163.86,159.49-4.96,3.63-10.85,6.32-15.77,16.1,9.33-5.32,16.26-6.61,20.78-12.57ZM149.56,72.46c-1.34-.69-2.68-1.39-4.01-2.08-.02.52-.08,1.49-.04,1.49,1.41.15,2.82.21,4.23.28-1.37,3.73,1.3,5.81,3.48,7.86,41.78,39.25,82.65,79.55,125.94,117.06,15.04,13.03,28.12,39.45,45.41,36.25,16.71-3.09,29.63-26.65,44.2-41.24.35-.36.44-.98,1.01-2.32-70.59-44.21-145.31-80.93-220.22-117.3ZM481.82,252.7c-28.4-16.57-54.87-31.46-80.69-47.41-8.6-5.31-13.69-4.7-20.36,2.68-13.78,15.23-39.25,29.14-39.94,44.5-.79,17.41,26.62,29.88,40.22,45.89,5.91,6.96,10.72,7.67,18.56,2.88,26.42-16.13,53.28-31.54,82.21-48.53Z" fill="#090906"/><path d="M104.77,61.27c65.95,61.32,131.81,122.75,198.03,183.78,6.29,5.8,6.42,8.7.5,14.51-65.22,64-130.45,127.98-197.81,189.77-.47-3.08-1.35-6.15-1.35-9.23.16-126.27.4-252.55.62-378.82Z" fill="#63d4fd"/><path d="M149.57,72.45c74.9,36.38,149.62,73.1,220.21,117.31-.57,1.34-.65,1.97-1.01,2.32-14.56,14.59-27.48,38.15-44.2,41.24-17.29,3.2-30.38-23.22-45.41-36.25-43.29-37.51-84.16-77.81-125.94-117.06-2.18-2.04-4.85-4.13-3.48-7.86l-.17.29Z" fill="#63d4fd"/><path d="M152.99,431.1c54.65-53.13,109.36-106.22,163.88-159.49,5.01-4.89,8.11-7.76,14.31-.86,11.27,12.54,23.6,24.13,35.71,35.89,4.85,4.71,7.12,8.86-.26,12.94-69.47,38.46-137.38,79.74-208.61,115.04-1.68-1.18-3.36-2.35-5.03-3.53Z" fill="#e3647e"/><path d="M481.82,252.7c-28.92,16.99-55.79,32.4-82.21,48.53-7.85,4.79-12.65,4.09-18.56-2.88-13.59-16.02-41.01-28.49-40.22-45.89.69-15.35,26.16-29.27,39.94-44.5,6.67-7.38,11.76-7.99,20.36-2.68,25.81,15.95,52.29,30.84,80.69,47.41Z" fill="#fde000"/></svg>