<?xml version="1.0" encoding="UTF-8"?><svg id="UPLOAD" xmlns="http://www.w3.org/2000/svg" width="512" height="512" viewBox="0 0 512 512" fill="currentColor"><path d="M427.73,267.91c-72.68-10.23-129.26,50.41-122.42,117.33-3.01.13-5.96.38-8.92.38-74.47.02-148.94.06-223.41,0-33.05-.03-55.27-22.19-55.32-55.15-.07-45.13-.08-90.27.01-135.4.06-28.31,19.27-48.12,47.64-48.24,25.93-.11,44.81-11.53,55.19-34.72,8.92-19.91,24.57-28.88,44.5-29.58,36.61-1.29,73.28-.78,109.93-.82,4.45,0,8.95,1.06,13.35,1.96,16.4,3.36,29.25,11.21,35.67,27.67,9.85,25.23,30.41,34.19,55.56,35.29,32.18,1.41,48.17,17.91,48.19,50.31,0,20.87.02,41.75.03,62.62,0,2.75,0,5.49,0,8.34ZM222.59,173.89c-47.12,0-84.52,37.7-84.52,85.19,0,46.1,37.79,83.92,83.98,84.05,47.04.12,85.3-37.93,85.23-84.79-.07-46.43-38.19-84.45-84.68-84.44Z"/><path d="M310.95,370.6c.03-54.3,43.54-97.78,97.65-97.6,52.94.18,96.51,43.85,96.69,96.91.18,53.9-43.59,97.49-97.86,97.48-53.04-.01-96.5-43.62-96.47-96.79ZM423.09,388.07c-.95-.64-1.91-1.28-2.86-1.92,0-20.61.07-41.23-.03-61.84-.04-8.9-4.73-14.36-12-14.52-7.51-.16-12.09,4.97-12.14,14.12-.11,18.8,0,37.6-.06,56.4,0,2.2-.48,4.4-.74,6.6-.81.45-1.62.91-2.43,1.36-4.66-5.31-9.09-10.84-14.03-15.87-6.62-6.75-14.16-7.28-19.39-1.88-5.22,5.39-4.72,11.79,1.99,18.65,11.85,12.11,23.84,24.1,35.91,36,7.78,7.67,13.57,7.68,21.42-.01,12.1-11.87,24.06-23.87,35.96-35.94,6.17-6.26,6.76-13.68,1.86-18.79-5.05-5.28-12.91-4.65-19.45,2.01-4.9,4.99-9.34,10.42-13.99,15.65Z"/><path d="M222.71,194.06c35.61.03,64.45,28.95,64.44,64.62-.01,35.4-29.19,64.36-64.79,64.3-35.67-.05-64.34-28.91-64.26-64.67.08-35.82,28.71-64.29,64.62-64.26Z"/></svg>