<?xml version="1.0" encoding="UTF-8"?><svg id="UPLOAD" xmlns="http://www.w3.org/2000/svg" width="512" height="512" viewBox="0 0 512 512" fill="currentColor"><path d="M62.57,216.66c49.22,25.03,97.6,22.24,138.52-12.71,40.52-34.61,46.14-77.57,30.17-128.59,4.25-.25,8.11-.67,11.98-.67,62.35-.04,124.69-.05,187.04,0,28.83.02,43.37,14.58,43.38,43.45.03,110.71.04,221.42,0,332.13,0,28.97-14.37,43.24-43.44,43.25-108.18.03-216.35.04-324.53,0-28.3-.01-43.07-14.52-43.1-42.39-.06-74.36-.03-148.72-.03-223.08,0-3.24,0-6.47,0-11.38ZM267.5,427.14c46.65,0,93.29.08,139.94-.13,4.19-.02,8.37-1.85,12.55-2.85-1.62-3.94-2.51-8.42-4.99-11.72-19.78-26.44-39.88-52.65-59.86-78.95-13.31-17.51-20.8-17.9-36.51-1.85-18.12,18.52-36.98,16.99-51.35-4.43-15.18-22.62-30.04-45.45-45.18-68.09-7.52-11.25-11.68-11.16-18.18.61-28.36,51.27-56.62,102.59-84.78,153.97-6.12,11.18-4.68,13.36,8.42,13.39,46.65.08,93.29.03,139.94.05ZM407.26,193.86c.16-29.26-23.2-52.71-52.46-52.67-28.63.04-52.06,23.15-52.34,51.66-.29,29.45,22.67,52.96,51.94,53.17,29.54.22,52.7-22.64,52.86-52.16Z"/><path d="M23.81,118.03c.49-55.43,45.69-99.97,101.06-99.57,55.42.4,100.26,45.65,99.87,100.81-.39,56.28-45.46,100.62-101.84,100.2-55.21-.41-99.58-45.84-99.09-101.44ZM157.64,101.63c-7.31,10.5-13.46,19.34-19.61,28.18-1.13-.73-2.26-1.46-3.39-2.18v-60.52h-21.24v63.83c-10.26-9.71-18.02-17.05-26.11-24.7-5.39,4.99-9.84,9.1-12.62,11.66,17.55,17.97,34.09,34.9,48.96,50.12,16.21-16.05,32.94-32.63,50.2-49.72-3.21-3.3-7.16-7.36-16.19-16.66Z"/></svg>