<?xml version="1.0" encoding="UTF-8"?><svg id="UTILITY" xmlns="http://www.w3.org/2000/svg" viewBox="0 0 512 512"><path d="M291,497.2c.51-1.95,5-1.21,3-4.91-2.65-4.89-3.98-10.36-6.84-15.24-11.16-19.05-27.74-32.28-46.28-43.3-19.14-11.38-40.31-18.17-60.94-26.16-3.27-1.27-7.19-1.72-9.06-5.43-18.84-8.89-36.9-18.81-52.81-32.68-23.41-20.41-39.56-45.41-50.21-74.25-5.41-14.67-7.69-30.04-9.58-45.49-1.73-14.11-.63-28.21-.31-42.34.63,17.46,1.94,34.75,4.82,52.08,4.61,27.72,14.56,52.75,30.84,75.61,15.9,22.35,36.4,38.98,60.74,51.02,13.26,6.56,27.17,11.67,41.43,15.7,8.63,2.44,17.21,5.56,26.03,6.74,13.88,1.85,27.58,4.71,41.46,6.45,7.86.99,15.23,6.06,22.69,5.72,10.03-.46,18.17,7.61,28.22,4.63.29-.09.72.23,1.06.4,16.65,8.01,30.52,19.34,40.94,34.67,2.69,3.96,6.71,7.83,3.36,13.48-.1.17,1.52,1.35,2.33,2.06,9.04-4.29,17.74-9.15,25.82-15.07-2.78-7.42-7.34-13.64-12.09-19.97-16.8-22.36-38.8-37.69-64.23-48.18-18.42-7.6-38.06-11.15-57.6-14.91-31.02-5.96-61.38-13.3-87.42-33.26-13.35-10.24-24.71-21.74-34.09-35.47-1.42-2.07-2.92-4.16-1.79-6.91-8.4-12.85-14.6-26.76-19.95-41.09l-.41-.11s.18-.37.18-.37c-.29-.68-.57-1.36-.86-2.04-1.43-1.69-2.45-3.49-1.63-5.81-.19-.43-.37-.86-.56-1.29-3.84-7.72-5.48-16.1-6.76-24.49-1.44-9.43-2.22-18.97-3.28-28.46,1.37-11.72-8.01-19.06-12.41-28.26-2.02-4.22-4.85-8.08-5.69-12.97-.29-1.66-.83-3.54-1.9-4.75-3.07-3.46-2.06-6.85-.4-10.34.73-1.55,1.97-2.9,2.48-4.5,5.41-17.02,15.33-31.62,24.88-46.4,4.38-6.78,9.16-13.32,13.76-19.96l-1.48-1.06c-8.86,9.05-17.2,18.52-23.56,29.64.31,1.9-.05,3.42-2.25,3.88l-.14-.03c.18,3.24-1.21,5.22-4.54,5.66l.17.23c-.2.71-.64,1.02-1.38.83-4.19,3.09-5.73,8.54-9.94,11.63,7.77-14.09,16.5-27.46,27.33-39.37,4.1-4.51,2.75-10.19-2.96-13.37-15.12,12.4-29.06,25.74-40.7,41.75-15.13,20.81-27.35,42.95-35.95,67.1-2.1,5.9-5.18,11.67-4.71,18.29-.55,9.06-3.93,17.71-3.79,26.91.02,1.45,0,4.07-2.72,4.37-.1.87-.2,1.73-.3,2.6,2.3,3.74.83,7.84,1.07,11.76.69,11.49-1.21,23.07,1.23,34.5h.01c1,.17,1.95.52,2.12,1.63,1.45,9.93,2.55,19.83,5.61,29.58,2.05,6.53,3.45,13.44,6.17,19.69,3.61,8.28,7.87,16.18,15.32,22.29,4.28,3.51,9.94,4.48,13.48,8.51,6.76,7.69,15.6,12.94,22.79,20.07,3.24,3.21,4.99,7.92,9.12,10.19,10.19,5.61,19.12,13.07,29.33,18.81,19.88,11.18,40.74,19.92,61.75,28.43,6.83,2.76,12.67,8.38,20.79,7.6l-.02.02c-5.93-5.9-14.04-7.98-21.35-10.8-25.04-9.66-49.7-19.83-71.37-36.07-19.22-14.4-34.89-31.99-46.85-52.77-7.3-12.69-12.84-26.12-16.52-40.42-3.55-13.79-6.83-27.52-7.02-41.82.02-8.84.04-17.68.06-26.52.38-12.28,2.55-24.24,6.19-35.96.4,2.36.2,4.64-.1,6.9-.95,7.23-2.58,14.43-2.78,21.68-.57,21.54.32,42.87,5.2,64.15,7.02,30.57,20.2,57.49,41.97,80.08,4.64,4.82,9.54,9.33,14.92,13.5,5.06,3.92,9.52,8.75,15.09,12.21,20.05,12.44,41.67,21.51,63.65,29.81,21.47,8.11,42.79,16.5,59.14,33.59,9.08,9.5,17.39,19.51,18.83,33.3.24,2.32-16.31,1.27-14.53,3.29-9.45,0,.53.82-9.18.82-7.98-.88,29.82.99,36.5.99" fill="#e32554"/><path d="M185.68,488c6.39,1.41,12.77,2.84,19.17,4.22,4,.86,7.26,1.52,11.52-1.62,3.45-2.54,9.7-1.59,14.53.21,4.11,1.53,8.32,1.37,12.55,1.34,2.93-.02,3.82-1.25,2.39-4.01-6.46-12.51-16.06-22.24-27.1-30.7-1.68-1.29-2.84-1.19-4.3.64-2.96,3.71-4.96,7.7-5.35,12.45-.24,2.97-.82,5.27-4.46,2.61-20.49-14.98-43.68-24.7-67.08-33.9-8.91-3.5-17.41-8.13-26.87-10.27-2.03-.46-3.7-.1-5.6.35-4.04.95-4.1,3.26-1.92,5.8,6.03,7.03,11.18,15.06,20.92,17.93,1.98.58,3.4,2.93,5.16,4.35,6.59,5.31,14.58,8.23,21.78,12.51,2.73,1.62,3.93,3.11,3.19,6.03l-1.64.67c-8.52-4.73-17.1-9.36-25.6-14.13-16.09-9.03-29.68-21.45-44.04-32.81.09-.91-.49-1.22-1.24-1.38,0,0,.16.02.16.02-5.06-6.38-11.34-11.63-16.4-18.07-19.62-24.94-34.16-52.33-43.93-82.66-10.25-31.84-13.86-64.04-10.48-97.17,2.3,3.74.83,7.84,1.07,11.76.69,11.49-1.21,23.07,1.23,34.5-.16.09-.32.18-.48.27.16-.09.33-.17.49-.26,1,.16,1.95.5,2.12,1.62,1.45,9.93,2.55,19.83,5.61,29.58,2.05,6.53,3.45,13.44,6.17,19.69,3.61,8.28,7.87,16.18,15.32,22.29,4.28,3.51,9.94,4.48,13.48,8.51,6.76,7.69,15.6,12.94,22.79,20.07,3.24,3.21,4.99,7.92,9.12,10.19,10.19,5.61,19.12,13.07,29.33,18.81,19.88,11.18,40.74,19.92,61.75,28.43,6.83,2.76,12.67,8.38,20.79,7.6.16.16.31.32.47.49-.03-.1-.02-.24-.09-.29-.11-.09-.26-.12-.4-.18-5.93-5.9-14.04-7.98-21.35-10.8-25.04-9.66-49.7-19.83-71.37-36.07-19.22-14.4-34.89-31.99-46.85-52.77-7.3-12.69-12.84-26.12-16.52-40.42-3.55-13.79-6.83-27.52-7.02-41.82,1.71-8.84,1.39-17.68.06-26.52.38-12.28,2.55-24.24,6.19-35.96.4,2.36.2,4.64-.1,6.9-.95,7.23-2.58,14.43-2.78,21.68-.57,21.54.32,42.87,5.2,64.15,7.02,30.57,20.2,57.49,41.97,80.08,4.64,4.82,9.54,9.33,14.92,13.5,5.06,3.92,9.52,8.75,15.09,12.21,20.05,12.44,41.67,21.51,63.65,29.81,21.47,8.11,42.79,16.5,59.14,33.59,9.08,9.5,17.39,19.51,18.83,33.3.24,2.32,3.84,3.21,5.62,5.24l-29.33-1.12-23.11-2.55c-5.01-.86-15.26-2.52-23.57-5.19l-34.36-14.59" fill="#761c62"/><path d="M202.67,22.7c-5.45,6.28-1.72,13.48-2.3,20.41,7.97-8.46,13.84-18.45,22.64-25.88.31,4.06-3.56,6.13-4.61,9.59-.4,1.32-1.38,2.37.04,3.51,1.18.94,2.03-.13,3.08-.51,5.28-1.91,6.4-7.92,11.53-11.19-1.82,6.38-5.48,11.04-8.41,15.89-6.41,10.61-10.72,21.96-13.85,33.85-.1.37-.25.73-.31,1.11-.2,1.19.07,3.13,1,2.88,5.29-1.38,8.21,5.77,11.7,4.26,2.33-1.01,2.47-7.05,3.59-10.83.64.05,1.28.1,1.92.15.19,8.2,3.17,11.09,11.72,11.6,1.43.08,3.67-1.09,4.01,1.74-7.1.23-13.77,2.33-20.62,4.06-8.42,2.13-15.68,7.03-24.15,8.7,1.36-8.63,6.73-16.11,7.11-25.02.29-.4.58-.8.87-1.2-1.3-.25-.48.87-.81,1.26-3.03,1.02-2.43,4.07-3.29,6.2-2.93,7.24-5.49,14.62-11,20.48-.57.6-.56,1.74-.82,2.63-5.05,4.06-10.1,8.12-15.14,12.18-3.25-5.64,1.04-10.69,1.23-16.06,3.11-4.14,4.76-8.89,5.79-13.9.99-.47,1.17-1.34,1.16-2.32.3-.41.6-.82.9-1.23-.2-.1-.41-.2-.61-.3-.08.53-.15,1.05-.23,1.58-1.3.32-1.09,1.39-1.16,2.32-3.15,4.12-4.94,8.81-5.8,13.89-4.66,6.82-5.7,15.08-8.9,22.48-2.8,3.88-5.47,7.88-9.34,10.84-8.25.6-12.67,7.99-19.54,11.09-2.31,1.04-4.53,4.81-6.6,3.4-2.66-1.81-.32-5.33.58-7.9,2.98-8.45,5.72-16.94,6.87-25.87,1.24-.22,1.28-1.23,1.44-2.16,3.72-5.93,7.56-11.8,8.76-18.9,1.7-.14,1.43-1.23,1.13-2.34,2.7.13,2.63-2.05,3.52-4.18-2.43.87-2.94,2.56-3.43,4.25-.89.53-1.18,1.35-1.15,2.33-4.33,5.53-7.03,11.89-9.41,18.41-.93.53-1.06,1.43-1.08,2.37-7.54,14-12.12,29.08-16.07,44.37-1.82,7.06-3.38,14.19-5.05,21.29-.13.56-.27,1.62-.35,1.61-5.6-.36-7.87,5.66-12.66,6.63-3.54.71-6.63.46-6.01-4.69,1.03-8.52,1.77-17.07,2.78-25.59.27-2.3.79-4.55.35-6.88-.79-6.73,2.47-12.69,3.6-19.05.23-1.27.68-2.49,1.03-3.73,4.74-4.87,5.26-11.37,6.77-17.49-.46-2.23.57-4.11,1.46-6.01,2.81-.45,2.17-2.57,2.15-4.4l-.06.06c3.27-1.06,3.07-4.39,4.2-6.75,2.54-5.28,6.11-10.08,7.49-15.9l-.08.11c2.42-1.49,3.6-3.64,3.48-6.48l-.05.06c1.74-.09,1.24-1.36,1.25-2.37l-.06.08c.93.09,1.25-.4,1.2-1.25l-.07.08c1.59-.17,1.27-1.35,1.25-2.37l-.06.06c.62-.13,1.23-.25,1.85-.38-.22-.42-.44-.85-.66-1.27,4.17-7.46,10.14-13.56,15.27-20.3,1.39-.56,2.88-.96,4.16-1.7,13.8-7.97,28.88-11.99,44.42-14.66.01,1.11,1.3,2.22.39,3.27ZM190.23,65.61c-1.4-.13-.46,1-.78,1.44-.39.39-.78.77-1.17,1.16-.73,1.24-1.46,2.48-2.45,4.14,2.98-.79,2.29-2.67,2.38-4.2.77,0,1.08-.46,1.18-1.15.28-.46.55-.93.83-1.39ZM157.93,75.09c-1.35-.36-.63.81-.91,1.23l-.8.53c.95.69.65-.19.74-.58.32-.39.65-.78.97-1.17ZM193.73,58.69c-1.83.69-1.75,2.28-1.95,3.73-.26.14-.52.29-.78.43.88.76.52-.27.72-.5,1.18-.91,2.09-1.97,2.01-3.67Z" fill="#359eb0"/><path d="M461.52,390.64c11.57-16.26,19.88-34.14,26.4-52.92,7.03-20.24,11.43-41.03,12.63-62.45-1.32-13.94.15-28.01-1.72-41.94-.17-1.24-.52-2.72.76-3.76-.08-.91-.15-1.81-.23-2.71-1.62-.14-4.29.35-3.65-2.24,2.34-9.55-2-17.98-3.77-26.86-.76-3.81-4.3-5.51-5.16-9.34-3.56-15.87-10.37-30.51-17.68-45-16.98-33.66-42.25-59.92-72.48-81.67-19.47-14.01-41.2-23.93-63.4-32.78-3.69-1.47-7.47-3.28-11.72-2.5,0,0-.03.04-.03.04,5.58,3.94,11.23,7.79,16.73,11.83,13.1,9.63,27.44,17.58,39.4,28.77.85,0,1.73-.04,1.79,1.17l-.07-.06c.89-.08,1.34.27,1.22,1.21l-.05-.04c3.54.49,6.28,1.93,6.95,5.83l-.02-.02c1.03-.24,1.62-.05,1.19,1.18h0c5.23.25,7.71,3.65,9.27,8.1l-.02-.03c1.16-.36,1.56.03,1.2,1.19l-.04-.06c1.06-.12,1.15.55,1.08,1.34.43,1.09,1.12,1.91,2.31,2.2,1.76-.4,2.84.6,4,1.72,13.05,12.74,24.77,26.61,34.43,42.09,12.66,20.31,23.79,41.27,29.5,64.87,3.71,15.33,7.16,30.67,8.36,46.36,2.69,35.06-3.81,68.92-14.45,102.15-1.52,4.76-1.93,9.59-1.56,14.65.53,7.26-.07,14.4-3.15,21.33-2.38,5.36-6.91,9.26-8.99,14.7,1.76.47,3.52.95,5.28,1.42l.31-.27s-.18-.36-.18-.36c-.11-2.85,1.33-4.49,4.02-5.15.34-.4.67-.8,1.01-1.2.19-.27.38-.54.58-.81Z" fill="#359eb0"/><path d="M377.59,67.11c-11.96-11.2-26.3-19.14-39.4-28.77-5.5-4.05-11.15-7.9-16.73-11.83-.93-.06-1.87-.13-2.31-1.17-.13-.09-.29-.15-.39-.27-.06-.07-.03-.21-.04-.32.15.19.3.38.45.57,1.07-.21,2.01-.17,2.32,1.15,4.24-.78,8.03,1.03,11.72,2.5,22.2,8.84,43.93,18.77,63.4,32.78,30.23,21.75,55.5,48.01,72.48,81.67,7.31,14.49,14.12,29.13,17.68,45,.86,3.83,4.4,5.53,5.16,9.34,1.77,8.89,6.11,17.32,3.77,26.86-.64,2.59,2.03,2.1,3.65,2.24,1.88-6.34-1.03-12.24-2.2-18.11-6.69-33.71-19.16-65.19-39.28-93.21-14.43-20.1-31.83-37.3-51.81-52.14-20.14-14.96-42.03-26.29-65.27-35.26-13.8-5.33-27.95-9.42-42.75-11.1-6.84-.77-13.6-2.34-20.34-3.78-3.09-.66-6.08-.83-9.13-.11.28.6.56,1.21.84,1.81,0,0-.1-.13-.1-.13,3.74,5.25,8.29,9.94,10.94,15.94.94-.51,1.54.16,1.88.77,5.53,9.74,10.08,19.91,13.42,30.6.11.34-.48.9-.75,1.35.16.8.32,1.61.48,2.41,6.45,12.2,18.99,18.38,28.08,27.89.61-1.4.09-3.03-.5-4.59-2.31-6.1-4.59-12.22-7.08-18.26-2.63-6.37-5.49-12.65-8.25-18.96-.28-.36-.58-.72-.82-1.1-.02-.03.36-.3.55-.46.17.47.33.93.5,1.4,1.31.2,1.88,1.23,2.44,2.24,7.08,12.73,13.61,25.71,18.57,39.45.88,2.43.81,5.8,3.65,6.86,6.8,2.54,11.55,8.13,17.82,11.41,4.99,2.61,8.33,6.85,10.3,11.98,4.28,11.19,8.81,22.3,11.9,33.91.29,1.1-.4,3.07,2.02,2.4-.04-.33.03-.62.2-.89-1.24-.9-1.4-2.15-1.11-3.53-.3-1.85-.53-3.79-.67-5.57-.46-5.74-4.32-10.59-3.89-16.46-1.42-.51-1.25-1.72-1.25-2.85l.03.04c-1.46-1.28-2.01-2.79-1.25-4.67l.04.07c-3.04-3.29-3.66-7.54-4.63-11.65l.04.05c-1.66-1.83-2.55-3.94-2.35-6.44l.04.08c-1.24-.65-1.47-1.7-1.2-2.97l.02.12c-1.76-.85-1.93-2.74-2.64-4.22-6.17-13-13.16-25.51-21.49-37.26-4.4-6.2-8.74-12.43-13.11-18.65l.15-.13c-1.41,0-1.37-.85-1.1-1.85-7.22-6.77-14.44-13.55-22.46-21.07,10.17.83,16.63,7.07,24.01,10.81,24.14,12.26,45.03,29.46,65.07,47.41,25.8,23.11,46.99,50,61.59,81.71,2.8,6.09,6.39,11.93,8.35,18.28,3.68,11.92,7.53,23.83,9.88,36.14.39,2.06.38,5.09,4.09,4.02-.51-1.21-1.01-2.43-1.52-3.64-.97-.89-.38-1.5.37-2.07-.78-2.12-1.87-4.19-2.28-6.38-2.21-11.72-5.9-22.99-10.26-34.03-9.24-23.37-21.9-44.74-37.54-64.43-5.61-7.07-12.49-13.07-17.2-20.87-1.19-.29-1.88-1.11-2.31-2.19-.36-.45-.72-.89-1.09-1.34,0,0,.04.06.04.06-.74-.05-1.13-.46-1.2-1.19,0,0,.02.03.02.03-4-1.66-6.59-4.94-9.27-8.1,0,0,0,0,0,0-.78,0-1.27-.3-1.19-1.18,0,0,.02.02.02.02-3-1.13-5.02-3.44-6.95-5.83,0,0,.05.04.05.04-.76-.05-1.23-.39-1.22-1.21,0,0,.07.06.07.06-.6-.39-1.19-.78-1.79-1.17Z" fill="#dbd8cb"/><path d="M300.55,494.94c15.75-2.72,30.86-7.72,45.98-12.73,4.77-2.95,11-2.32,15.37-6.25-.82-.71-2.43-1.89-2.33-2.06,3.35-5.65-.66-9.52-3.36-13.48-10.42-15.33-24.29-26.65-40.94-34.67-.35-.17-.77-.48-1.06-.4-10.05,2.98-18.19-5.09-28.22-4.63-7.46.34-14.83-4.74-22.69-5.72-13.88-1.74-27.58-4.61-41.46-6.45-8.82-1.17-17.4-4.29-26.03-6.74-14.26-4.04-28.17-9.14-41.43-15.7-24.34-12.04-44.84-28.67-60.74-51.02-16.28-22.87-26.23-47.9-30.84-75.61-2.88-17.32-4.19-34.61-4.82-52.08-.32,14.12-1.41,28.23.31,42.34,1.89,15.45,4.16,30.82,9.58,45.49,10.64,28.84,26.79,53.84,50.21,74.25,15.91,13.87,33.97,23.79,52.81,32.68,20.57,8.78,42.05,15.23,62.55,24.21,2.83,1.24,5.03,4.42,8.75,3.51,10.01-.51,19.75,1.47,29.53,3.07,5.38-1.66,9.7.71,13.86,3.64l-.06-.04c2.33-.14,4.74-.49,5.86,2.36l-.08-.05c2.12.35,5.09-1.38,5.84,2.37l-.04-.03c1.97-.27,3.77-.05,5.47,1.22,2.83,2.12,5.01.69,6.99-1.53,2.32-2.59,1.61-4.8-.57-7.08-.92-.95-2.77-1.69-1.49-4.15,20.63,6.64,35.18,20.6,46.85,38.12,1.9,2.85.46,4.76-2.46,5.67-3.69,1.15-7.51,2.12-10.6,4.46-2.58,1.95-3.98,1.33-5.54-1.1-2.06-3.23-3.58-6.87-6.8-9.25-3.02,3.05-3.87-.71-5.31-1.86-3.68-2.93-6.62-6.44-11.13-8.74-7.55-3.86-15.61-2.58-23.33-4.01-7.97-1.47-16.29-.91-22.5-7.46-1.05-1.11-2.27-2.09-3.49-3.03-1.99-1.52-3.99-3.16-6.8-2.02,6.29,4.65,11.51,10.61,18.19,14.77.58-.77,1.13-1.05,1.63.07,0,0-.19-.14-.18-.14,13.15,10.2,22.52,22.72,24.52,39.78Z" fill="#761c62"/><path d="M223.03,17.21c1.9.32,2.23-1.04,2.56-2.39,14.34-3.5,28.86-2.32,43.36-1.68.17.6-.91,1.53.47,1.82,0,0-.1-.13-.1-.13.17,12.33,3.45,24.31,4.1,36.59.28,5.37,1.01,10.71,1.53,16.07.03,4.51.05,9.02.08,13.53-7.75-.34-15.52-.42-23.11-2.27.53-7.62,1.05-15.24,1.58-22.86,1.14-6.52,1.77-13.09,1.76-21.29-1.45,6.7-2.75,11.83-2.8,17.17-1.31,9.02-2.61,18.04-3.92,27.06-1.24,1.3-2.66.99-4.1.46-.34-2.83-2.58-1.66-4.01-1.75-8.55-.51-11.54-3.39-11.72-11.59l2.67-10.1c1.11-3.15,2.23-6.29,3.34-9.44-2.53,2.03-3.46,4.66-3.71,7.58-2.09,3.69-3.11,7.77-4.23,11.81-1.12,3.79-1.27,9.83-3.59,10.83-3.49,1.51-6.41-5.64-11.7-4.26-.93.24-1.2-1.7-1-2.88.06-.38.21-.74.31-1.11,3.13-11.89,7.44-23.24,13.85-33.85,2.93-4.86,6.6-9.52,8.41-15.89-5.12,3.27-6.25,9.29-11.53,11.19-1.05.38-1.9,1.45-3.08.51-1.42-1.14-.44-2.19-.04-3.51,1.05-3.47,4.93-5.53,4.61-9.59l.02-.02ZM236.18,40.04c-.15.51-.3,1.02-.44,1.53-.2.3-.4.6-.6.91.13-.13.27-.24.39-.38.11-.14.2-.3.29-.46.12-.53.24-1.06.36-1.59Z" fill="#dbd8cb"/><path d="M118.68,92.49s.06-.06.06-.06c-1.76.96-.86,3.22-2.15,4.41-.89,1.9-1.92,3.77-1.46,6.01-4.04,5.14-4.78,11.56-6.77,17.49-.35,1.24-.81,2.47-1.03,3.73-1.14,6.36-4.4,12.32-3.6,19.05-4.05,10.66-4.24,21.87-4.84,33.04l-.29.36.26.38c-.04,5.8-.08,11.59-.12,17.39-.5,1.42-1,2.84-1.5,4.26,1.37-11.71-8.01-19.05-12.41-28.26-2.02-4.22-4.85-8.08-5.69-12.97-.29-1.66-.83-3.54-1.9-4.75-3.07-3.46-2.06-6.85-.4-10.34.73-1.55,1.97-2.9,2.48-4.5,5.41-17.02,15.33-31.62,24.88-46.4,4.38-6.78,9.16-13.32,13.76-19.96l-1.48-1.06c-8.86,9.05-17.2,18.52-23.56,29.64-1.59.81-2.82,1.83-2.24,3.89,0,0-.14-.04-.14-.04-2.72.92-3.79,3.16-4.53,5.66,0,0,.16.22.16.22-.8-.27-1.13.23-1.39.84-4.19,3.09-5.73,8.53-9.93,11.62,7.77-14.09,16.5-27.46,27.33-39.37,4.1-4.51,2.75-10.19-2.96-13.37.3-1.97,1.97-2.68,3.34-3.7,5.55-4.11,10.88-8.54,16.65-12.3,10.86-7.08,21.54-14.62,34.5-17.62-5.13,6.74-11.1,12.84-15.27,20.3-.4.55-.79,1.1-1.19,1.65,0,0,.06-.06.06-.06-.93.52-1.52,1.22-1.25,2.37,0,0,.07-.08.07-.08-.92-.08-1.14.51-1.2,1.25,0,0,.06-.08.06-.08-.95.51-1.5,1.23-1.25,2.37,0,0,.05-.06.05-.06-2.09,1.66-3.64,3.61-3.48,6.48,0,0,.08-.1.08-.1-5.8,6.57-8.71,14.62-11.69,22.65ZM121.98,64.98c-.26.78.49.91.96.71.44-.18.73-.7,1.09-1.07-.27-.2-.53-.41-.9-.69-.39.34-1.01.62-1.15,1.05ZM120.61,67.48l-.34.04.21.31.13-.35Z" fill="#dbd8cb"/><path d="M130.5,302.19c-1.13,2.75.37,4.83,1.79,6.91,9.38,13.73,20.74,25.23,34.09,35.47,26.03,19.96,56.39,27.3,87.42,33.26,19.54,3.75,39.18,7.3,57.6,14.91,25.43,10.49,47.43,25.83,64.23,48.18,4.75,6.33,9.32,12.55,12.09,19.97,1.42.03,2.94.24,3.32-1.72-1.89-1.07-2.66-2.71-2.47-4.84-1.86-.99-2.41-2.96-3.3-4.62-11.82-22.12-30.57-37.5-51.11-50.53-10.4-6.6-22.2-11.27-34.4-14.27-1.86-.46-3.81-.7-4.77-2.7-3.08-.45-6.16-.89-9.24-1.34-.72-.04-1.32-.23-1.42-1.08l.09.07c-11.09-1.44-22.11-3.25-32.7-7.02-4.49-.77-8.97-1.54-13.46-2.31-4.55-.34-8.88-1.51-12.99-3.48l.1.05c-1.55.16-3.04.15-4.15-1.21-1.56.67-2.83.26-3.82-1.08-.91-1.19-2.3-1.19-3.6-1.53-8.02-2.11-15.97-4.49-23.39-8.22-24.57-12.38-44.48-30.1-59.9-52.88Z" fill="#dbd8cb"/><path d="M388.57,454.33c-.19,2.13.58,3.77,2.47,4.84,23.23-13.91,42.77-31.94,59.3-53.3,1.88-2.43,3.64-4.96,5.46-7.44-1.76-.47-3.52-.95-5.28-1.42-4.95,1.65-5.48,7.19-8.93,10.19-10.99,9.56-19.87,21.26-31.21,30.54-3.57,2.92-4.87,3.58-6.51-.91-.31-.84-.33-1.97-2.15-1.86,2.29,6.16-.03,9.81-5.73,12.83-2.61,1.38-6.34,2.83-7.42,6.54Z" fill="#761c62"/><path d="M202.28,19.43c.01,1.11,1.3,2.22.39,3.27-5.45,6.28-1.72,13.48-2.3,20.41,7.97-8.46,13.84-18.45,22.64-25.88,0,0,.02-.02.02-.02.44-.76.87-1.52,1.31-2.28-7.66.02-15.13.95-22.06,4.49Z" fill="#dbd8cb"/><path d="M499.59,229.57c-1.28,1.04-.93,2.52-.76,3.76,1.87,13.93.4,28,1.72,41.94,2.2-.57,1.51-2.4,1.52-3.78.14-12.97.42-25.94-1.19-38.85-.13-1.06-.85-2.05-1.29-3.07Z" fill="#dbd8cb"/><path d="M11.34,227.83c2.72-.3,2.74-2.92,2.72-4.37-.15-9.19,3.24-17.85,3.79-26.91-3.7,5.14-3.4,11.41-4.71,17.2-1.04,4.59-1.23,9.38-1.79,14.08Z" fill="#761c62"/><path d="M459.94,392.64c-2.69.67-4.13,2.3-4.02,5.15,1.99-1.21,2.99-3.2,4.02-5.15Z" fill="#761c62"/><path d="M224.34,14.94c-.44.76-.87,1.52-1.31,2.28,1.9.32,2.23-1.04,2.56-2.39-.41.04-.83.08-1.25.12Z" fill="#359eb0"/><path d="M268.95,13.14c.17.6-.91,1.53.47,1.82-.28-.6-.56-1.21-.84-1.81,0,0,.17-.27.17-.27l.2.26Z" fill="#0f1a3e"/><path d="M461.52,390.64c-.19.27-.39.54-.58.81.34-.16.53-.43.58-.81Z" fill="#761c62"/><path d="M385.27,449.71c-11.82-22.12-30.57-37.5-51.11-50.53-10.4-6.6-22.2-11.27-34.4-14.27-1.86-.46-3.81-.7-4.77-2.7,8.4,1.67,16.81,3.27,25.19,5.03,4.37.92,8.73,1.53,10.55-3.72,1.05-3.02,3.55-1.32,5.17-2.35-.16-2.72-2.4-3.33-4.08-4.35-16.21-9.81-33.94-15.25-52.45-18.67-11.67-2.16-23.24-4.89-34.85-7.36-4.61-1.8-9.2-3.69-13.85-5.38-10.16-3.69-18.83-10.08-28.11-15.38-1.61-.92-3.33-1.63-5-2.44l.02.03c-.28-.75-.08-1.77-1.14-2.1-1.66-1.21-3.51-2.23-4.95-3.66-3.87-3.87-7.25-7.27-13.9-4.95-4.72,1.64-9.2-2.89-14.02-3.95-1.47-.32-2.87-.99-4.29-1.5-.14-.18-.28-.36-.42-.55.02.1,0,.24.07.29.11.1.26.14.39.21,2.69,7.22,8.21,12.37,13.43,17.59,13.86,13.88,30.04,24.5,48.12,32.63-1.33,1.31-3.95.6-3.5,3.17-.91-1.19-2.3-1.19-3.6-1.53-8.02-2.11-15.97-4.49-23.39-8.22-24.57-12.38-44.48-30.1-59.9-52.88-8.4-12.85-14.6-26.76-19.95-41.09.1-.26.03-.42-.23-.48-.28-.68-.57-1.36-.85-2.03.32-2.18-.3-4.1-1.63-5.81-.18-.42-.37-.85-.55-1.28-1.57-7.48-3.15-14.95-4.7-22.43-2.37-11.48-2.54-23.2-3.85-34.79.04-5.79.08-11.59.12-17.39.19-.24.2-.5.03-.75.6-11.16.8-22.37,4.84-33.03.44,2.32-.08,4.58-.35,6.88-1.02,8.52-1.75,17.07-2.78,25.59-.62,5.14,2.47,5.4,6.01,4.69,4.79-.97,7.06-6.99,12.66-6.63.08,0,.22-1.05.35-1.61,1.67-7.1,3.23-14.23,5.05-21.29,3.95-15.29,8.52-30.37,16.07-44.37,0,0,.21.21.22.21-1.14,8.93-3.88,17.42-6.86,25.87-.91,2.57-3.24,6.09-.58,7.9,2.07,1.41,4.28-2.36,6.6-3.4,6.87-3.1,11.29-10.49,19.54-11.09-2.22,3.97-4.44,7.94-6.67,11.91-1.47.1-2.01.88-1.69,2.3l.03-.03c-1.39.36-1.51,1.26-1.04,2.42l.02.07c-.56.04-1.5-.11-1.62.13-5.42,11.74-10.31,23.64-11.05,36.79-.11,1.12-.23,2.24-.34,3.36-1.07.59-1.16,1.45-.7,2.47-.04.77-.08,1.54-.13,2.31-.76,6.09-.73,12.19,0,18.28.08,1.96.17,3.92.25,5.88-.67,1.84.24,3.28,1.17,4.72.17.87.34,1.74.51,2.62.06.59.12,1.19.17,1.78.15.83.29,1.66.44,2.48-.4,1.11.31,1.76,1.01,2.41,10.07,38.01,33.83,63.42,70.82,76.34,21.38,7.47,43.3,8.96,65.53,4.13,4.62,1.95,7.94-1.85,11.79-2.95,6.38-1.82,12.88-3.66,18.54-7.53,5.94-4.06,6.68-8.66,2-14.49,11.04-7.59,22.44-14.74,30.47-25.87.28-.03.43-.18.44-.46.57.01.79-.24.61-.79l.29-.33.44.19c.21,1.79-2.48,3.83.79,5.4,2.9,1.39,4.69.24,6.5-1.78,7.37-8.25,10.73-18.44,13.97-28.69.46-1.45.86-2.92,1.44-4.92,1.64,2.97,2.01,5.34,1.09,8.27-2.57,8.16-3.03,16.87-6.98,24.73-1.88,3.73,1.21,8.21-.62,12.23-9.15-3.49-17.32-1.88-24.51,4.75-4.52,3.31-6.46,8.07-7.55,13.32-6.86,1.96-10.07,10.54-6.81,18.2,1.68,6.96,4.69,12.87,10.09,18.06,12.04,11.57,23.35,23.89,35.04,35.82,9.98,10.19,19.93,20.42,30.16,30.36,8,7.77,21.82,9.64,31.82,5.17,11.93-5.34,16.73-15.1,17.55-27.43.05-.8-.83-1.66-1.28-2.49,2.37-12.3-2.32-21.44-12.02-28.94-5.76-4.45-10.68-10.01-15.97-15.06.91-3.24,1.81-6.49,2.72-9.73,1.82-5.42,3.16-10.94,3.37-16.69.77-7.35,1.55-14.69,2.32-22.04.49-2.25.52-4.51,0-6.76-.85-10.18-1.7-20.35-2.54-30.52,2.52,2.94,2.22,6.63,2.69,10.11,1.61,12.04,1.3,24.15,1.2,36.26,0,.19,0,.39,0,.58.05,1.74-.17,3.73,2.47,3.62,2.16-.09,2.16-1.78,2.22-3.36.51-14.43.6-28.98-1.62-43.14-1.3-8.34-6.35-16.14-7.85-24.82-.06-.37-.96-.99-1.16-.89-1.22.59-.94,1.94-1.26,2.99-3.45-6.82-3.72-14.63-6.74-21.58-4.48-17.98-12.37-34.55-21.12-50.75-5.29-9.8-11.34-19.14-18.26-27.89-1.97-5.01-6.25-8.23-9.52-12.21-1.37-1.67-1.66.28-2.08,1.2-1.76-.85-1.93-2.74-2.64-4.22-6.17-13-13.16-25.51-21.49-37.26-4.4-6.2-8.74-12.43-13.11-18.65,1.96-1.13,2.73.73,3.81,1.6,16.74,13.46,31.3,29.11,45.29,45.3,15.38,17.8,29.3,36.69,41.24,56.97,11.95,20.3,19.99,42.18,27.3,64.57,8.24,25.25,7.78,50.88,7.33,76.68-.12,6.87-1.24,13.75-2.78,20.52-.98,4.29-.82,7.71,3.98,10.51,5.72,3.35,12.62,6.45,12.71,15.21,4.41-10.46,7.17-21.07,9.45-31.83,4.8-22.6,5.18-45.36,2.85-68.25-.54-5.32-1.07-10.64-1.6-15.96-.5-1.22-1.01-2.43-1.52-3.65.12-.69.25-1.37.37-2.07-.78-2.13-1.87-4.2-2.28-6.39-2.21-11.72-5.9-22.99-10.26-34.03-9.24-23.37-21.9-44.74-37.54-64.43-5.61-7.07-12.49-13.07-17.2-20.87,1.76-.4,2.84.6,4,1.72,13.05,12.74,24.77,26.61,34.43,42.09,12.66,20.31,23.79,41.27,29.5,64.87,3.71,15.33,7.16,30.67,8.36,46.36,2.69,35.06-3.81,68.92-14.45,102.15-1.52,4.76-1.93,9.59-1.56,14.65.53,7.26-.07,14.4-3.15,21.33-2.38,5.36-6.91,9.26-8.99,14.7-4.95,1.65-5.48,7.19-8.93,10.19-10.99,9.56-19.87,21.26-31.21,30.54-3.57,2.92-4.87,3.58-6.51-.91-.31-.84-.33-1.97-2.15-1.86,2.29,6.16-.03,9.81-5.73,12.83-2.61,1.38-6.34,2.83-7.42,6.54-1.86-.99-2.41-2.96-3.3-4.62ZM238.51,328.79c-1.43-.06-3.18.42-2.17,2.21,1.49,2.63-1.57,6.51,3.03,8.35,12.49,5,25.21,3.05,37.92,1.83,3.22-.31,5.36-1.84,4.75-5.65-.69-4.29.26-7.85,5.17-9.52-16.4,2.03-32.49,3.46-48.7,2.77ZM422.28,301.07c1.93-3.7.82-7.04.87-10.27q-1.79,6.53-.87,10.27Z" fill="#0f1a3e"/><path d="M107.28,251.5c-1.57-7.48-3.15-14.95-4.7-22.43-2.37-11.48-2.54-23.2-3.85-34.79-.5,1.42-1,2.84-1.5,4.27,1.07,9.49,1.85,19.03,3.29,28.46,1.28,8.39,2.92,16.77,6.76,24.49Z" fill="#761c62"/><path d="M36.74,261.61c1.71-8.84,1.39-17.68.06-26.52-.02,8.84-.04,17.68-.06,26.52Z" fill="#0f1a3e"/><path d="M90.52,103.81c-2.72.92-3.79,3.16-4.53,5.66,3.32-.44,4.71-2.42,4.53-5.66Z" fill="#761c62"/><path d="M109.47,258.59c.32-2.18-.3-4.1-1.63-5.81-.82,2.33.2,4.13,1.63,5.81Z" fill="#761c62"/><path d="M92.91,99.96c-1.59.81-2.82,1.83-2.24,3.89,2.19-.46,2.55-1.98,2.24-3.89Z" fill="#761c62"/><path d="M86.15,109.69c-.8-.27-1.13.23-1.39.84.74.18,1.18-.13,1.39-.84Z" fill="#761c62"/><path d="M110.55,261.11c.1-.26.03-.42-.23-.48,0,0-.18.38-.18.38l.41.11Z" fill="#761c62"/><path d="M271.71,432.96c-9.78-1.6-19.53-3.59-29.53-3.07,1.6,3.78,5.08,4.92,8.55,6.04.76-.25,1.06.12,1.1.83,0,0-.03.04-.03.04,1.9-.38,3.69-.59,3.43,2.27,0,0,.13-.14.13-.14.78.08,1.14.5,1.05,1.3,0,0-.03.22-.03.23,2.8-1.14,4.81.5,6.8,2.02,1.22.93,2.43,1.91,3.49,3.03,6.21,6.55,14.53,5.99,22.5,7.46,7.72,1.43,15.78.15,23.33,4.01,4.5,2.3,7.45,5.81,11.13,8.74,1.44,1.15,2.3,4.91,5.31,1.86-1.48-1.74-2.99-3.46-4.45-5.22-7.56-9.09-17.9-14.57-27.39-21.14,0,0,.04.03.04.03-2.2-.17-4.16-.92-5.84-2.37,0,0,.08.05.08.06-2.17-.24-4.28-.64-5.86-2.36,0,0,.06.04.06.04-4.62-1.21-9.24-2.43-13.86-3.64Z" fill="#e32554"/><path d="M300.55,494.94c-2-17.06-11.37-29.59-24.52-39.78-1.94,1.75.07,2.75.88,3.71,9.11,10.81,16.54,22.6,21.45,35.91.48,1.31,1.39.93,2.18.16Z" fill="#0f1a3e"/><path d="M255.23,439.07c.25-2.86-1.53-2.65-3.43-2.27.68,1.45,1.8,2.26,3.43,2.27Z" fill="#761c62"/><path d="M82.95,429.68c.09-.91-.49-1.22-1.24-1.38.41.46.83.92,1.24,1.38Z" fill="#fbfdfc"/><path d="M251.83,436.76c-.04-.71-.34-1.08-1.1-.83.37.28.73.55,1.1.83Z" fill="#761c62"/><path d="M256.41,440.23c.09-.79-.27-1.21-1.05-1.3-.26.92.3,1.19,1.05,1.3Z" fill="#761c62"/><path d="M276.21,455.29c-.5-1.11-1.06-.84-1.63-.07.52.66,1.06.68,1.63.07Z" fill="#0f1a3e"/><path d="M154.17,476.13c10.11,5.03,20.68,8.83,31.52,11.88,6.38,1.4,12.76,2.83,19.16,4.21,4,.86,7.26,1.52,11.52-1.62,3.45-2.54,9.7-1.59,14.53.21,4.11,1.53,8.32,1.37,12.55,1.34,2.93-.02,3.82-1.25,2.39-4.01-6.46-12.51-16.06-22.24-27.1-30.7-1.68-1.29-2.84-1.19-4.3.64-2.96,3.71-4.96,7.7-5.35,12.45-.24,2.97-.82,5.27-4.46,2.61-20.49-14.98-43.68-24.7-67.08-33.9-8.91-3.5-17.41-8.13-26.87-10.27-2.03-.46-3.7-.1-5.6.35-4.04.95-4.1,3.26-1.92,5.8,6.03,7.03,11.18,15.06,20.92,17.93,1.98.58,3.4,2.93,5.16,4.35,6.59,5.31,14.58,8.23,21.78,12.51,2.79,1.66,3.98,3.17,3.15,6.21Z" fill="#0f1a3e"/><path d="M199.86,443.49c.16.16.31.32.47.49-.03-.1-.02-.24-.09-.29-.11-.09-.26-.12-.4-.18,0,0,.02-.02.02-.02Z" fill="#e32554"/><path d="M13.35,276.69c-.16.09-.32.18-.48.27.16-.09.33-.17.49-.26,0,0-.01-.01-.01-.01Z" fill="#e32554"/><path d="M275.03,81.02c-7.75-.34-15.52-.42-23.11-2.27-1.13.03-2.25.05-3.38.08-1.24,1.3-2.66.99-4.1.46-7.11.23-13.77,2.33-20.62,4.06-8.42,2.13-15.68,7.03-24.15,8.7-2.24,2.18-4.74,3.9-7.94,4.34-5.05,4.06-10.1,8.12-15.14,12.18-1.96,2.37-4.9,3.89-5.97,7.02.79.32,1.57,1.24,1.03,1.68-4.33,3.63-2.23,9.53-5.07,13.83-1.38,2.08-.59,5.37,2.13,7.11,2.13,1.36,3.82,3.33,3.23,5.68-1.81,7.13-.18,14.54-2.32,21.67-5.2,17.36-3.95,34.91,3.06,51.14,7.32,16.96,17.96,31.77,35.27,40.98,18.58,9.88,37.97,12.15,58.51,10.3,10.74-.97,19.79-6.1,29.2-10.15,4.53-1.95,9.07-5.83,10.74-11.43-16.15,10.98-33.59,17.94-53.5,17.31l-.34.21-.33-.23c-9.26-.07-17.93-2.59-26.85-5.01-12.78-3.47-23.22-9.77-32.34-18.91-7.79-6.96-12.52-15.87-16.25-25.42-5.09-13.13-6.36-26.68-4.39-40.58-.17-2.12.08-4.14,1.31-5.95.56-1.59,0-3.6,1.78-4.73l-.06.08c-.14-1.07-.55-2.27,1.18-2.44h-.2c-.64-1.68.49-2.94,1.03-4.31,4.06-10.27,11.27-18.25,18.85-25.96-.55-2.51,1.27-3.81,2.63-5.43,6.55-7.78,15.47-12.07,24.68-15.01,21.5-6.88,43.01-7.25,64.19,2.13,16.65,7.38,30.62,17.86,39.63,33.9,13.1,23.33,14.13,47.5,3.82,72.17-.52,1.24-1.18,2.54-1.21,3.83-.23,10.47-.44,20.95-.4,31.43.02,4.85,1.81,5.56,5.99,2.71,1.14-.78,2.1-1.78,3.57-.78.28-.03.43-.18.44-.46-.42-.75-.18-.99.62-.8,0,0,.29-.33.29-.33-.28-.68.02-1.1.63-1.37l.1-.1c.36-.33.71-.66,1.07-.99,7.86-10.01,13.87-20.97,17.57-33.22,9.23-30.61,6.35-59.68-10.7-87.02-8.95-14.35-20.67-25.94-35.13-34.71-5.18-3.14-10.53-6.01-15.8-9-4.18-1.41-8.36-2.82-12.54-4.23-3.56-.72-7.12-1.44-10.68-2.16Z" fill="#fbfdfc"/><path d="M339.18,255.41c-1.47-1-2.43,0-3.57.78-4.18,2.85-5.97,2.14-5.99-2.71-.04-10.48.17-20.95.4-31.43.03-1.29.69-2.59,1.21-3.83,10.3-24.68,9.27-48.84-3.82-72.17-9.01-16.04-22.97-26.53-39.63-33.9-21.18-9.38-42.69-9.01-64.19-2.13-9.21,2.95-18.13,7.23-24.68,15.01-1.36,1.62-3.18,2.92-2.63,5.43.8-.49,1.68-.88,2.4-1.47,28.88-23.39,72.01-25.52,102.21-4.4,4.35,1.86,7.6,5.19,10.88,8.39,13.16,12.83,20.68,28.66,22.34,46.74,1.55,16.94-1.05,33.34-11.73,47.5-3.74,7.72-9.94,13.39-15.99,19.17-1.67,5.6-6.2,9.48-10.74,11.43-9.41,4.05-18.47,9.18-29.2,10.15-20.54,1.86-39.93-.42-58.51-10.3-17.31-9.2-27.95-24.01-35.27-40.98-7-16.24-8.25-33.78-3.06-51.14,2.14-7.14.51-14.54,2.32-21.67.59-2.34-1.1-4.32-3.23-5.68-2.72-1.74-3.5-5.03-2.13-7.11,2.85-4.29.74-10.2,5.07-13.83.53-.45-.24-1.37-1.03-1.68-.55-.19-1.09-.37-1.64-.56-2.8,3.88-5.47,7.88-9.34,10.84-2.22,3.97-4.44,7.94-6.67,11.92-.23,1.01-.2,2.21-1.69,2.3,0,0,.03-.03.03-.03.56,1.19.31,2.04-1.04,2.41,0,0,.02.07.02.07-.07.92.09,1.94-.25,2.74-8.48,19.56-9.8,39.91-6.75,60.74.07.67.14,1.34.21,2.01.53,2.35,1.05,4.71,1.58,7.06.76.5.92,1.24.8,2.08,1.3,1.61,1.44,3.47,1.16,5.42l-.37.15c2.48,1.39,2.41,3.99,3.01,6.28.43.62.95,1.2,1.29,1.87,18.87,37.84,49.52,58.57,91.42,62.88,6.82.7,13.69.92,20.54,1.36.42-.36.81-.99,1.26-1.03,15.68-1.38,30.36-6.2,44.52-12.84,11.04-7.59,22.44-14.74,30.47-25.87Z" fill="#dbd8cb"/><path d="M191.73,96.39c3.19-.44,5.69-2.16,7.94-4.34,1.36-8.63,6.73-16.11,7.11-25.02l.06.05c-3.03,1.02-2.43,4.07-3.29,6.2-2.93,7.24-5.49,14.62-11,20.48-.57.6-.56,1.74-.82,2.63Z" fill="#0f1a3e"/><path d="M168.98,115.03c.55.19,1.09.37,1.64.56,1.07-3.12,4.01-4.65,5.97-7.02-3.25-5.64,1.04-10.69,1.23-16.07l.06.05c-4.66,6.82-5.7,15.08-8.9,22.48Z" fill="#0f1a3e"/><path d="M130.37,69.85c-5.8,6.57-8.71,14.62-11.69,22.65,3.27-1.06,3.07-4.39,4.2-6.75,2.54-5.28,6.11-10.08,7.49-15.9Z" fill="#0f1a3e"/><path d="M151.23,85.59c-4.33,5.53-7.03,11.89-9.41,18.41.19.15.38.3.58.43,3.72-5.93,7.56-11.81,8.76-18.9l.07.07Z" fill="#0f1a3e"/><path d="M115.13,102.85c-4.04,5.14-4.78,11.56-6.77,17.49,4.74-4.87,5.26-11.37,6.77-17.49Z" fill="#0f1a3e"/><path d="M177.82,92.5c3.11-4.14,4.76-8.89,5.79-13.9l.06.05c-3.16,4.12-4.94,8.81-5.8,13.89,0,0-.06-.05-.06-.05Z" fill="#0f1a3e"/><path d="M231,53.99c-2.09,3.69-3.11,7.77-4.23,11.81.64.05,1.28.1,1.92.15.89-3.36,1.78-6.73,2.67-10.09-.12-.62-.24-1.24-.36-1.87Z" fill="#761c62"/><path d="M133.77,63.47c-2.09,1.66-3.64,3.61-3.48,6.48,2.42-1.49,3.6-3.63,3.48-6.48Z" fill="#0f1a3e"/><path d="M152.29,83.19c2.7.13,2.63-2.05,3.52-4.18-2.43.87-2.94,2.56-3.43,4.25,0,0-.09-.07-.09-.07Z" fill="#0f1a3e"/><path d="M188.28,68.22c-.73,1.24-1.46,2.48-2.44,4.14,2.98-.79,2.29-2.67,2.38-4.2,0,0,.06.07.06.07Z" fill="#0f1a3e"/><path d="M191.71,62.36c1.18-.91,2.09-1.97,2.01-3.67-1.83.69-1.75,2.28-1.95,3.73l-.06-.07Z" fill="#0f1a3e"/><path d="M118.74,92.43c-1.76.96-.86,3.22-2.15,4.41,2.81-.45,2.17-2.58,2.15-4.41Z" fill="#0f1a3e"/><path d="M138.42,56.09c-.4.55-.79,1.1-1.19,1.65.62-.13,1.23-.25,1.85-.38-.22-.42-.44-.85-.66-1.27Z" fill="#0f1a3e"/><path d="M141.81,104c-.93.53-1.06,1.43-1.08,2.37,0,0,.21.21.22.21,1.24-.21,1.29-1.22,1.44-2.16-.2-.13-.39-.27-.58-.43Z" fill="#0f1a3e"/><path d="M151.16,85.53c1.7-.14,1.43-1.23,1.13-2.34,0,0,.09.07.09.07-.89.53-1.18,1.35-1.15,2.33,0,0-.07-.07-.07-.07Z" fill="#0f1a3e"/><path d="M183.61,78.61c.99-.47,1.17-1.34,1.16-2.32l.06.05c-1.3.32-1.09,1.39-1.16,2.32,0,0-.06-.05-.06-.05Z" fill="#0f1a3e"/><path d="M156.96,76.26c.32-.39.65-.78.97-1.17-1.35-.36-.63.81-.91,1.23l-.06-.06Z" fill="#0f1a3e"/><path d="M184.77,76.29c.3-.41.6-.82.9-1.23-.2-.1-.41-.2-.61-.3-.08.53-.15,1.05-.23,1.58,0,0-.06-.05-.06-.05Z" fill="#0f1a3e"/><path d="M189.4,67c.28-.46.55-.93.83-1.39-1.4-.13-.46,1-.78,1.44l-.05-.06Z" fill="#0f1a3e"/><path d="M206.78,67.03c.29-.4.58-.8.87-1.2-1.3-.25-.48.87-.81,1.26,0,0-.06-.05-.06-.05Z" fill="#0f1a3e"/><path d="M134.97,61.16c-.95.51-1.5,1.23-1.25,2.37,1.74-.09,1.24-1.36,1.25-2.37Z" fill="#0f1a3e"/><path d="M137.29,57.69c-.93.52-1.52,1.22-1.25,2.37,1.59-.17,1.27-1.35,1.25-2.37Z" fill="#0f1a3e"/><path d="M191.78,62.43c-.26.14-.52.29-.78.43.88.76.52-.27.72-.5,0,0,.06.07.06.07Z" fill="#0f1a3e"/><path d="M136.11,59.98c-.92-.08-1.14.51-1.2,1.25.93.09,1.25-.4,1.2-1.25Z" fill="#0f1a3e"/><path d="M189.46,67.06c-.39.39-.78.77-1.17,1.16,0,0-.06-.07-.06-.07.77,0,1.08-.46,1.18-1.15,0,0,.05.06.05.06Z" fill="#0f1a3e"/><path d="M157.02,76.32l-.8.53c.95.69.65-.19.74-.58,0,0,.06.06.06.06Z" fill="#0f1a3e"/><path d="M388.59,76.38c2.68,3.17,5.27,6.44,9.27,8.1-1.56-4.45-4.04-7.85-9.27-8.1Z" fill="#0f1a3e"/><path d="M380.47,69.39c1.94,2.4,3.95,4.7,6.95,5.83-.67-3.9-3.42-5.34-6.95-5.83Z" fill="#0f1a3e"/><path d="M399,85.59c.36.45.73.89,1.09,1.34.06-.79-.03-1.46-1.09-1.34Z" fill="#0f1a3e"/><path d="M379.3,68.23c0,.82.47,1.16,1.22,1.21.12-.93-.34-1.29-1.22-1.21Z" fill="#0f1a3e"/><path d="M377.59,67.11c.6.39,1.19.78,1.79,1.17-.05-1.21-.93-1.18-1.79-1.17Z" fill="#0f1a3e"/><path d="M397.84,84.45c.06.73.45,1.14,1.2,1.19.36-1.16-.04-1.56-1.2-1.19Z" fill="#0f1a3e"/><path d="M387.41,75.2c-.08.88.41,1.18,1.19,1.18.43-1.23-.16-1.42-1.19-1.18Z" fill="#0f1a3e"/><path d="M321.24,45.24c1.96-1.13,2.73.73,3.81,1.6,16.74,13.46,31.3,29.11,45.29,45.3,15.38,17.8,29.3,36.69,41.24,56.97,11.95,20.3,19.99,42.18,27.3,64.57,8.24,25.25,7.78,50.88,7.33,76.68-.12,6.87-1.24,13.75-2.78,20.52-.98,4.29-.82,7.71,3.98,10.51,5.72,3.35,12.62,6.45,12.71,15.21,4.41-10.46,7.17-21.07,9.45-31.83,4.8-22.6,5.18-45.36,2.85-68.25-.54-5.32-1.07-10.64-1.6-15.96-3.71,1.07-3.7-1.96-4.09-4.02-2.34-12.31-6.19-24.22-9.88-36.14-1.96-6.35-5.55-12.19-8.35-18.28-14.6-31.71-35.79-58.61-61.59-81.71-20.04-17.95-40.93-35.14-65.07-47.41-7.37-3.75-13.84-9.98-24.01-10.81,8.02,7.52,15.24,14.3,22.46,21.07.81.35,1.52.77,1.1,1.85l-.15.13Z" fill="#359eb0"/><path d="M295.99,73.01c-.6-2.34-1.85-4.61-.69-7.11,6.45,12.2,18.99,18.38,28.08,27.9.61-1.4.09-3.03-.5-4.59-2.31-6.1-4.59-12.22-7.08-18.26-2.63-6.37-5.49-12.65-8.25-18.96l.23-.17c1.31.2,1.88,1.23,2.44,2.24,7.08,12.73,13.61,25.71,18.57,39.45.88,2.43.81,5.8,3.65,6.86,6.8,2.54,11.55,8.13,17.82,11.41,4.99,2.61,8.33,6.85,10.3,11.98,4.28,11.19,8.81,22.3,11.9,33.91.29,1.1-.4,3.07,2.02,2.4,3.23,2.68.19,7.17,2.89,10-1.25,6.37.7,12.61.87,18.94.8,29.3-3.82,57.7-13.15,85.41-2.65-1.72-5.3-3.44-7.94-5.16,1.84-4.03-1.25-8.5.62-12.23,3.95-7.85,4.41-16.57,6.98-24.73.92-2.93.55-5.3-1.09-8.27-.58,2-.98,3.47-1.44,4.92-3.24,10.25-6.6,20.45-13.97,28.69-1.81,2.02-3.6,3.17-6.5,1.78-3.27-1.57-.58-3.61-.79-5.4.06-.52.13-1.04.19-1.56,0,0,.1-.1.1-.1.36-.33.71-.66,1.07-.99,7.86-10.01,13.87-20.96,17.56-33.22,9.23-30.61,6.35-59.68-10.7-87.02-8.95-14.35-20.67-25.94-35.13-34.71-5.18-3.14-10.53-6.01-15.8-9,.65-5.02-1.05-9.67-2.26-14.4ZM365.03,221.43c.13-.3.38-.61.37-.91-.01-.29-.28-.57-.44-.86-.13.3-.27.61-.41.93.16.28.32.56.48.85Z" fill="#359eb0"/><path d="M374.68,159.17c.28-1.38-.15-2.54-1.11-3.53-.3-1.85-.53-3.8-.67-5.57-.46-5.74-4.32-10.59-3.89-16.46,1.41-1.75.52-2.49-1.25-2.85,0,0,.03.04.03.04.13-1.7.93-3.59-1.25-4.67,0,0,.04.07.04.07-.63-4.25-.18-8.92-4.63-11.65,0,0,.04.05.04.05.53-2.63.21-4.95-2.35-6.44,0,0,.04.08.04.08.14-1.21.23-2.39-1.2-2.97,0,0,.02.12.02.12.42-.92.71-2.87,2.08-1.2,3.27,3.99,7.56,7.21,9.52,12.21-1.95,2.26-1.29,4.6-.24,6.98,3.83,8.66,6.29,17.59,6.15,27.19-.08,5.41,3.29,10.05,3.92,15.39,2.53-.32,1.36-2.6,2.36-3.59.91-.91,2.44-1.62,2.58-.06.68,7.51,7.9,8.84,12.04,12.95,5.48,5.44,7.93,11.78,8.65,19.14-8.12.56-8.83,1.56-10.03,9.92-.8,5.6-4.27,10.62-3.47,16.7.9,6.82,1.36,13.7,1.88,20.56.96,12.68-1.44,25.27-1.01,37.94.04,1.09-.95,1.56-2,1.65,0-8.18,0-16.36,0-25.5-3.02,2.25-2.29,4.5-2.24,6.34.15,5.05-.33,9.9-2.32,14.63-1.18,2.8-3.17,4.53-5.95,4.51-3-.03-5.58-1.61-6.63-4.7-1.51-4.44-2.21-9.25-1.11-13.66,3.92-15.68,4.29-31.83,6.93-47.66.25-1.51.38-3.25,1.21-4.42,7.67-10.63,2.9-21.11-.37-31.53-.96-3.05-.83-6.5-3.07-9.12-2.7-2.83.34-7.32-2.89-10-.04-.33.03-.62.2-.89ZM390.29,245.14c-.7,2.22-.85,4.19.51,7.22.09-3.38.61-5.25-.51-7.22Z" fill="#761c62"/><path d="M298.25,87.41c.65-5.02-1.05-9.67-2.26-14.4-.6-2.34-1.85-4.61-.69-7.11-.16-.8-.32-1.61-.48-2.41-.49-.25-1.3-.4-1.42-.78-3.53-11-8.02-21.6-13.14-31.95-2.65-6-7.2-10.69-10.94-15.94.17,12.33,3.45,24.31,4.1,36.59.28,5.37,1.01,10.71,1.53,16.07,2.36-5.03-.23-10.39.76-15.55,2.58,10.74,8.92,20.17,10.01,31.24,4.18,1.41,8.36,2.82,12.54,4.23Z" fill="#0f1a3e"/><path d="M280.26,30.77c5.12,10.35,9.6,20.95,13.14,31.95.12.37.93.52,1.42.78.26-.46.85-1.01.75-1.35-3.34-10.69-7.89-20.87-13.42-30.6-.35-.61-.95-1.27-1.88-.77Z" fill="#359eb0"/><path d="M366.57,126.19c-.63-4.25-.18-8.92-4.63-11.65.98,4.11,1.59,8.36,4.63,11.65Z" fill="#0f1a3e"/><path d="M361.97,114.59c.53-2.63.21-4.95-2.35-6.44-.19,2.51.69,4.62,2.35,6.44Z" fill="#0f1a3e"/><path d="M367.79,130.79c.13-1.7.93-3.59-1.25-4.67-.76,1.87-.21,3.39,1.25,4.67Z" fill="#0f1a3e"/><path d="M369.01,133.6c1.41-1.75.52-2.49-1.25-2.85,0,1.13-.17,2.34,1.25,2.85Z" fill="#0f1a3e"/><path d="M374.68,159.17c.28-1.38-.15-2.54-1.11-3.53-.29,1.38-.14,2.63,1.11,3.53Z" fill="#359eb0"/><path d="M321.49,26.47c-.31-1.32-1.26-1.36-2.32-1.15l-.02.02c.44,1.04,1.38,1.1,2.31,1.17,0,0,.03-.04.03-.04Z" fill="#359eb0"/><path d="M359.66,108.22c.14-1.21.23-2.39-1.2-2.97-.27,1.26-.03,2.32,1.2,2.97Z" fill="#0f1a3e"/><path d="M307.77,51.82c-.17-.47-.33-.93-.5-1.4-.19.16-.57.43-.55.46.24.39.54.74.82,1.1,0,0,.23-.17.23-.17Z" fill="#359eb0"/><path d="M321.39,45.1c.42-1.08-.29-1.5-1.1-1.85-.27.99-.31,1.85,1.1,1.85Z" fill="#0f1a3e"/><path d="M319.17,25.32c-.15-.19-.3-.38-.45-.57.01.11-.02.25.04.32.1.12.26.18.39.27,0,0,.02-.02.02-.02Z" fill="#359eb0"/><path d="M469.3,216.91c.12-.69.25-1.37.37-2.07-.76.57-1.34,1.18-.37,2.07Z" fill="#359eb0"/><path d="M297.1,441.21c9.5,6.57,19.84,12.05,27.39,21.14,1.46,1.76,2.96,3.48,4.45,5.22,3.22,2.38,4.74,6.03,6.8,9.25,1.55,2.43,2.96,3.05,5.54,1.1,3.09-2.34,6.91-3.31,10.6-4.46,2.92-.91,4.36-2.82,2.46-5.67-11.67-17.52-26.22-31.48-46.85-38.12-1.28,2.46.58,3.2,1.49,4.15,2.19,2.27,2.89,4.48.57,7.08-1.99,2.22-4.16,3.64-6.99,1.53-1.7-1.27-3.5-1.49-5.47-1.22Z" fill="#0f1a3e"/><path d="M271.71,432.96c4.62,1.21,9.24,2.43,13.86,3.64-4.17-2.94-8.49-5.3-13.86-3.64Z" fill="#0f1a3e"/><path d="M285.51,436.56c1.58,1.72,3.69,2.12,5.86,2.36-1.12-2.86-3.53-2.51-5.86-2.36Z" fill="#0f1a3e"/><path d="M291.3,438.87c1.68,1.46,3.64,2.2,5.84,2.37-.74-3.75-3.71-2.02-5.84-2.37Z" fill="#0f1a3e"/><path d="M285.71,83.18c-1.09-11.07-7.42-20.5-10.01-31.24-.99,5.16,1.59,10.52-.76,15.55.03,4.51.05,9.02.08,13.53,3.56.72,7.12,1.44,10.69,2.16Z" fill="#359eb0"/><path d="M248.53,78.83c1.13-.03,2.25-.05,3.38-.08.52-7.62,1.05-15.24,1.57-22.85-.35-1.37-.69-2.75-1.04-4.13-1.31,9.02-2.61,18.04-3.92,27.06Z" fill="#0f1a3e"/><path d="M252.45,51.77c.35,1.38.69,2.76,1.04,4.13,1.14-6.53,1.77-13.1,1.76-21.31-1.45,6.7-2.75,11.83-2.8,17.17Z" fill="#359eb0"/><path d="M231,53.99c.12.63.24,1.25.36,1.87,1.11-3.16,2.23-6.3,3.34-9.45-2.53,2.03-3.46,4.66-3.71,7.58Z" fill="#359eb0"/><path d="M235.82,41.64l.36-1.6c-.15.51-.3,1.02-.44,1.53,0,0,.08.07.08.07Z" fill="#359eb0"/><path d="M235.74,41.57c-.2.3-.4.6-.6.91.13-.13.27-.24.39-.38.11-.14.2-.3.29-.46,0,0-.08-.07-.08-.07Z" fill="#359eb0"/><path d="M123.13,63.93c-.39.34-1.01.62-1.15,1.05-.26.78.49.91.96.71.44-.18.73-.7,1.09-1.07-.27-.2-.53-.41-.9-.69Z" fill="#e32554"/><path d="M98.85,176.89c.19-.24.2-.5.03-.75,0,0-.29.37-.29.37l.26.38Z" fill="#761c62"/><polygon points="120.47 67.83 120.61 67.48 120.26 67.52 120.47 67.83" fill="#e32554"/><path d="M294.99,382.22c8.4,1.67,16.81,3.27,25.19,5.03,4.37.92,8.73,1.53,10.55-3.72,1.05-3.02,3.55-1.32,5.17-2.35-.16-2.72-2.4-3.33-4.08-4.35-16.21-9.81-33.94-15.25-52.45-18.67-11.67-2.16-23.24-4.89-34.85-7.36-14.39-1.12-26.28-8.54-38.39-15.34-3.4-1.91-7.52-3.28-8.57-7.85,0,0,.02.03.02.03-1.71.02-1.44-1.03-1.14-2.1-1.66-1.21-3.51-2.23-4.95-3.66-3.87-3.87-7.25-7.27-13.9-4.95-4.72,1.64-9.2-2.89-14.02-3.95-1.47-.32-2.87-.99-4.29-1.5l.04-.04c2.69,7.22,8.21,12.37,13.43,17.59,13.86,13.88,30.04,24.5,48.12,32.63-1.33,1.31-3.95.6-3.5,3.17,1,1.35,2.26,1.75,3.82,1.09,1.47.09,3.29-1,4.15,1.21,0,0-.1-.05-.1-.05,4.64,0,9.45-.62,12.99,3.48,4.49.77,8.97,1.54,13.46,2.31,8.08-.3,15.67,2.46,23.45,3.95,3.14.6,6.95-.26,9.25,3.07,0,0-.09-.07-.09-.07.47.36.95.72,1.42,1.08,3.08.45,6.16.89,9.24,1.34Z" fill="#359eb0"/><path d="M284.41,379.88c-2.3-3.32-6.12-2.47-9.25-3.07-7.78-1.49-15.37-4.25-23.45-3.95,10.59,3.77,21.61,5.58,32.7,7.02Z" fill="#0f1a3e"/><path d="M238.25,370.55c-3.54-4.1-8.35-3.48-12.99-3.48,4.11,1.97,8.44,3.14,12.99,3.48Z" fill="#0f1a3e"/><path d="M225.35,367.12c-.85-2.21-2.67-1.12-4.15-1.21,1.1,1.36,2.6,1.37,4.15,1.21Z" fill="#0f1a3e"/><path d="M285.74,380.88c-.47-.36-.95-.72-1.42-1.08.11.85.71,1.04,1.42,1.08Z" fill="#0f1a3e"/><path d="M365.09,274.4c-2.65-1.72-5.29-3.44-7.94-5.16-9.15-3.49-17.32-1.88-24.51,4.75,1.12,1.48,1.11,2.95.7,4.83-2.02,9.35-.04,17.04,9.08,22.06,2.56,1.41,5.79,4.08,6.18,6.57,1.92,12.41,16,16.02,19.12,27.35.13.48,1.28.7,1.97,1.01,4.58,2.09,8.2,5.18,11.61,9.01,4.82,5.41,8.94,12.04,16.93,13.67,3.83.78,6.57,2.78,8.06,6.58.81,2.06,2.7,3.56,5.05,3.08,4.62-.94,8.19,1.47,10.68,4.36,2.9,3.38,5.76,3.49,9.37,2.48.23-.13.46-.27.68-.41-.14.23-.27.46-.41.69.67.32,1.35.64,2.02.96,3.96-2.81,5.36-7.45,7.97-11.22,2.37-12.3-2.32-21.44-12.02-28.94-5.76-4.45-10.68-10.01-15.97-15.06-8.34-8.04-16.67-16.09-25.01-24.13-7.85-7.49-15.7-14.98-23.56-22.48Z" fill="#fbfdfc"/><path d="M145.88,217.18c.12-.84-.04-1.57-.8-2.08-3.17-1.77-4.12-4.03-1.57-7.06-.07-.67-.14-1.34-.21-2.01-1.89-.24-2.43-1.46-2.44-3.19-.04-4.53-1.66-8.92-1.18-13.53.22-2.14.21-4.41-3.07-4.02-.04.77-.08,1.54-.13,2.31,1.32,6.09,1.19,12.19,0,18.28.08,1.96.17,3.92.25,5.88,2.25,1.11,1.71,2.92,1.17,4.72.17.87.34,1.74.51,2.61,1.19.48,1.08,1.1.17,1.79.15.83.29,1.66.44,2.48,1.24.42,1.78,1.14,1.01,2.41,10.07,38.01,33.83,63.42,70.82,76.34,21.38,7.47,43.3,8.96,65.53,4.13,4.06-1.95,4.12-4.17.88-7.24-4.17-3.95-9.54-2.67-14.33-3.86-6.85-.44-13.72-.66-20.54-1.36-41.9-4.31-72.55-25.05-91.42-62.88-.33-.67-.85-1.25-1.29-1.87-3.05-1.11-2.88-3.77-3.01-6.28,0,0,.37-.15.37-.16-1.56-1.56-3.61-3-1.16-5.41Z" fill="#e32554"/><path d="M405.54,194.38c-8.12.56-8.83,1.56-10.03,9.92-.8,5.6-4.27,10.62-3.47,16.7.9,6.82,1.36,13.7,1.88,20.56.96,12.68-1.44,25.27-1.01,37.94.04,1.09-.95,1.56-2,1.65-.1.87-.19,1.73-.29,2.59,2.01,1.15,2.62,3.61,4.81,4.71,9.84,4.94,18.38,11.15,20.95,22.81,1.82-5.42,3.16-10.94,3.37-16.68-1.95-4.61-.79-9.42-.7-14.13.32-16.6-.07-33.09-3.17-49.5-2.25-11.93-6-23.45-8.53-35.28-.6-.43-1.2-.87-1.8-1.3Z" fill="#e32554"/><path d="M441.65,365.01c-2.61,3.77-4.01,8.41-7.97,11.22-12.19,9.92-26.89,9.02-37.7-2.28-8.64-9.04-17.2-18.15-25.95-27.08-13.57-13.83-27.27-27.52-40.92-41.27-1.36-.2-1.83-1.07-1.77-2.34l.14-.08c-3.42-.6-7.1-2.24-9.2,2.34,1.68,6.96,4.69,12.88,10.09,18.07,12.04,11.57,23.35,23.89,35.04,35.82,9.98,10.19,19.93,20.42,30.16,30.36,8,7.77,21.82,9.64,31.82,5.17,11.93-5.34,16.73-15.1,17.55-27.43.05-.8-.83-1.66-1.28-2.49Z" fill="#e32554"/><path d="M329.1,305.6c13.65,13.75,27.35,27.45,40.92,41.27,8.76,8.92,17.31,18.04,25.95,27.08,10.81,11.31,25.51,12.2,37.7,2.28-.68-.32-1.35-.64-2.02-.96l-.28-.28c-3.6,1.01-6.46.9-9.36-2.48-2.48-2.89-6.06-5.3-10.68-4.36-2.35.48-4.24-1.02-5.05-3.08-1.5-3.8-4.23-5.8-8.06-6.58-7.99-1.62-12.11-8.25-16.93-13.67-3.4-3.82-7.02-6.92-11.61-9.01-.69-.31-1.84-.53-1.97-1.01-3.12-11.33-17.2-14.94-19.12-27.35-.39-2.49-3.61-5.16-6.18-6.57-9.13-5.02-11.1-12.71-9.08-22.06.41-1.88.42-3.34-.7-4.83-4.52,3.31-6.46,8.07-7.55,13.32-.7,5.51,1.35,10.61,2.39,15.87,0,0-.14.08-.14.08,1.42.16,1.73,1.14,1.77,2.34Z" fill="#dbd8cb"/><path d="M405.54,194.38c.6.43,1.2.87,1.8,1.3.7-.22,1.41-.44,2.11-.66-4.48-17.98-12.37-34.55-21.12-50.74-5.29-9.8-11.34-19.14-18.26-27.89-1.95,2.26-1.29,4.59-.24,6.97,3.83,8.66,6.29,17.59,6.15,27.19-.08,5.41,3.29,10.05,3.92,15.39,2.53-.32,1.36-2.6,2.36-3.59.91-.91,2.44-1.62,2.58-.06.68,7.51,7.9,8.84,12.04,12.95,5.48,5.44,7.93,11.78,8.65,19.14Z" fill="#359eb0"/><path d="M287.21,326.02c-16.4,2.03-32.49,3.46-48.7,2.77-1.43-.06-3.18.42-2.17,2.21,1.49,2.63-1.57,6.51,3.03,8.35,12.49,5,25.21,3.05,37.92,1.83,3.22-.31,5.36-1.84,4.75-5.65-.69-4.29.26-7.85,5.17-9.52Z" fill="#359eb0"/><path d="M262.92,295.15c4.79,1.2,10.16-.09,14.33,3.86,3.24,3.07,3.18,5.28-.88,7.24,4.62,1.95,7.94-1.85,11.79-2.95,6.38-1.82,12.88-3.66,18.54-7.53,5.94-4.06,6.68-8.66,2-14.49-14.16,6.64-28.84,11.47-44.52,12.84-.45.04-.84.67-1.26,1.03Z" fill="#761c62"/><path d="M416.38,311.28c-2.57-11.66-11.11-17.87-20.95-22.81-2.19-1.1-2.8-3.57-4.81-4.71-1.73,4.21-2.25,8.61-1.97,13.12,8.34,8.04,16.68,16.09,25.01,24.13.9-3.24,1.81-6.49,2.72-9.73Z" fill="#761c62"/><path d="M419.52,235.26c2.52,2.93,2.22,6.63,2.69,10.1,1.61,12.04,1.3,24.15,1.2,36.26,0,.19,0,.39,0,.58.05,1.74-.17,3.73,2.47,3.62,2.16-.09,2.16-1.78,2.22-3.36.51-14.43.6-28.98-1.62-43.14-1.3-8.34-6.35-16.14-7.85-24.82-.06-.37-.96-.99-1.16-.89-1.22.59-.94,1.94-1.26,3,.04.41.07.82.11,1.23,3.67,5.23,3.37,11.28,3.58,17.23l-.36.2Z" fill="#761c62"/><path d="M416.3,217.84c-.04-.41-.07-.82-.11-1.23-3.45-6.82-3.72-14.63-6.74-21.58-.7.22-1.41.44-2.11.66,2.53,11.83,6.28,23.35,8.53,35.28,3.1,16.42,3.49,32.91,3.17,49.5-.09,4.7-1.25,9.51.7,14.13.77-7.35,1.55-14.7,2.32-22.05-1-2.26-.86-4.51,0-6.76-.85-10.18-1.7-20.35-2.54-30.52,0,0,.36-.19.36-.19-2.59-5.45-2.5-11.46-3.58-17.23Z" fill="#dbd8cb"/><path d="M136.6,185.29c3.28-.39,3.3,1.88,3.07,4.02-.48,4.6,1.13,8.99,1.18,13.53.02,1.74.55,2.95,2.44,3.19-3.05-20.84-1.72-41.18,6.76-60.74.35-.8.18-1.82.25-2.74-.56.04-1.5-.11-1.61.13-5.42,11.74-10.31,23.64-11.05,36.79.92.18,1.86.36,1.87,1.58.01,1.5-1.01,1.76-2.21,1.78-1.07.59-1.16,1.45-.7,2.47Z" fill="#761c62"/><path d="M197.56,327.61c1.05,4.58,5.17,5.94,8.57,7.85,12.1,6.8,24,14.22,38.39,15.34-4.61-1.8-9.2-3.69-13.85-5.38-10.16-3.69-18.83-10.08-28.11-15.38-1.61-.92-3.33-1.63-5-2.44Z" fill="#dbd8cb"/><path d="M327.48,303.17c-1.04-5.25-3.09-10.35-2.39-15.87-6.86,1.96-10.07,10.54-6.81,18.2,2.1-4.58,5.78-2.94,9.2-2.34Z" fill="#761c62"/><path d="M136.47,205.89c1.19-6.1,1.31-12.19,0-18.28-.76,6.1-.72,12.19,0,18.28Z" fill="#761c62"/><path d="M423.15,290.8q-1.79,6.53-.87,10.27c1.93-3.7.82-7.04.87-10.27Z" fill="#761c62"/><path d="M137.29,182.83c1.2-.01,2.22-.28,2.21-1.78-.01-1.22-.95-1.4-1.87-1.58-.11,1.12-.23,2.24-.34,3.36Z" fill="#e32554"/><path d="M137.89,216.49c.54-1.81,1.08-3.61-1.17-4.72-.67,1.84.24,3.28,1.17,4.72Z" fill="#761c62"/><path d="M422.06,265.79c-.86,2.25-1,4.5,0,6.76.49-2.25.52-4.51,0-6.76Z" fill="#761c62"/><path d="M140.03,225.78c.78-1.27.23-1.99-1.01-2.41-.39,1.11.31,1.76,1.01,2.41Z" fill="#761c62"/><path d="M196.44,325.54c-.3,1.07-.57,2.12,1.14,2.1-.28-.75-.08-1.77-1.14-2.1Z" fill="#dbd8cb"/><path d="M150.28,142.47c1.35-.38,1.59-1.22,1.04-2.41-1.39.36-1.51,1.26-1.04,2.41Z" fill="#761c62"/><path d="M151.29,140.08c1.48-.09,1.46-1.28,1.69-2.3-1.47.09-2.01.88-1.69,2.3Z" fill="#761c62"/><path d="M138.58,220.88c.91-.69,1.02-1.3-.17-1.79.06.6.12,1.19.17,1.79Z" fill="#761c62"/><path d="M340.24,254.15c-.79-.19-1.04.05-.62.8.57.01.79-.24.62-.8Z" fill="#dbd8cb"/><path d="M159.29,311.47c-.14-.18-.28-.36-.42-.55.02.1,0,.24.07.29.11.1.26.14.39.21,0,0-.04.04-.04.04Z" fill="#359eb0"/><path d="M340.96,254.01c.06-.52.13-1.04.19-1.56-.61.27-.91.69-.63,1.37,0,0,.44.19.44.19Z" fill="#dbd8cb"/><path d="M252.89,263.69c-.21-.56-.44-.61-.67-.02-9.26-.07-17.93-2.59-26.85-5.01-12.78-3.47-23.22-9.77-32.34-18.91,7.61-4.43,9.95-12.68,13.93-19.66,3.01-5.27,5.23-11,7.8-16.52.19.18.38.36.57.54.34,4.37-2.04,8.17-2.6,12.34-.73,5.49.37,6.34,5.44,4.54,2.02-.72,3.82-1.74,5.34-3.31,7.9-8.19,13.7-17.62,18.41-28.02,3.86-8.51,8.41-16.7,10.99-25.75.36-1.25,1.25-1.89,2.57-1.9,1.51,2.18.79,4.24.02,6.53-8.77,26.14-22.11,49.39-42.64,68.17-1.09,1-2.52,1.85-2.77,3.97,7.52-1.47,12.81,2.8,18.15,6.89,3.41,2.61,6.65,3.32,10.45.41,6.86-5.24,12.19-11.78,16.79-18.93,11.56-17.94,18.17-37.79,21.64-58.71,1.53-9.23-.39-11.8-9.98-13.86-2.43-.52-4.15-1.48-5.75-3.32-2.32,3-2.1,7.36-5.99,8.91-.05-1.9-.05-3.8-.16-5.7-.07-1.12-.06-2.36-.53-3.32-2.41-4.94-7.59-3.69-11.59-4.62-3.54-.82-8.31-3.87-10.55,2.44-.39,1.11-1.42,1.76-2.76,1.13,0,0-.24-.25-.24-.25.19-6.05-3.14-5.29-7.07-3.75-6.56,2.58-13.63,3.79-19.63,7.91-1.49,1.02-2.98,1.84-3.5,3.5-2.23,7.11-5.55,13.8-8.04,20.83-4.12,11.63-6.42,24.14-14.56,34.09-5.09-13.13-6.36-26.68-4.39-40.58,2.19,2.72.08,6.22,1.86,9.89,1.78-6.49,4.55-11.8,7.19-17.18,2.69-5.5-2.84-4.27-5.03-5.75-.64-1.67.49-2.92,1.03-4.3,4.06-10.27,11.27-18.25,18.85-25.96.8-.49,1.68-.88,2.4-1.47,28.88-23.39,72.01-25.52,102.21-4.4.17,3.58-2.19,5.77-4.68,7.53-3.52,2.49-2.48,3.76.51,5.76,22.07,14.76,30.92,36.38,31.3,62.04.11,7.68-1.3,15.31-5.16,22.2-.94,1.67-2.45,3.19-.49,5.1-3.74,7.72-9.94,13.39-15.99,19.17-16.15,10.98-33.59,17.94-53.5,17.31ZM309.11,180.05c-.43-.64-.68-1.42-1.2-1.97-1.44-1.51-2.68-4.14-4.73-3.89-2.38.29-1.33,3.25-1.71,4.94-3.63,16.45-6.56,33.08-12.64,48.88-2.53,6.57-4.33,13.44-8.14,19.5-1.11,1.77-1.73,3.85-2.55,5.79-.53,1.25-1.23,2.74-.17,3.81,1.56,1.56,2.28-.73,3.23-1.26,5.68-3.17,12.01-5.3,16.6-10.23,8.11-8.69,13.87-18.98,19.84-29.13.53-.9.27-2.26.31-2.66-1.36-12.19-2.13-23.79-8.85-33.79Z" fill="#0f1a3e"/><path d="M215.92,202.03c-1.27-.65-.86.92-1.17,1.54-2.57,5.52-4.79,11.25-7.8,16.52-3.98,6.98-6.32,15.22-13.93,19.66-7.79-6.96-12.52-15.87-16.25-25.42,8.14-9.95,10.44-22.45,14.56-34.09,2.49-7.03,5.81-13.71,8.04-20.83.52-1.66,2.02-2.48,3.5-3.5,6-4.11,13.08-5.33,19.63-7.91,3.92-1.54,18.91-4.32,18.72,1.73-.09.21-4.21,2.01-3.98,2.02,6.65.24-4.04,1.69-4.09,1.91-.15.66-4.56.56-4.72,1.23-4.31,2.41-3.86,7.12-5.08,10.93-2.03,6.33-3.62,12.79-5.47,19.18-.63,2.19-.94,4.3-.19,6.69,2.45-1.05,1.01-3.86,2.91-4.75-3.76-6.37-.59-9.58,4.66-15.73l-.04.03c-2.85-9.29-1.45-6.99,2.34-9.28-.33-.23-9.53,2.11-9.28,1.79,4.43-2.13,5.33-7.54,3.98-11.18,0,0,8.65-3.9,8.65-3.9,1.33.63,1.25,3.31,1.64,2.2,2.24-6.31,7.01-3.26,10.55-2.44,4,.93,9.18-.32,11.59,4.62.47.97.46,2.2.53,3.32.12,1.89.12,3.8.16,5.7l.05-.07c-1.31.02-2.21.66-2.57,1.9-2.58,9.05-7.13,17.24-10.99,25.75-4.71,10.4-10.51,19.83-18.41,28.02-1.51,1.57-3.31,2.59-5.34,3.31-5.07,1.8-6.17.95-5.44-4.54.56-4.17,2.93-7.97,2.6-12.34.75-.57,1.53-1.6.61-2.08ZM216.64,200.04c.23-.19.63-.35.66-.56.04-.3-.19-.64-.31-.96-.24.18-.47.37-.71.55.12.33.24.65.35.97Z" fill="#359eb0"/><path d="M172.38,173.75c2.19,2.72.08,6.22,1.86,9.89,1.78-6.49,4.55-11.8,7.19-17.18,2.69-5.5-2.84-4.27-5.03-5.75,0,0,.2.01.2.01.17,1.09.32,2.16-1.18,2.44,0,0,.06-.08.06-.08.17,1.86.76,3.89-1.78,4.73-1.23,1.81-1.48,3.83-1.31,5.95Z" fill="#359eb0"/><path d="M173.69,167.81c2.54-.84,1.95-2.87,1.78-4.73-1.78,1.13-1.23,3.14-1.78,4.73Z" fill="#0f1a3e"/><path d="M175.41,163.16c1.5-.27,1.35-1.35,1.18-2.44-1.73.17-1.32,1.36-1.18,2.44Z" fill="#0f1a3e"/><path d="M341.25,252.35c.36-.33.71-.66,1.07-.99-.36.33-.71.66-1.07.99Z" fill="#dbd8cb"/><path d="M252.89,263.69c-.21-.56-.44-.61-.67-.02,0,0,.33.23.33.23l.34-.21Z" fill="#761c62"/><path d="M300.89,124.58c.17,3.58-2.19,5.77-4.68,7.53-3.52,2.49-2.48,3.76.51,5.76,22.07,14.76,30.92,36.38,31.3,62.04.11,7.68-1.3,15.31-5.16,22.2-.94,1.67-2.45,3.19-.49,5.1,10.68-14.15,13.29-30.56,11.73-47.5-1.66-18.08-9.18-33.91-22.34-46.74-3.28-3.2-6.53-6.53-10.88-8.39Z" fill="#761c62"/><path d="M143.5,208.04c-2.55,3.04-1.6,5.3,1.57,7.06-.52-2.36-1.05-4.71-1.57-7.06Z" fill="#761c62"/><path d="M146.67,222.75c.13,2.51-.05,5.17,3.01,6.28-.59-2.29-.53-4.89-3.01-6.28Z" fill="#761c62"/><path d="M145.88,217.18c-2.45,2.41-.4,3.86,1.16,5.41.28-1.94.14-3.8-1.16-5.41Z" fill="#761c62"/><path d="M388.64,296.87c-.28-4.52.24-8.91,1.97-13.12.1-.86.19-1.73.29-2.59,0-8.18,0-16.36,0-25.5-3.02,2.25-2.29,4.5-2.24,6.34.15,5.05-.33,9.9-2.32,14.63-1.18,2.8-3.17,4.53-5.95,4.51-3-.03-5.58-1.61-6.63-4.7-1.51-4.44-2.21-9.25-1.11-13.66,3.92-15.68,4.29-31.83,6.93-47.66.25-1.51.38-3.25,1.21-4.42,7.67-10.63,2.9-21.11-.37-31.53-.96-3.05-.83-6.5-3.07-9.12-1.24,6.37.7,12.61.87,18.93.8,29.3-3.82,57.7-13.15,85.41,7.85,7.49,15.7,14.98,23.55,22.47Z" fill="#0f1a3e"/><path d="M364.55,220.59c.16.28.32.56.48.85.13-.3.38-.61.37-.91-.01-.29-.28-.57-.44-.86-.13.3-.27.61-.41.93Z" fill="#0f1a3e"/><path d="M390.8,252.36c.09-3.38.61-5.25-.51-7.22-.7,2.22-.85,4.19.51,7.22Z" fill="#0f1a3e"/><path d="M431.65,375.27c.14-.23.27-.46.41-.69-.23.14-.46.27-.68.41,0,0,.28.28.28.28Z" fill="#dbd8cb"/><path d="M329.1,305.6c-.03-1.2-.35-2.18-1.77-2.34-.06,1.27.41,2.14,1.77,2.34Z" fill="#761c62"/><path d="M416.3,217.84c1.08,5.77.98,11.77,3.58,17.23-.2-5.95.09-12-3.58-17.23Z" fill="#0f1a3e"/><path d="M255.46,162c1.51,2.18.79,4.24.02,6.53-8.77,26.14-22.11,49.39-42.64,68.17-1.09,1-2.52,1.85-2.77,3.97,7.52-1.47,12.81,2.8,18.15,6.89,3.41,2.61,6.65,3.32,10.45.41,6.86-5.24,12.19-11.78,16.79-18.93,11.56-17.94,18.17-37.79,21.64-58.71,1.53-9.23-.39-11.8-9.98-13.86-2.43-.52-4.15-1.48-5.75-3.32-2.32,3-2.1,7.36-5.99,8.91,0,0,.05-.07.05-.07Z" fill="#359eb0"/><path d="M317.66,216.49c-5.97,10.14-11.73,20.44-19.84,29.13-4.6,4.93-10.93,7.06-16.6,10.23-.95.53-1.67,2.82-3.23,1.26-1.06-1.06-.36-2.55.17-3.81.82-1.95,1.44-4.03,2.55-5.79,3.81-6.06,5.61-12.93,8.14-19.5,6.08-15.8,9.01-32.43,12.64-48.88.37-1.69-.67-4.66,1.71-4.94,2.04-.25,3.28,2.38,4.73,3.89.52.54.77,1.33,1.2,1.97,6.72,10,7.49,21.59,8.85,33.79-.04.4.22,1.76-.31,2.66ZM297.33,219.65c1.1.28,1.56-.72,2.3-1.3,5.78-4.56,4.99-11.01,4.14-16.89-.48-3.3.6-9.5-2.37-9.56-3.86-.07-1.61,5.64-2.46,8.7-1.46,5.26-1.26,10.96-3.07,15.63.12,1.76.01,3.05,1.47,3.41Z" fill="#761c62"/><path d="M227.57,161.95c-.33-.23-.37-.5-.12-.82.33-2.08.66-4.17.99-6.25-4.31,2.41-3.86,7.12-5.08,10.93-2.03,6.33-3.62,12.79-5.47,19.18-.63,2.19-.94,4.3-.19,6.69,2.45-1.05,1.01-3.86,2.91-4.75.86-5.45,1.84-10.86,4.66-15.73,0,0-.04.03-.04.03-.58-3.44.82-6.37,2.34-9.28Z" fill="#dbd8cb"/><path d="M216.29,199.07c.12.33.24.65.35.97.23-.19.63-.35.66-.56.04-.3-.19-.64-.31-.96-.24.18-.47.37-.7.55Z" fill="#0f1a3e"/><path d="M215.32,204.11c.75-.57,1.53-1.6.61-2.08-1.27-.65-.86.92-1.17,1.54.19.18.38.36.57.54Z" fill="#0f1a3e"/><path d="M229.86,151.9s-.05.1-.05.1c0,0-.24-.25-.24-.25" fill="#dbd8cb"/><path d="M295.86,216.24c.12,1.76.01,3.05,1.47,3.41,1.1.28,1.56-.72,2.3-1.3,5.78-4.56,4.99-11.01,4.14-16.89-.48-3.3.6-9.5-2.37-9.56-3.86-.07-1.61,5.64-2.46,8.7-1.46,5.26-1.26,10.96-3.07,15.63Z" fill="#e32554"/></svg>