<?xml version="1.0" encoding="UTF-8"?><svg id="UTILITY" xmlns="http://www.w3.org/2000/svg" viewBox="0 0 512 512"><path d="M187.95,12.42c100.91.1,180.92,83.84,176.5,183.95-1.15,25.92-7.68,50.34-19.58,73.36q-5,9.67,2.9,17.63c48.4,48.37,96.81,96.72,145.22,145.07,9.09,9.08,9.09,12.09-.16,21.32-13.33,13.31-26.64,26.64-40,39.93-7.94,7.89-11.47,7.85-19.47-.14-48.71-48.67-97.4-97.35-146.11-146.02q-7.75-7.74-17.71-2.6c-106.07,54.61-234.78-9.42-254.81-126.76C-2.9,114.83,73.37,19.11,178.2,12.99c3.46-.2,6.92-.4,9.75-.57ZM29.36,188.69c.56,6.89.87,13.81,1.72,20.67,11.58,93.54,105.03,156.79,196.56,133.11,27.21-7.04,50.9-20.34,71.24-39.69,6.14-5.84,11.32-6.56,15.15-2.42,3.82,4.13,2.76,9.14-3.41,15.07-3.27,3.15-6.59,6.28-10.18,9.05-4.69,3.62-4.97,7-.67,11.18,8.22,8,16.32,16.14,24.32,24.36,4.06,4.17,7.59,3.99,11.58-.12,7.85-8.07,15.94-15.91,23.84-23.93,5.24-5.33,5.25-7.13.07-12.35-10.68-10.76-21.44-21.43-32.16-32.14-9.04-9.03-9.22-10.22-2.73-21.1,19.58-32.88,26.54-68.35,20.86-106.07-12.37-82.26-86.68-140.33-170.88-133.91C93.55,36.59,29.77,106.25,29.36,188.69ZM377.62,343.13c-1.82,1.13-3.68,1.88-5,3.17-8.8,8.63-17.46,17.41-26.22,26.08-3.85,3.81-2.87,7.01.63,10.49,30.19,30.07,60.35,60.19,90.42,90.37,4.1,4.11,7.49,4.09,11.51-.05,7.98-8.23,16.07-16.36,24.36-24.28,4.52-4.32,4-7.78-.21-11.97-30.07-29.89-60.02-59.9-90.05-89.83-1.48-1.48-3.41-2.52-5.43-3.99Z"/><path d="M308.14,144.49c-13.59-37.01-38.03-63.59-70.71-76.89-28.93-11.78-62.25-12.21-93.82-1.23h0c-1.54.54-3.06,1.1-4.56,1.69l5.09,14.64c1.52-.59,3.04-1.16,4.57-1.69,51.06-17.77,118.15-3.84,144.85,68.71,24.1,73.46-19.85,126.02-70.92,143.79-51.06,17.77-118.15,3.84-144.85-68.71-18.01-54.91,2-98.14,34.59-123.9l-9.96-12.01c-12.89,10.23-23.65,22.63-31.59,36.69-17.36,30.71-20.02,66.73-7.7,104.18l.04.13.05.12c13.59,37.01,38.04,63.6,70.71,76.9,28.93,11.78,62.25,12.21,93.82,1.23h.01c31.56-10.99,57.41-32.01,72.78-59.2,17.36-30.71,20.02-66.73,7.7-104.19l-.04-.13-.04-.12Z"/><path d="M230.75,307.07c-1.01-3.07-7.97,3.21-11.13,3.97-13.88,3.34-27.9,5.11-42.16,2.35-1.1-.21-2.31.16-3.68.28,1.25-1.25,2.42-2.42,4.06-4.07-1.66-.65-2.92-.92-3.92-1.59-.87-.59-1.44-1.63-2.14-2.47.92-.5,1.81-1.38,2.77-1.45,8.23-.64,16.49-.96,24.71-1.71,53-4.87,97.95-49.94,103.19-103.37,5.78-58.98-32.07-112.03-89.22-125.06-1.53-.35-3.1-.57-5.58-1.01,1.06,3.05,1.83,5.25,2.59,7.46,7.23,20.94,14.46,41.89,21.7,62.83,1.26,3.65,2.9,7.2,3.76,10.93.34,1.47.08-.19-.88,1.22-1.48,2.17.38.02,1.84,3.33.74,2.71.43,1.41.43,1.41,0,0,.16-2.01,1.27,2.62.31,1.31,1.36,1.69.95,3.72-.5,2.49-.14,3.74,1.5,5.36,1.11,1.09,1.92,2.64,2.45,4.13,4.32,12.04,8.21,24.24,12.88,36.14,4.28,10.89,3.04,21.12-2.61,30.81-7.33,12.59-17.51,21.87-32.71,23.52-11.06,1.2-19.11-5.46-20.21-16.54-.65-6.53.86-11.95,3.78-18.52,1.88-4.23,4.09-7.97,7.31-11.6,6.95-7.84,14.83-13.46,25.26-15.23.56-.1,1.09-.37,2.17-.74-.37-1.4-.65-2.79-1.11-4.12-14.26-40.99-28.62-81.94-42.71-122.99-1.52-4.43-3.5-6.04-8.2-5.84-10.54.44-20.97,1.13-31.5,4.61.54,1.87.91,3.43,1.43,4.93,10.84,31.18,21.7,62.36,32.58,93.53.93,2.67,1.75,5.42,3.08,7.89,4.06,7.52,3.88,15.37,1.04,22.91-5.4,14.34-15.08,24.89-30.04,29.51-15.14,4.68-29.04-5.27-25.89-22.54,3.47-18.97,14.83-31.62,33.54-37.26.57-.17,1.16-.27,1.73-.42.56-.14,1.12-.29,2.41-.64-12.29-35.3-24.51-70.42-37.03-106.41,7.37-2.21,13.89-4.77,20.65-6.09,49.42-9.65,91.95,3.56,125.33,41.23,55.72,62.88,35.7,162.2-39.45,199.68"/><path d="M73.08,211.07c-.44-.62-.72-1.02-1.01-1.43-.24.12-.49.23-.73.35,1.73,4.97,3.46,9.94,5.16,14.84-4.18,2.97-6.47.86-8.76-2.61-.53,1.43-.87,2.35-1.44,3.91-1.99-5.73-4.53-10.72-5.44-16-7.87-45.62,5.1-84.58,37.96-117.72,3.2,3.38,6.01,6.34,8.96,9.45-30.27,30.66-41.47,67.02-34.71,109.2Z"/><line x1="215.27" y1="111.08" x2="252.22" y2="217.25" fill="none" stroke="#000" stroke-miterlimit="10" stroke-width="10.72"/></svg>