<?xml version="1.0" encoding="UTF-8"?><svg id="UTILITY" xmlns="http://www.w3.org/2000/svg" viewBox="0 0 512 512"><path d="M372.99,222.49h-176.33c-19.28,0-34.96-15.69-34.96-34.96v-2.53c0-19.28,15.69-34.96,34.96-34.96h176.33c5.83,0,10.57,4.74,10.57,10.57v51.32c0,5.83-4.74,10.57-10.57,10.57ZM196.66,162.04c-12.66,0-22.96,10.3-22.96,22.96v2.53c0,12.66,10.3,22.96,22.96,22.96h174.9v-48.46h-174.9Z"/><path d="M488.43,435.03c-48.42-48.35-96.83-96.71-145.22-145.07q-7.93-7.93-2.9-17.63c9.21-17.82,15.19-36.47,17.96-56.01h-17.3c-3.12,19.63-10.07,38.53-20.86,56.65-6.48,10.89-6.31,12.07,2.73,21.1,10.72,10.71,21.49,21.38,32.16,32.14,5.19,5.23,5.18,7.02-.07,12.35-7.9,8.02-15.99,15.86-23.84,23.93-3.99,4.1-7.52,4.29-11.58.12-8-8.22-16.1-16.36-24.32-24.36-4.3-4.18-4.02-7.55.67-11.18,3.59-2.77,6.91-5.9,10.18-9.05,6.17-5.93,7.23-10.94,3.41-15.07-3.83-4.14-9.01-3.42-15.15,2.42-20.34,19.35-44.03,32.66-71.24,39.69-91.53,23.68-184.97-39.57-196.56-133.11-.85-6.86-1.16-13.78-1.72-20.67.41-82.44,64.19-152.1,145.3-158.29,81.03-6.18,152.87,47.36,169.21,124.71h17.58C341.27,76.86,270.03,15.09,183.38,15.01c-2.83.17-6.29.37-9.75.57C68.79,21.7-7.47,117.42,10.17,220.75c20.03,117.34,148.73,181.37,254.81,126.76q9.94-5.12,17.71,2.6c48.71,48.67,97.4,97.35,146.11,146.02,8,8,11.54,8.03,19.47.14,13.36-13.28,26.67-26.62,40-39.93,9.25-9.23,9.25-12.24.16-21.32ZM468.74,451.5c-8.28,7.92-16.38,16.05-24.36,24.28-4.02,4.14-7.41,4.16-11.51.05-30.08-30.19-60.23-60.3-90.42-90.37-3.5-3.48-4.48-6.68-.63-10.49,8.76-8.67,17.42-17.45,26.22-26.08,1.32-1.29,3.18-2.04,5-3.17,2.02,1.47,3.94,2.51,5.43,3.99,30.03,29.93,59.98,59.94,90.05,89.83,4.21,4.19,4.73,7.65.21,11.97Z"/><path d="M302.72,214.19c-10.55,54.97-58.99,96.64-116.99,96.64-65.69,0-119.13-53.44-119.13-119.13s53.44-119.13,119.13-119.13c52.31,0,96.86,33.89,112.83,80.87h12.6c-16.41-53.7-66.43-92.87-125.43-92.87-72.3,0-131.13,58.82-131.13,131.13s58.82,131.13,131.13,131.13c64.64,0,118.5-47.01,129.19-108.64h-12.2Z"/></svg>