<?xml version="1.0" encoding="UTF-8"?><svg id="UTILITY" xmlns="http://www.w3.org/2000/svg" viewBox="0 0 512 512"><path d="M47.65,282.92c-.05-9.44.03-18.88-.18-28.31-.56-24.97,5.66-48.23,16.91-70.39,16.35-32.18,37.27-60.88,64.79-84.35,77.3-65.9,197.66-52.53,258.76,28.71,6.63,8.82,12.92,18.12,17.76,27.99,5.86,11.94,14.18,21.42,24.19,29.67,1.7,1.4,4.37,2.1,6.64,2.21,6.14.31,12.31.09,18.46.17,15.79.21,27.89,9.09,29.7,24.72,1.76,15.17,2.01,30.77.65,45.98-1.66,18.61-12.62,26.94-33.44,28.25-6.12.38-12.27.06-18.43,1.34h20.25c-.45,10.24-5.72,15.85-15.22,16.73-6.12.57-12.26,1.12-18.4,1.16-4.32.03-6.89,1.81-8.57,5.59-23.13,51.98-63.23,85.17-115.72,104.79-6.34,2.37-12.04,6.68-18.49,8.42-4.62,1.25-9.98-.39-15.02-.57-6.54-.24-13.09-.4-19.63-.45-36.04-.27-69.54-9.7-99.25-30.06-53.46-36.62-79.82-88.19-81.62-152.65-.13-4.63-.02-9.28-.88-13.94-9.3,20.72-10.55,42.22-5.91,64.35-.78.2-1.56.4-2.34.6-1.72-3.38-3.43-6.76-5.15-10.14l.12.19ZM396.93,172.29c-3.03-6.43-5.1-11.54-7.75-16.32-43.19-77.84-143.36-107.02-221.86-64.71-63.88,34.43-99.86,99.95-90.72,169.86,8.13,62.25,40.56,109.23,98.48,134.63,59.15,25.93,116.31,18.12,168.83-19.61,18.53-13.31,34.61-29,41.07-52.14,3.55-12.72,2.87-14.02-9.98-16.03-1.76-.28-4.12-1.57-4.71-3-.45-1.11,1.14-3.44,2.33-4.77,3.54-3.97,7.33-7.72,11.02-11.56-.25-.57-.5-1.15-.75-1.72-12.08,0-24.16-.04-36.23,0-35.09.15-70.17.29-105.26.55-19.99.15-35.19-8.06-45.4-25.35-.56-.96-1.38-1.76-2.08-2.64-.48.19-.97.38-1.45.57.79,3.24.99,6.79,2.48,9.66,8.55,16.45,20.56,28.39,40.26,30.27,3.98.38,7.81,2.26,11.71,3.45-.21.7-.42,1.4-.63,2.09-18.93.79-37.72,1.35-53.02-13.56-18.67-18.2-21.71-46.38-6.79-65.31,3.67-4.66,7.8-9.03,10.94-14.02,10.28-16.36,24.77-24.2,44.16-24.1,43.91.24,87.82.07,131.73.03,3.37,0,6.75-.35,10.41-.56-.44-4.39-.94-7.81-1.08-11.24-.14-3.65.1-6.86,5.49-4.6,2.04.86,4.75.14,8.81.14ZM292.06,217.55l.32,2.7c-.81.48-1.57,1.28-2.43,1.4-7.29,1.01-14.58,2.48-21.9,2.7-16.2.49-32.41.32-48.62.44-15.37.12-17.55,2.75-15.18,18.24.15,1.01.4,2.01.7,2.98,5.4,17.33,15.81,28.32,40.66,27.93,58.05-.92,116.12-.92,174.18-1.33,12.51-.09,25.03-.19,37.54-.49,8.37-.2,14.12-4.01,14.5-11.32.77-14.7.97-29.49.24-44.19-.42-8.48-6.07-13.09-14.59-14.05-6.3-.71-12.68-1.03-19.03-1.02-63.6.13-127.21.35-190.81.59-5.12.02-10.27.13-15.37.63-9.13.89-17.99,7.04-19.69,12.74,26.37.68,52.92,1.36,79.47,2.04Z"/><path d="M47.52,282.72c9.77,44.19,30.25,82.59,64.94,111.87,62.12,52.43,131.77,63.4,207.62,34.04,5.9-2.28,11.43-5.54,17.12-8.38,4.49-2.24,9.06-.62,11.49,4.22,2.32,4.62-1.6,5.87-4.35,7.18-15.7,7.46-31.35,15.07-47.33,21.89-7.2,3.07-15.02,4.99-22.76,6.33-3.74.65-7.89-1.75-11.89-1.91-15.95-.63-32.09.48-47.83-1.6-58.93-7.8-106.02-36.7-141.63-83.86-36.04-47.72-49.96-101.78-42.8-161.12,1.27-10.53,3.83-20.9,5.9-31.92-3.04,4.34-5.8,8.28-8.56,12.22-.55-.29-1.1-.58-1.65-.88,2.13-5.6,4.17-11.23,6.39-16.79,5.82-14.6,15.09-27.06,23.76-40.04,22.33-33.45,49.02-61.83,84.37-81.91C226.22,3.3,337.17,21.13,402.81,94.97c16.35,18.39,29.28,39.03,37.82,62.21,1.39,3.78,6.04,8.66-1.82,11.37-6.15,2.12-7.88,1.25-10.91-6.61-8.13-21.07-19.24-40.41-34.58-57.02-50.05-54.19-112.09-74.97-184.32-62.84C116.25,57.67,45.36,139.46,42.33,233.58c-.53,16.37,3.43,32.88,5.32,49.33,0,0-.12-.18-.12-.18Z"/><path d="M395.09,365.24c3.76-3.49,6.56-6.09,9.88-9.17,6.06,6.08,11.86,11.75,17.5,17.57,14.28,14.71,28.71,29.28,42.68,44.28,18.62,20.01,13.93,45.44-10.23,58.27-4.61,2.44-8.98,5.42-13.14,8.58-5.13,3.91-6.93,3.37-8.37-2.78-.29-1.24-2.04-2.26-3.28-3.15-4.3-3.09-9.25-5.51-12.91-9.22-18.45-18.66-36.59-37.62-54.78-56.54-2.09-2.17-3.75-4.75-5.54-7.04,6.08-7.45,7.44-6.5,14.5-4.35,12.61,3.84,18.85,14.59,27.64,22.49,11.42,10.26,22.21,21.24,33.06,32.11,2.13,2.13,3.32,5.19,5.47,8.69,7.49,2.11,15.34-1.34,21.64-10.4,5.31-7.63,5.93-15.9-.05-22.72-10.25-11.7-21.26-22.75-32.07-33.96-10.37-10.74-20.89-21.33-32.01-32.67Z"/><path d="M388.33,381.24c1.83,1.24,3.31,1.92,4.38,3.01,18.48,18.92,36.92,37.88,55.35,56.85.71.73,1.35,1.55,1.95,2.37,2.39,3.29,2.58,6.45-.83,9.17-3.26,2.6-6.41,3.22-9.74-.24-18.77-19.5-37.67-38.87-56.36-58.43-1.75-1.83-3.96-5.95-3.24-6.87,1.97-2.51,5.4-3.89,8.49-5.86Z"/><path d="M426.8,222.37c10.13-4.61,25.98-.73,29.33,6.82-10.38-2.42-19.85-4.62-29.33-6.82Z"/></svg>