<?xml version="1.0" encoding="UTF-8"?><svg id="RESEAUX_COLOR" xmlns="http://www.w3.org/2000/svg" viewBox="0 0 512 512"><path d="M496.48,468.14c-2.7,10.81,4.27,24.99-3.32,32.01-6.86,6.34-19.55-4.58-30.15-1.45-18.37-5.63-37.28-7.82-56.38-8.77-18.69-3.14-37.38-6.27-56.07-9.41-18.42-2.67-36.83-5.34-55.25-8.01-15.97-2.6-31.87-6.54-47.93-7.36-11.09-.56-11.67-5.56-11.64-13.92.17-55.56.36-111.12-.16-166.68-.1-10.36,3.61-12.43,12.88-12.1,14.97.54,29.98-.14,44.98-.3h112.96c18.87,0,37.75,0,56.62,0,3.66.16,7.44.98,10.96.37,17.2-2.96,25.27,2.97,21.79,21.15-.32,1.69.44,3.6.7,5.4-1.82,18.76-1.82,37.51,0,56.27v56.53c-1.82,18.76-1.82,37.51,0,56.27ZM477.96,482.73c0-61.7-.32-121.77.31-181.83.11-10.13-3.52-10.57-11.67-10.57-67.72.03-135.44-.14-203.16-.88-11.33-.12-11.59,5.4-11.54,13.82.25,42.59,1.19,85.23-.44,127.76-.62,16.14,6.29,20.07,19.21,21.91,68.51,9.77,137,19.67,207.28,29.79Z" fill="#090906"/><path d="M297.14,255.07c-16.91-.2-33.82-.53-50.72-.55-6.1,0-10.8.03-10.71-8.54.68-62.52.98-125.04,1.4-187.56l-.05.03c18.8-2.71,37.59-5.41,56.39-8.12,8.71.45,17.42.9,26.14,1.36-3.87,9.16-9.01,14.65-20.73,14.64-12.24,0-24.41,4.48-36.73,6-7.61.94-10.4,3.55-10.34,11.57.36,48.15.33,96.3.04,144.44-.05,8.02,2.28,10.85,10.61,10.81,68.26-.35,136.52-.38,204.78-.25,7.67.01,10.98-1.67,10.93-10.34-.36-62.47-.19-124.95-.19-188.19-38.7,5.88-76.13,11.57-113.57,17.25-6.48.98-12.77,1.44-15.02-6.86.4-1.95.81-3.9,1.21-5.85,42.39-10.09,85.8-14.31,128.6-22.03,5.63-.28,11.25-.55,16.88-.83.15,17.15.29,34.29.44,51.44-1.82,18.76-1.82,37.51,0,56.27,0,18.84,0,37.68,0,56.53-1.82,18.76-1.82,37.51,0,56.27-.39,7.17-1.26,13.23-11.33,12.1-7.24-.81-14.69.21-22.04.42h-165.96Z" fill="#090906"/><path d="M477.96,482.73c-70.28-10.11-138.77-20.02-207.28-29.79-12.92-1.84-19.83-5.78-19.21-21.91,1.63-42.53.69-85.17.44-127.76-.05-8.43.2-13.95,11.54-13.82,67.71.74,135.44.92,203.16.88,8.15,0,11.78.44,11.67,10.57-.63,60.06-.31,120.13-.31,181.83Z" fill="#63d4fd"/><path d="M349.34,50.76c2.25,8.3,8.54,7.84,15.02,6.86,37.43-5.67,74.86-11.37,113.57-17.25,0,63.24-.17,125.72.19,188.19.05,8.67-3.26,10.35-10.93,10.34-68.26-.13-136.52-.1-204.78.25-8.33.04-10.66-2.8-10.61-10.81.29-48.15.32-96.3-.04-144.44-.06-8.02,2.73-10.63,10.34-11.57,12.32-1.52,24.5-6,36.73-6,11.72,0,16.86-5.49,20.72-14.65,1.47.07,2.95.14,4.42.21,1.08,5.56,2.6,10.79,9.92,10.12,6.39-.58,7.01-5.53,7.52-10.45,2.64-.27,5.27-.54,7.91-.81Z" fill="#e3647e"/><path d="M180.58,457.17c-18.4-5.37-37.27-7.7-56.36-8.6-18.85-3.15-37.7-6.3-56.54-9.46-17.5-3.04-35.01-6.08-52.51-9.12.02-6.08.04-12.17.07-18.25,1.82-18.76,1.82-37.51,0-56.27,0-18.84,0-37.68,0-56.53.31-8.49.62-16.98.93-25.47,17.12-.44,34.23-.88,51.35-1.33h56.62c26.25.16,52.53,1.03,78.75.18,12.52-.41,16.94,1.94,16.65,15.81-1.09,52.99-1.31,106.02-.34,159,.27,14.96-6.06,15.43-16.47,12.53-7.34-2.05-14.57-3.32-22.15-2.5ZM48.83,291.31c-9.7-2.67-16.1-2.78-15.76,11.04.85,34.68.92,69.42-.04,104.09-.37,13.45,6.04,13.93,15.74,12.42,48.56,7.67,97.12,15.31,145.67,23.06,8.38,1.34,8.83-3.43,8.81-9.79-.14-43.75-.19-87.5.03-131.25.04-7.32-.99-10.9-9.96-10.75-48.16.81-96.32.87-144.49,1.18Z" fill="#090906"/><path d="M218.51,62.07c.29,61.84.33,123.67,1.1,185.5.13,10.78-5.46,10.22-12.79,10.21-27.56-.03-55.12.25-82.69.41h-56.62c-17.13-.45-34.26-.9-51.38-1.35-.3-4.72-.6-9.44-.89-14.16,0-18.84,0-37.68,0-56.53,1.82-18.76,1.82-37.51,0-56.27-.02-12.35-.04-24.71-.06-37.06,17.5-3.04,35.01-6.07,52.51-9.11,9.11-1.47,18.22-2.95,27.33-4.42,9.3-3.53,19.92.66,28.87-4.92,19.02-1.95,38.2-2.91,56.64-8.66,2.55-.12,5.11-.23,7.66-.35l1.77.39,1.7-.64c8.95-1.01,17.9-2.03,26.85-3.04ZM48.5,104.57c-11.13-3.55-15.59-.32-15.38,12.11.63,37.4.83,74.83-.1,112.21-.33,13.15,5.31,14.28,15.32,12.18,1.68-.63,3.36-1.83,5.03-1.81,43.75.5,87.52.82,131.26,1.93,12.16.31,18.32-.44,17.78-16.11-1.48-43.06-1.01-86.22-.2-129.31.24-12.41-4.17-15.74-15.01-13.25-45.74,10.48-92.72,13.14-138.71,22.05Z" fill="#090906"/><path d="M48.83,291.31c48.16-.32,96.33-.37,144.49-1.18,8.97-.15,10,3.43,9.96,10.75-.22,43.75-.18,87.5-.03,131.25.02,6.36-.43,11.12-8.81,9.79-48.55-7.75-97.11-15.38-145.67-23.06.02-42.52.04-85.03.06-127.55Z" fill="#fde000"/><path d="M48.5,104.57c45.99-8.91,92.97-11.57,138.71-22.05,10.84-2.48,15.25.85,15.01,13.25-.82,43.1-1.28,86.25.2,129.31.54,15.66-5.62,16.42-17.78,16.11-43.74-1.11-87.5-1.43-131.26-1.93-1.67-.02-3.35,1.18-5.03,1.81.05-45.5.1-91,.15-136.5Z" fill="#63d4fd"/></svg>