<?xml version="1.0" encoding="UTF-8"?><svg id="RESEAUX_COLOR" xmlns="http://www.w3.org/2000/svg" viewBox="0 0 512 512"><path d="M97.25,356.62c-21.03-10.41-37.14-26.25-50.18-45.46.33-1.12.09-2.1-.74-2.94-1.01-1.87-2.02-3.73-3.03-5.6.17-6.3-4.98-13.23,2.58-18.65,6.74-4.83,11.45.6,16.79,2.89,9.09,3.9,18.57,5.65,29.85,5.97-13.5-11.68-25.92-22.43-38.34-33.18-7.37-10.71-14.74-21.43-22.11-32.14l.34-1.18-.94-.79c.21-3.17-.76-5.78-3.53-7.56.82-4.57-2.16-7.73-4.2-11.23-.31-5.91,2.85-9.57,7.84-12.03,12.79-.59,20.1,16.18,35.89,11.23-13.5-17.4-24.34-34.97-28.93-55.63.38-2.94.75-5.88-2.05-8-.09-8.46-.18-16.92-.27-25.38,2.12-7.63,4.23-15.26,6.35-22.88,11.42-23.09,12.84-23.16,31.31-5.46,19.55,18.74,40,36.39,65.33,47.25,25.85,15.88,55.25,21.52,83.81,29.95,16.58,4.89,22.67,2.1,19.28-15.37.17-1.87.35-3.74.53-5.62.88-1.84,1.76-3.68,2.64-5.52,10.33-36.56,33.96-61.08,68.65-75.58,18.78-5.08,37.59-4.96,56.41-.21,10.3,4.33,20.6,8.67,30.92,12.99,4.82,1.94,8.23,9.48,14.96,3.69,2.35-.69,4.71-1.38,7.06-2.07,1.56-.79,3.11-1.58,4.67-2.37,0,0-.02.2-.02.2,12.42-4.48,25.12-8.32,37.15-13.67,7.21-3.21,12.57-2.61,17.94,2.55-1.33,4.63-2.65,9.26-3.98,13.89-4.63,7.45-9.27,14.9-15.59,25.06,15.75-5.49,27.86-7.66,26.53,12.29l.67-.1c-3.86-.91-2.81,2.05-3.11,3.94-8.74,14.26-16.76,29.3-32.36,37.44-7.58,3.96-6.02,10.5-5.59,16.29,1.27,17.07-3.28,33.43-5.32,50.07-.76,6.22-3.6,13.28-11.79,11.25-6.9-1.71-6.06-8.5-5.35-14.2,1.62-12.98,3.76-25.92,4.8-38.94,1.42-17.82.19-36.25,22.17-44.18,4.2-1.52,6.53-8.22,10.14-13.09-9.18-2.47-15.62,2.79-22.65,4.52-4.98,1.23-9.61,4.41-13.33-.81-3.98-5.6-.88-10.28,3.29-14.79,7.77-8.39,18.44-14.58,22.5-28.47-4.43.99-7.72.95-10.11,2.39-21.94,13.25-42.65,11.16-64.62-1.47-15-8.62-31.9-13.33-50.29-8.81-43.6,10.71-71.06,45.29-71.44,92.68-.12,14.68-2.78,18.99-19.57,15.86-59.05-11.01-113.44-31.51-160.74-69.14-5.05-6.78-10.52-13.08-18.68-17.19-7.78,26.15-7.9,50.5,6.16,73.63,4.42,10.65,13.25,17.81,20.43,26.34,6.4,7.6,22.25,11.64,17.05,23.67-4.91,11.36-18.27,3.05-27.49,2.52-15.79-.9-19.44,2.71-10.65,16.8,14.16,22.71,35.59,35.82,58.98,46.74,5.77,2.69,15.35,3.17,12.85,12.69-2.25,8.58-10.9,6.51-17.57,6.55-15.94.1-31.89.03-48.88.03,8.91,19.57,22.46,29.37,41.13,34.26,11.06,2.9,22.2,2.56,33.14,4.61,5.74,1.08,13.96-.71,16.05,6.73,2.42,8.61-6.09,11.2-11.36,15.05-27.75,20.25-60.1,28.43-93.97,34.03,4.53,7.72,11.13,9.1,17.74,10.89,34.57,9.35,69.95,12.86,105.55,14.5,57.57,2.66,108.7-15.06,154.47-49.44,32.67-24.54,55.84-56.56,73.83-92.73,2.86-5.74,6.45-12.32,14.06-7.75,6.28,3.77,2.78,9.77.33,14.86-12.25,25.43-27.73,48.65-46.5,69.81-30.78,34.7-70.31,55.73-112.41,72.91-1.34,1.48-2.69,2.95-4.03,4.43-6.34.04-12.68.09-19.02.13-2.61-.74-3.45,1.06-4.23,2.94-11.12.23-22.25.47-33.37.7-18.79-.1-37.59-.2-56.38-.29-18.65-3.94-37.4-7.19-56.51-7.78-18.47-8.14-39.37-9.91-56.6-21.19-6.46-4.23-16.71-7.34-14.44-17.08,2.34-10.04,12.31-10.75,21.32-10.66,19.31.2,37.91-3.55,55.95-10.26,11.44-2.3,21.77-6.97,33.44-15.16-11.85-2-21.23-3.59-30.6-5.18Z" fill="#090906"/><path d="M490.19,116.07c3.62.93,8.67-.86,5.76,7.13-4.2,11.52-9.8,22.75-19.88,28.36-18.62,10.36-20.87,25.79-18.9,43.98.4,3.72.44,7.48.64,11.22-4.11,18.78-8.22,37.56-12.32,56.34-10.57,22.67-19.71,45.91-33,67.42-10.15,16.44-26.62,27.65-34.76,45.33-5.38.08-9,2.79-11.25,7.53-3.29,2.78-6.44,5.74-9.88,8.32-28.5,21.4-57.75,41.28-94.87,44.31,42.1-17.19,81.63-38.21,112.41-72.91,18.77-21.16,34.25-44.38,46.5-69.81,2.45-5.09,5.95-11.09-.33-14.86-7.6-4.57-11.2,2.01-14.06,7.75-17.99,36.17-41.16,68.19-73.83,92.73-45.77,34.38-96.9,52.1-154.47,49.44-35.6-1.64-70.98-5.15-105.55-14.5-6.6-1.79-13.21-3.16-17.74-10.89,33.88-5.6,66.23-13.78,93.97-34.03,5.27-3.85,13.78-6.44,11.36-15.05-2.09-7.44-10.32-5.65-16.05-6.73-10.94-2.05-22.08-1.71-33.14-4.61-18.67-4.9-32.22-14.7-41.13-34.26,16.99,0,32.94.07,48.88-.03,6.66-.04,15.31,2.02,17.57-6.55,2.5-9.52-7.08-10-12.85-12.69-23.39-10.91-44.82-24.02-58.98-46.74-8.79-14.09-5.14-17.69,10.65-16.8,9.22.52,22.58,8.84,27.49-2.52,5.2-12.04-10.66-16.07-17.05-23.67-7.17-8.53-16.01-15.69-20.43-26.34-.31-19.8,2.7-38.87,12.52-56.44,47.3,37.64,101.69,58.14,160.74,69.14,16.78,3.13,19.45-1.18,19.57-15.86.38-47.38,27.85-81.96,71.44-92.68,18.39-4.52,35.29.18,50.29,8.81,21.96,12.63,42.68,14.71,64.62,1.47,2.39-1.44,5.68-1.4,10.11-2.39-4.06,13.88-14.73,20.07-22.5,28.47-4.17,4.51-7.28,9.19-3.29,14.79,3.71,5.23,8.35,2.04,13.33.81,7.03-1.73,13.47-6.99,22.65-4.52-3.61,4.87-5.93,11.58-10.14,13.09-21.98,7.93-20.75,26.37-22.17,44.18-1.04,13.03-3.19,25.96-4.8,38.94-.71,5.7-1.55,12.49,5.35,14.2,8.19,2.03,11.02-5.03,11.79-11.25,2.04-16.64,6.6-33.01,5.32-50.07-.43-5.79-1.99-12.33,5.59-16.29,15.6-8.15,23.62-23.19,32.36-37.44,2.31-.31,3.17-1.76,3.11-3.94l-.67.1Z" fill="#fde000"/></svg>