<?xml version="1.0" encoding="UTF-8"?><svg id="RESEAUX_COLOR" xmlns="http://www.w3.org/2000/svg" viewBox="0 0 512 512"><path d="M158.23,69.03c15.87,1.33,30.99-6.84,47-3.74,2.93,8.77,10.25,7.66,17.12,7.59,62.11-.63,124.05,2.97,185.99,7.05,41.96,2.76,58.33,15.89,64.56,57.14,9.86,65.3,9.09,131.11,2.41,196.48-5.92,57.98-24.47,71.89-82.14,74.05-85.86,3.22-171.69,4.87-257.51-.22-20.47-1.21-41.19-.73-61.02-7.42-2.08-2.83-3.38-7.55-8.33-3.45l-.09-.07c-8.55-21.73-18.78-43.96-17.93-67.15,2.95-80.73-14.7-163.13,17.93-241.65l.06-.04c5.75,4.78,6.59-2.52,9.81-3.97,22.24-6.89,45.61-1.78,68.09-6.37,5.78-1.18,13.16,1.02,14.05-8.24ZM190.62,247.59c0,26.89.21,53.79-.09,80.68-.15,14.04,4.14,18.76,17.72,11.09,46.52-26.28,93.31-52.07,139.79-78.41,14.58-8.26,14.58-13.63.66-21.78-46.66-27.31-93.4-54.49-140.24-81.5-14.73-8.5-17.63-6.64-17.78,11.11-.22,26.27-.06,52.54-.06,78.81Z" fill="#fde000"/><path d="M158.23,69.03c-.89,9.26-8.27,7.06-14.05,8.24-22.48,4.59-45.85-.52-68.09,6.37-4.08-.67-8.03-1.03-9.81,3.97,0,0-.06.04-.06.04-27.67,10.47-30.34,36.37-32.96,59.37-7.23,63.46-7.1,127.34-.06,190.82,2.55,22.98,4.05,49.25,33.02,58.61,0,0,.09.07.09.07,1.18,4.99,5.12,3.34,8.34,3.45,19.82,6.69,40.55,6.2,61.02,7.42,85.83,5.08,171.65,3.44,257.51.22,57.67-2.16,76.21-16.07,82.14-74.05,6.68-65.37,7.45-131.18-2.41-196.48-6.23-41.26-22.6-54.38-64.56-57.14-61.94-4.08-123.88-7.68-185.99-7.05-6.87.07-14.19,1.18-17.12-7.59,2.51-9.06,9.9-7.7,16.61-7.73,23.51-.11,47.02-.19,70.53-.28,18.8.46,37.59.92,56.39,1.38,18.7,4.5,37.67,2.67,56.58,2.38,18.08.76,35.42,4.68,51.93,12.12,6.37,6.69,12.75,13.38,19.12,20.07,8.39,14.76,10.15,31.76,16.03,47.37-1.48,18.94,1.59,37.59,3.6,56.31.1,18.83.2,37.67.29,56.5-1.09,22.38-2.19,44.76-3.28,67.14-.52,9.24-1.05,18.48-1.57,27.72-2.62,1.44-3.14,3.74-2.68,6.45-.28,2.5-.56,5-.84,7.51-7.01,17.05-14.62,33.7-29.74,45.46-6.45,3.24-12.91,6.48-19.36,9.71-10.97,3.02-22.83-.3-33.51,4.77-10.85.44-21.7.88-32.56,1.32-5.55.68-11.11,1.35-16.66,2.03-2.38.14-4.76.28-7.14.41-56.49.21-112.98.41-169.48.62-9.89-1.29-19.78-2.72-29.78-1.01-3.52-3.01-7.61-1.54-11.52-1.43-3.86-.2-7.72-.4-11.57-.6-9.35-.3-18.7-.55-28.04-.92-41.46-1.64-69.66-23.78-77-61.93-3.49-18.13-4.76-36.68-7.03-55.04-.44-17.44-.87-34.89-1.31-52.33.1-18.76.2-37.53.29-56.29,1.92-4.79,2.27-9.69,1.02-14.69,3.96-13.7,2.66-27.78,3.01-41.74,6.05-17.2,9.21-35.5,19.41-51.13,8.96-8.18,18.34-15.78,29.44-20.97,8.85-1.42,17.71-2.85,26.56-4.27,5.13-.12,10.44,1.25,15.23-1.79,5.05,1.21,9.99.88,14.81-1.04,11.44,3.9,26.32-7.87,35.2,7.7Z" fill="#090906"/><path d="M190.62,247.59c0-26.27-.16-52.54.06-78.81.15-17.75,3.04-19.61,17.78-11.11,46.84,27.01,93.58,54.19,140.24,81.5,13.93,8.15,13.93,13.51-.66,21.78-46.48,26.34-93.27,52.13-139.79,78.41-13.58,7.67-17.87,2.95-17.72-11.09.3-26.89.09-53.79.09-80.68ZM206.38,321.19c43-23.79,84.69-46.85,128.43-71.04-43.69-25.58-85.57-50.09-128.43-75.18v146.22Z" fill="#090906"/><path d="M206.38,321.19v-146.22c42.86,25.09,84.74,49.6,128.43,75.18-43.75,24.2-85.43,47.26-128.43,71.04Z" fill="#63d4fd"/></svg>