<?xml version="1.0" encoding="UTF-8"?><svg id="GITHUB" xmlns="http://www.w3.org/2000/svg" width="512" height="512" viewBox="0 0 512 512"><path d="M300.19,367.31c8.53-1.59,15.98-2.72,23.3-4.39,55.95-12.74,82.8-47.76,83.93-109.43.42-23.17-5.24-44.4-19.82-63.02-2.15-2.75-3.06-7.83-2.25-11.3,3.88-16.77,2.64-33.06-1.9-49.5-2.03-7.36-6.54-9.84-12.69-7.5-16.08,6.11-32.09,12.54-47.57,20-5.55,2.67-10.04,4.07-16.11,2.65-34.02-7.96-68.08-7.62-102.23-.2-4.39.95-10.21-.12-14.14-2.39-15.35-8.84-30.63-17.41-48.5-20.22-7.31-1.15-11.1,1.02-13.11,8.48-4.35,16.18-5.33,32.19-1.66,48.64.78,3.52.03,8.73-2.17,11.36-32.09,38.18-20.2,106.56-.1,134.03,19.05,26.04,46.39,36.07,76.63,40.93,2.95.47,5.91.91,8.16,1.26-3.82,10.06-7.29,19.82-11.31,29.35-.9,2.13-3.45,4.1-5.71,5.02-24.7,10.14-47.33,2.18-62.85-19.85-6.24-8.86-15.53-15.69-23.95-22.84-2.54-2.16-6.84-3.15-10.3-3.08-4.25.08-8.47,1.84-12.7,2.88,2.4,3.46,4.05,8.09,7.33,10.16,11.01,6.97,19.51,16.33,23.62,28.19,11.78,33.98,42.2,41.95,73.22,37.66,2.95-.41,5.9-.85,10.19-1.47,0,15.71.52,30.52-.19,45.28-.44,9.15-8.62,13.58-18.54,8.84-21.03-10.04-43.48-18.76-61.7-32.76C37.35,392.87,4.81,310.97,25.23,212.92,45.42,115.92,107.1,53.59,203.72,29.78,336.42-2.92,471.71,90.63,490.31,225.86c15.65,113.83-46.03,219.74-151.03,259.3-2.56.96-5.11,2.03-7.75,2.67-10.32,2.48-16.63-2.29-16.68-13.01-.09-18.23-.05-36.46.32-54.68.37-18.8-1.06-37.01-14.96-52.82Z"/></svg>