<?xml version="1.0" encoding="UTF-8"?><svg id="GITHUB" xmlns="http://www.w3.org/2000/svg" width="512" height="512" viewBox="0 0 512 512"><path d="M294.85,307.8c7.5-1.4,14.05-2.4,20.48-3.86,49.2-11.2,72.81-41.99,73.8-96.23.37-20.38-4.61-39.04-17.43-55.41-1.89-2.42-2.69-6.88-1.98-9.93,3.41-14.75,2.32-29.07-1.67-43.53-1.79-6.47-5.75-8.65-11.16-6.6-14.14,5.37-28.22,11.03-41.83,17.58-4.88,2.35-8.83,3.58-14.17,2.33-29.92-7-59.86-6.7-89.89-.18-3.86.84-8.98-.11-12.43-2.1-13.49-7.77-26.93-15.31-42.65-17.78-6.43-1.01-9.76.89-11.52,7.46-3.83,14.22-4.69,28.31-1.46,42.77.69,3.09.03,7.68-1.91,9.99-28.21,33.57-17.76,93.7-.09,117.86,16.75,22.9,40.79,31.72,67.39,35.99,2.6.42,5.2.8,7.17,1.11-3.36,8.85-6.41,17.43-9.95,25.81-.79,1.87-3.04,3.6-5.02,4.42-21.72,8.91-41.62,1.92-55.27-17.45-5.49-7.79-13.66-13.8-21.06-20.08-2.23-1.9-6.02-2.77-9.06-2.71-3.74.07-7.44,1.62-11.17,2.53,2.11,3.04,3.56,7.11,6.44,8.94,9.68,6.13,17.15,14.36,20.77,24.78,10.36,29.88,37.11,36.88,64.38,33.11,2.59-.36,5.18-.75,8.96-1.3,0,13.81.46,26.84-.17,39.82-.39,8.05-7.58,11.94-16.3,7.78-18.5-8.82-38.23-16.5-54.25-28.81-70.07-53.83-98.69-125.84-80.73-212.06C70.84,86.74,125.07,31.94,210.03,11c116.69-28.76,235.65,53.51,252,172.41,13.76,100.09-40.48,193.22-132.8,228.01-2.25.85-4.49,1.78-6.82,2.34-9.08,2.18-14.62-2.01-14.67-11.44-.08-16.03-.04-32.06.28-48.08.33-16.53-.93-32.54-13.16-46.44Z"/><path d="M155.42,489.9v-13.18c-3.3-.39-6.16-.72-9.43-1.11v-12.42h25.19c0,11.59.19,23.22-.22,34.83-.06,1.61-2.8,3.68-4.75,4.6-25.08,11.77-48.74-2.59-49.75-30.1-.09-2.4-.08-4.8,0-7.2.79-26.16,13.55-37.33,39.56-34.68,13.15,1.34,13.96,2.72,8.94,15.61-10.43-.49-22.14-5.43-29.74,6.43-4.92,7.68-3.91,26.47,1.2,33.13,3.76,4.9,8.77,6.06,19,4.08Z"/><path d="M291.41,504.16h-15.3v-29.84h-20.67v29.54h-14.72c-.26-1.82-.79-3.83-.8-5.83-.06-19.49.18-38.99-.17-58.47-.11-6.19,2.7-6.92,7.75-6.88,4.86.04,8.36.3,7.9,6.68-.45,6.33-.1,12.72-.1,19.69h20.49c0-7.28.1-14.4-.03-21.52-.11-5.63,3.91-4.88,7.23-4.63,3.25.24,8.35-2.12,8.39,4.19.11,22.09.04,44.17.04,67.08Z"/><path d="M365.13,456.52c2.54-.65,4.04-1.07,5.57-1.42,14.79-3.43,24.05,3.21,25.08,18.37.34,5.01.26,10.17-.56,15.11-2.34,14.05-9.96,18.94-23.78,16.6-6.85-1.16-13.88-1.24-21.99-1.9,0-8.4,0-17.1,0-25.79,0-12.52.34-25.05-.15-37.55-.26-6.55,2.67-7.22,8.11-7.31,5.8-.09,8.39,1.37,7.82,7.58-.48,5.21-.1,10.49-.1,16.31ZM364.79,479.36c0,1.89.15,3.25-.03,4.56-.73,5.39.87,8.82,6.93,9.12,5.81.29,8.4-2.65,8.55-8.1.11-3.72.38-7.5-.17-11.14-.91-6.02-4.98-7.78-10.62-6.47-7.87,1.84-3.34,8.3-4.67,12.03Z"/><path d="M297.87,456.09h15.58c0,9.73.01,18.96,0,28.19-.01,4.56.36,8.84,6.51,8.76,5.75-.07,7.66-3.02,7.4-8.7-.42-9.02-.11-18.07-.11-27.93h14.94v46.66c-.31.24-.8.92-1.11.84-9.08-2.26-17.74,1.72-26.61,1.76-10.99.05-16.28-5.26-16.53-16.13-.25-10.89-.05-21.78-.05-33.46Z"/><path d="M222.03,442.43c.27,4.35.51,8.25.78,12.52,3.41.41,6.48.77,10.12,1.21v11.51c-3.18.48-6.23.93-9.22,1.38-4.25,16.93-2.13,22.71,9.45,24.75-.63,4,4.13,9.47-3.89,11.31-9.94,2.28-19.07-1.44-21-9.57-1.27-5.35-.94-11.09-1.21-16.66-.14-2.91-.02-5.83-.02-9.14-2.51-.74-4.7-1.38-7.82-2.3.19-2.81-.14-8.32.67-8.49,9.72-2.06,6.28-10.21,7.74-16.51h14.42Z"/><path d="M179.29,504.38v-48.4h14.84c0,15.12.1,29.95-.18,44.77-.02,1.23-2.5,3.18-4.08,3.47-3.08.55-6.33.16-10.58.16Z"/><path d="M196.37,445c-3.33,2.25-6.75,6.34-9.97,6.19-2.88-.13-7.2-4.59-7.9-7.78-1.07-4.9,2.9-9.2,7.96-8.51,3.54.48,6.63,4.26,9.92,6.56,0,1.18,0,2.37,0,3.55Z"/></svg>