<?xml version="1.0" encoding="UTF-8"?><svg id="CUBIC" xmlns="http://www.w3.org/2000/svg" width="512" height="512" viewBox="0 0 512 512"><path d="M390.79,176.07c-32.13,17.57-60.94,32.54-88.88,48.97-11.99,7.05-21.43,7.45-33.12-.33-17.42-11.59-35.9-21.58-57.3-34.25,35.78-21.78,67.82-41.29,102.16-62.19-18.08-10.69-33.19-21.05-49.59-28.57-5.85-2.68-15.93-.54-22.2,2.87-26.72,14.53-52.25,31.3-79.3,45.13-7.64,3.9-20.56,3.81-28.3-.02-22.84-11.32-44.29-25.44-69.57-40.4,45.86-26.88,90.51-48.64,130.05-77.42,42.37-30.85,77.32-32.44,120.78-.7,45.22,33.02,96.25,58.15,145.22,85.89,11.43,6.47,15.76,13.78,15.65,26.93-.61,73.79-.6,147.59-.04,221.38.1,13.15-4.48,20.49-15.74,26.95-63.34,36.34-126.39,73.19-189.2,110.45-11.03,6.54-19.46,7.24-30.95.38-63.35-37.8-127.39-74.44-190.69-112.32-6.48-3.88-13.61-13.29-13.69-20.22-.85-74.54-.35-149.09-.12-223.63,0-1.27,1.25-2.54,3.44-6.7,24.69,14.43,49.66,28.18,73.48,43.68,4.7,3.06,6.86,12.88,6.98,19.64.66,37.27.9,74.56.02,111.82-.33,14.04,4.15,22.42,16.8,28.67,16.06,7.93,31.17,17.77,51.04,29.32v-146.17c27.18,15.54,50.6,27.84,72.61,42.3,5.21,3.42,7.8,14.03,7.96,21.41.79,36.33.36,72.69.36,114.52,41.54-24.28,79.2-46.1,116.52-68.5,3.08-1.85,5.36-7.61,5.39-11.58.37-47.65.24-95.31.24-147.3Z"/></svg>