<?xml version="1.0" encoding="UTF-8"?><svg id="CUBIC" xmlns="http://www.w3.org/2000/svg" width="512" height="512" viewBox="0 0 512 512"><path d="M348.34,206.18c-4.93-28.45,11.77-27.27,28.62-27.08,33.25.39,66.51.11,101.77.11v150.64c-39.98,0-80.13.76-120.17-.95-5.07-.22-9.59-13.4-16.33-23.54H32.1v-99.19h316.24Z"/><path d="M164.43,170.99H31.21V22.19c41.14,0,81.28-.92,121.29.9,6.7.3,12.87,12.44,23.29,23.27h304.81c0,30.03,1.14,57.93-1.06,85.57-.39,4.95-14.57,12.51-22.45,12.59-88.73.92-177.47,1.08-266.2.23-18.26-.17-29.23,3.32-26.45,26.24Z"/><path d="M31.11,489.73v-150.41c40.93,0,81.17-.89,121.29.91,6.4.29,12.26,12.63,23.34,24.92h303.78v97.24H168.91c.62,31.58-20.34,27.56-39.42,27.41-32.28-.26-64.56-.07-98.37-.07Z"/></svg>