<?xml version="1.0" encoding="UTF-8"?><svg id="CUBIC" xmlns="http://www.w3.org/2000/svg" width="512" height="512" viewBox="0 0 512 512"><path d="M44.03,506.93c.51-52.09-13.14-104.76,31.88-149.03,24.7-24.29,41.71-56.25,63.62-83.6,10.19-12.72,10.29-21.65.25-34.43-24.59-31.29-46.39-64.84-71.85-95.37-19.48-23.37-28.21-47.89-25.27-78.02,1.82-18.66.34-37.64.34-58.85h330.02c-25.46,34.07-48.26,66.07-73.05,96.44-4.55,5.57-17.12,6.18-26.04,6.34-36.6.67-73.22.28-116.03.28,24.17,32.39,43.87,60.95,65.93,87.56,13.68,16.5,58.48,10.12,72.6-8.6,41.66-55.26,83.7-110.26,124.32-166.27,11.77-16.23,24.48-22.45,47.08-15.51-2.04,48.93,15.03,100.41-28.13,144.76-25.56,26.27-44.17,59.19-67.16,88.12-10.08,12.68-10.19,21.64-.03,34.44,24.16,30.43,45.36,63.26,70.29,92.99,20.11,23.98,29.88,49.05,26.4,80.38-2.06,18.56-.38,37.53-.38,58.36H44.03ZM352.9,401.95c-22.57-30.12-38.25-61.64-63.41-80.63-14.95-11.29-51.84-12.2-66.4-1.23-25.82,19.44-42.16,51.47-65.22,81.87h195.03Z"/></svg>