<?xml version="1.0" encoding="UTF-8"?><svg id="POUBELLES" xmlns="http://www.w3.org/2000/svg" width="512" height="512" viewBox="0 0 512 512"><g id="Calque_4"><path d="M139.8,460.64c8.6.88,15.23,2.12,21.86,2.14,62.76.15,125.53-.53,188.28.47,18.97.3,24.58-5.71,25.73-24.72,5.28-87.29,12.44-174.47,18.76-261.69,1.04-14.42,1.99-29.45,21.84-27.27,19.85,2.18,17.03,17.96,16.04,31.75-6.67,93.23-13.37,186.46-20.05,279.68-2.72,37.98-5,40.17-43.02,40.18-78.24.03-156.47-.19-234.71.13-18.5.08-31.39-3.35-32.89-25.9-6.26-94.12-13.53-188.16-20.38-282.24-.44-5.98-.26-12.01-.66-18-.87-13.2,1.52-23.98,17.26-24.92,15.11-.9,19.04,14.1,19.91,22.6,5.28,52.01,7.85,104.3,11.67,156.46,3.18,43.43,6.83,86.82,10.36,131.32Z"/><path d="M178.28,79.7c.77-13.45,0-23.14,2.11-32.15,5.21-22.25,18.36-36.42,42.94-36.57,20.61-.12,41.22-.55,61.82-.13,30.41.62,45.19,15.07,47.5,45.45.51,6.76,1,13.52,1.71,23.11,30.6,0,60.46.03,90.31-.01,14.47-.02,29.42.84,29.71,19.87.31,20.73-16.44,18.42-29.9,18.44-111.62.17-223.24.1-334.86.1-3.43,0-8.55-.39-11.01-1.13-2.25-.68-3.56-1.78-4.87-3.39-7.91-9.75-10.41-22.83-.33-30.32,1.8-1.33,3.62-2.2,5.5-2.33,32.32-2.2,64.88-.94,99.37-.94ZM292.88,77.95v-27.32h-73.47v27.32h73.47ZM73.74,113.29,89.62,117.81"/></g></svg>