<?xml version="1.0" encoding="UTF-8"?><svg id="POUBELLES" xmlns="http://www.w3.org/2000/svg" width="512" height="512" viewBox="0 0 512 512"><g id="Calque_4_-_copie"><path d="M306.97,90.65c8.06-7.19,13.12-13.12,19.43-17.04,15.57-9.66,31.07-10.24,45.09,3.61,11.75,11.62,23.69,23.07,35.13,34.99,16.9,17.6,17.09,34.18,1.16,52.72-3.54,4.12-7.1,8.23-12.14,14.08,17.36,17.36,34.27,34.3,51.23,51.21,8.22,8.19,16.21,17.16,5.58,28.12-11.58,11.93-19.77,1.12-27.42-6.49-63.4-63.21-126.67-126.55-189.97-189.86-1.95-1.95-4.63-5.07-5.6-6.88-.89-1.66-1.01-3.03-.84-4.69,1.04-10.02,7.05-18.85,17.01-17.39,1.77.26,3.3.81,4.44,1.8,19.58,17.08,37.33,36.26,56.89,55.82ZM372.96,154.66c5.45-5.45,10.04-10.04,15.5-15.5l-41.67-41.67c-5.55,5.55-10.45,10.45-15.5,15.5,14.48,14.48,27.87,27.87,41.67,41.67ZM228.63,50.42,235.07,61.98"/><path d="M121.96,446.5c6.9.7,12.22,1.7,17.54,1.71,50.34.12,100.68-.42,151.01.38,15.22.24,19.71-4.58,20.64-19.82,4.23-70.01,9.98-139.93,15.04-209.89.84-11.56,1.6-23.62,17.51-21.87,15.92,1.75,13.66,14.41,12.87,25.47-5.35,74.77-10.72,149.55-16.08,224.32-2.18,30.46-4.01,32.22-34.51,32.23-62.75.02-125.5-.15-188.25.11-14.84.06-25.17-2.69-26.38-20.78-5.02-75.49-10.85-150.92-16.34-226.37-.35-4.8-.21-9.63-.53-14.44-.7-10.59,1.22-19.23,13.84-19.99,12.12-.72,15.27,11.31,15.97,18.13,4.23,41.72,6.3,83.65,9.36,125.49,2.55,34.83,5.48,69.63,8.31,105.32Z"/></g></svg>