<?xml version="1.0" encoding="UTF-8"?><svg id="ref" xmlns="http://www.w3.org/2000/svg" width="512" height="512" viewBox="0 0 512 512"><defs><style>.cls-1{fill:none;stroke:#000;stroke-miterlimit:10;stroke-width:8px;}</style></defs><g id="Poubelle_x5F_Tracé_x5F_Noir"><path id="Corp" class="cls-1" d="M250.15,214.32c42.93.88,85.86,1.75,128.79,2.64,14.07.29,17.37,3.63,15.43,17.64-7.77,56.18-15.84,112.31-23.78,168.46-3.9,27.64-7.91,55.26-11.55,82.93-2.13,16.2-4.35,18.24-20.47,18.15-61.46-.34-122.91-.47-184.37-.75-15.91-.07-19.67-4.03-21.53-20.08-7.68-66.24-15.57-132.45-23.37-198.67-2.13-18.08-4.28-36.17-6.33-54.26-1.68-14.83,2.19-19,17.5-18.71,43.22.83,86.45,1.75,129.67,2.64ZM228.22,354.89c-.6,29.4-1.17,58.79-1.83,88.19-.17,7.86,1.91,14.56,8.99,18.85,12.72,7.71,26.53-1.01,26.96-17.35.85-32.33,1.38-64.67,2.04-97,.54-26.46,1.15-52.91,1.57-79.37.19-11.89-6.13-19.57-16.21-20.29-11.43-.82-19.39,6.9-19.71,19.67-.73,29.1-1.23,58.2-1.82,87.3ZM293.07,445.27c-.13,10.63,8.62,19.34,19.47,18.43,8.76-.73,14.08-5.89,15.55-14.28,1.97-11.26,3.29-22.64,4.77-33.98,6.39-49.18,12.79-98.36,19.06-147.56,1.05-8.26-4.08-15.73-11.97-18.4-11.79-3.99-22.32,3.49-24.05,16.95-4.7,36.38-9.5,72.76-14.16,109.14-2.95,22.99-5.73,46.01-8.66,69.7ZM197.24,442.6c-.06-1.17-.07-2.35-.2-3.52-6.26-58.11-12.49-116.22-18.85-174.31-1.3-11.87-8.86-18.94-18.59-18.05-11.52,1.04-17.68,8.54-16.67,21.45,1.12,14.35,2.88,28.64,4.41,42.96,4.79,44.69,9.51,89.39,14.47,134.07,1.26,11.32,9.25,17.94,19.52,17.14,9.63-.75,16.02-8.68,15.9-19.72Z"/><path id="Couvercle" class="cls-1" d="M409.7,143.83c7.88-4.8,14.83-9.2,21.94-13.33,8.77-5.1,15.02-3.84,20.24,4.49,9.36,14.95,18.53,30.03,27.5,45.22,4.75,8.04,2.79,15.28-4.96,20.39-3.43,2.26-6.98,4.36-10.55,6.41-3.28,1.89-6.65,3.62-10.96,5.94,1.49,2.74,2.83,5.5,4.43,8.09,13.61,22.01,27.3,43.96,40.91,65.97,6.52,10.55,5.07,21.8-3.41,27.36-9.06,5.94-19.85,2.6-26.82-8.59-47.38-76.15-94.72-152.32-142.02-228.51-6.35-10.22-4.71-21.46,3.58-26.6,9.44-5.85,20.13-2.69,26.95,8.23,16.21,25.93,32.31,51.93,48.48,77.89,1.37,2.21,2.88,4.33,4.69,7.02Z"/><path id="Fleche" class="cls-1" d="M42.88,85.79c9.39-15.75,18.79-31.51,28.95-48.54H10.52c-.28-1.16-.56-2.31-.84-3.47,18.12-6.7,35.91-14.57,54.43-19.84,34.91-9.94,69.2-8.55,101.35,10.55,17.54,10.43,31.16,24.87,42.51,41.63,1.58,2.33,3.22,4.62,5.81,8.32,3.01-11.58,5.62-21.62,8.68-33.39,23.52,45.54,28.18,92.71,26.04,141.89-12.54-16.76-23.57-34-37.14-48.94-13.46-14.83-29.48-27.35-44.56-41.05,8.02-1.54,17.27-3.32,26.57-5.11-26.53-31.63-63.47-45.62-103.43-27.33-13.25,6.06-25.26,14.83-37.78,22.44-2.4,1.46-4.57,3.3-6.85,4.97-.81-.71-1.62-1.41-2.43-2.12Z"/></g></svg>